M48
;Layer_Color=9474304
;FILE_FORMAT=2:5
INCH,TZ
;TYPE=PLATED
T01F00S00C0.01378
T03F00S00C0.02480
T04F00S00C0.04528
T05F00S00C0.14000
%
T01
X131890Y108268
X137795
X134843Y114173
X131890Y120079
X146653Y125984
Y137795
Y149606
X143701Y155512
X149606
X108268
X111220Y149606
X108268Y143701
X111220Y137795
X108268Y131890
X114173
X123031Y137795
X182087
X187992
X193898
X199803
X205709
X211614
X217520
X223425
X229331
X235236
X237795Y140157
X232283Y143701
X226378
X220472
X214567
X208661
X202756
X196850
X190945
X185039
X179134
X182087Y149606
X187992
X193898
X199803
X205709
X211614
X217520
X223425
X229331
X235236
X232283Y155512
X226378
X202756
X196850
X190945
X185039
X179134
Y131890
X170275Y125984
X255512Y114173
X271654Y109055
X272441Y103150
X276378
X280315
X279134Y128347
X279132Y136171
X298819Y147224
X298819Y153150
X297244Y120472
Y114173
X312205Y110630
X316535
X319126Y113551
X321654Y116535
X325984
X330315
X336614Y112598
X342126
X352281Y113779
X357087
X361417
X366142
X371260Y111417
X375197
X379134
X383071
X388779Y114173
X394685
X391732Y120079
X385827
X379921
X382874Y125984
X388779
X394685
X391732Y131890
X385827
X381890Y138189
Y149606
X368110
Y138189
X357480Y135433
X354331Y138189
Y149606
X340945
Y138189
X327165
Y149606
X313386Y149606
Y138189
X367717Y124409
X371260
X397638Y131890
X403543
X409449
X415354
X421260
X424213Y137795
Y149606
X409449Y149606
Y138189
X395669
Y149606
X397638Y108268
X391732
X424213Y114173
Y125984
Y161417
Y173228
Y185039
Y196850
Y208661
Y220472
Y232283
Y244094
Y255905
Y267716
Y279527
Y291338
Y303150
X418307
X412401
X406496
X400590
X394685
X388779
X382874
X376968
X371063
X365157
X359252
X368110Y297244
X374016
X376377Y291732
X383857Y292125
X385827Y297244
X391732
X397638
X394685Y291338
X395669Y263386
Y251969
Y240551
Y229134
Y217717
Y206299
Y194882
Y183465
Y172047
Y161024
X409449
Y172047
Y183465
Y194882
Y206299
Y217717
Y229134
Y240551
Y251969
Y263386
X381890Y263386
Y251969
Y240551
Y229134
Y217717
Y206299
Y194882
Y183465
Y172047
Y161024
X368110
Y172047
Y183465
Y194882
Y206299
Y217717
Y229134
Y240551
Y251969
Y263386
X354331
Y251969
Y240551
Y229134
Y217717
Y206299
Y194882
Y183465
Y172047
Y161024
X340945
Y172047
Y183465
Y194882
Y206299
Y217717
Y229134
Y240551
Y251969
Y263386
X327165
Y251969
Y240551
Y229134
Y217717
Y206299
Y194882
Y183465
Y172047
Y161024
X313386Y161024
Y172047
Y183465
Y194882
Y206299
Y217717
Y229134
Y240551
Y251969
Y263386
X317913Y279527
X319449Y286457
X315139Y286436
X314961Y297244
X317913Y303150
X323819
X329724
X335630
X344882Y294882
X346457Y287795
X338583Y285433
X321260Y294094
X309055Y297244
X303150
X297244
X291338
X285433
X279527
X273622
X267716
X270669Y303150
X276575
X282480
X288386
X294291
X300197
X306102
X312008
Y279527
X300197
X298829Y268888
X298829Y261407
X309055Y261811
X298819Y239370
X298819Y231890
X299213Y209842
X299213Y202362
X298425Y180315
X298425Y172835
X279134Y165748
X278740Y157874
Y187401
Y195275
X279134Y216929
Y224803
Y246457
Y254331
X267716Y261811
X264764Y267716
X258858
X255905Y273622
X261811
X264764Y279527
Y291338
Y303150
X258858
X252953
X247047
X241142
X235236
X229331
X223425
X217520
X211614
X205709
X199803
X193898
X187992
X182087
X176181
X170275
X164370
X158465
X161417Y297244
X167323
X173228
X176181Y291338
X182087
X187401Y290158
X190551
X193701
Y287008
X190551
X187401
X179134Y285433
X173228
X167323
X161417
X164370Y291338
X170275
X158465
X161417Y273622
X167323
X173228
X170275Y267716
X164370
X158465
X161417Y261811
X167323
X173228
X179134
X185039
X188189Y267323
X191339
X194488
Y270472
X191339
X188189
X181102Y274803
X199803Y279527
X196850Y285433
X202756
X208661
X211614Y291338
X205709
X199803
X196850Y297244
X202756
X190945
X193701Y261417
Y255512
X193898Y244094
X199803
X205709
X211614
X208661Y238189
X196850
X187992Y244094
X182087
X176181
X170275
X164370
X158465
X161417Y250000
X167323
X173228
X179134Y238189
X167323
X214567Y250000
X220472
X226378
X232283Y247637
X229331Y244094
X235236
X241142
X247047
X252953
X258858
X264764
X261811Y250000
X255905
X250000
X244094
X238189
X235433Y255511
X229527
X223425Y255905
X222047Y261417
X220472Y273622
X214567
X208661
X211614Y267716
X223425Y244094
X241142Y255905
X250000Y238189
X255905
X253150Y200787
X244488
X232283Y190945
X226378
X220472
X214567
X208661
X202756
X196850
X190945
X185039
X179134
X182087Y185039
X187992
X193898
X199803
X205709
X211614
X217520
X223425
X229331
X235236
X232283Y179134
X226378
X220472
X214567
X208661
X202756
X196850
X190945
X185039
X179134
X182087Y173228
X187992
X193898
X199803
X205709
X211614
X217520
X223425
X229331
X235236
X232283Y167323
X226378
X229331Y161417
X235236
X199803
X193898
X187992
X182087
X179134Y167323
X185039
X190945
X196850
X202756
X235236Y291338
X241142
X247047
X252953
X250000Y297244
X244094
X238189
X232283
X279134Y283858
Y275984
X155512Y273622
X149606
X143701
X137795
Y261811
X143701
X149606
X155512
X152559Y267716
X149606Y285433
X155512
X152559Y291338
X146653
X140748
X143701Y285433
X146653Y303150
X152559
X155512Y297244
X140748Y303150
X128937
X123031
X111220
X108268Y273622
X114173
X120079
X125984
X128937Y279527
Y267716
X123031
X117126
X111220
X108268Y261811
X114173
X120079
X125984
X128937Y255905
X123031
X117126
X111220
X108268Y250000
X114173
X114567Y230709
X114173Y226378
X117126Y220472
X114173Y214567
X117126Y208661
X114173Y202756
X117126Y196850
X114173Y190945
X117126Y185039
X123031
X128937
X125984Y179134
X131890
X128937Y173228
X123031
X120079Y179134
X114173
X120079Y167323
X125984
X143701
X146653Y173228
X143701Y179134
X146653Y185039
X140748
X143701Y190945
X146653Y196850
X143701Y202756
X146653Y208661
X140748
X143701Y214567
X149606
X146653Y220472
X143701Y226378
X140945Y229133
X140748Y244094
X152559
X149606Y238189
X155512
Y250000
X123622Y231102
X119291
X128937Y208661
X146653Y161417
X111220
T03
X370315Y289213
X380315
X390315
X380315Y299213
T04
X153150Y109843
Y119843
Y129842
Y139842
Y149843
X136614Y150787
Y140787
X262992Y139842
Y129842
Y119843
Y109843
Y149843
Y159843
Y169843
Y179842
Y189842
Y199843
Y209842
Y219843
X262756Y233465
X252756
X242756
X232756
X222756
X212756
X202756
X192756
X182756
X172756
X162756
X152756
X153150Y219843
Y209842
Y199843
Y189842
Y179842
Y169843
Y159843
X136614Y160787
Y170787
X136614Y192362
Y202362
Y212362
Y222362
X123622
Y212362
Y202362
Y192362
X108268Y189921
Y179921
Y169921
Y199921
Y209921
Y219921
Y229921
Y239921
T05
X116929Y116929
X409842
Y288976
X116929
M30
