G04*
G04 #@! TF.GenerationSoftware,Altium Limited,Altium Designer,25.3.3 (18)*
G04*
G04 Layer_Color=8421504*
%FSLAX25Y25*%
%MOIN*%
G70*
G04*
G04 #@! TF.SameCoordinates,FAE4C2FF-6651-435E-A804-DF7E7BB8AC14*
G04*
G04*
G04 #@! TF.FilePolarity,Positive*
G04*
G01*
G75*
%ADD16R,0.04724X0.05709*%
%ADD17R,0.05512X0.03937*%
%ADD18R,0.05709X0.01772*%
%ADD19R,0.01772X0.05709*%
%ADD20R,0.05709X0.04724*%
%ADD21R,0.03937X0.05512*%
%ADD22R,0.02362X0.04724*%
%ADD23R,0.01181X0.04724*%
%ADD24R,0.03740X0.01772*%
%ADD25R,0.05709X0.03740*%
%ADD26R,0.05709X0.12795*%
G04:AMPARAMS|DCode=27|XSize=47.24mil|YSize=41.34mil|CornerRadius=0mil|HoleSize=0mil|Usage=FLASHONLY|Rotation=135.000|XOffset=0mil|YOffset=0mil|HoleType=Round|Shape=Rectangle|*
%AMROTATEDRECTD27*
4,1,4,0.03132,-0.00209,0.00209,-0.03132,-0.03132,0.00209,-0.00209,0.03132,0.03132,-0.00209,0.0*
%
%ADD27ROTATEDRECTD27*%

%ADD28R,0.05315X0.02559*%
%ADD29R,0.03543X0.03543*%
%ADD30R,0.05906X0.03543*%
%ADD31R,0.03543X0.05906*%
%ADD32R,0.08268X0.05512*%
D16*
X355702Y129988D02*
D03*
X349009D02*
D03*
X351300Y301483D02*
D03*
X344607D02*
D03*
X216732Y297244D02*
D03*
X210039D02*
D03*
X134449Y237795D02*
D03*
X141142D02*
D03*
D17*
X359449Y296654D02*
D03*
Y289173D02*
D03*
X275630Y232126D02*
D03*
Y239606D02*
D03*
X250394Y264370D02*
D03*
Y271850D02*
D03*
X238976Y264370D02*
D03*
Y271850D02*
D03*
X134646Y278937D02*
D03*
Y286417D02*
D03*
X275590Y173031D02*
D03*
Y180512D02*
D03*
X290551Y216339D02*
D03*
Y223819D02*
D03*
X275571Y202579D02*
D03*
Y210059D02*
D03*
X290945Y186811D02*
D03*
Y194291D02*
D03*
X275610Y143484D02*
D03*
Y150965D02*
D03*
X290945Y127756D02*
D03*
Y135236D02*
D03*
X290965Y245846D02*
D03*
Y253327D02*
D03*
X290965Y157264D02*
D03*
Y164744D02*
D03*
X275630Y114016D02*
D03*
Y121496D02*
D03*
X275630Y261653D02*
D03*
Y269134D02*
D03*
X290945Y275394D02*
D03*
Y282874D02*
D03*
D18*
X351673Y295571D02*
D03*
Y293012D02*
D03*
Y290453D02*
D03*
Y287894D02*
D03*
Y285335D02*
D03*
Y282776D02*
D03*
Y280217D02*
D03*
Y277658D02*
D03*
X328642D02*
D03*
Y280217D02*
D03*
Y282776D02*
D03*
Y285335D02*
D03*
Y287894D02*
D03*
Y290453D02*
D03*
Y293012D02*
D03*
Y295571D02*
D03*
D19*
X361122Y129626D02*
D03*
X363681D02*
D03*
X366240D02*
D03*
X368799D02*
D03*
X371358D02*
D03*
X373917D02*
D03*
X376476D02*
D03*
X379035D02*
D03*
Y106595D02*
D03*
X376476D02*
D03*
X373917D02*
D03*
X371358D02*
D03*
X368799D02*
D03*
X366240D02*
D03*
X363681D02*
D03*
X361122D02*
D03*
X320985Y129929D02*
D03*
X323544D02*
D03*
X326103D02*
D03*
X328662D02*
D03*
X331221D02*
D03*
X333780D02*
D03*
X336339D02*
D03*
X338898D02*
D03*
Y106898D02*
D03*
X336339D02*
D03*
X333780D02*
D03*
X331221D02*
D03*
X328662D02*
D03*
X326103D02*
D03*
X323544D02*
D03*
X320985D02*
D03*
D20*
X314961Y129724D02*
D03*
Y123031D02*
D03*
X230709Y271457D02*
D03*
Y264764D02*
D03*
X215354Y262008D02*
D03*
Y255315D02*
D03*
X134646Y299410D02*
D03*
Y292717D02*
D03*
X249213Y115551D02*
D03*
Y122244D02*
D03*
D21*
X276181Y246850D02*
D03*
X283661D02*
D03*
X127362Y245669D02*
D03*
X119882D02*
D03*
X276181Y216929D02*
D03*
X283661D02*
D03*
X276181Y224803D02*
D03*
X283661D02*
D03*
X276165Y187401D02*
D03*
X283646D02*
D03*
X276181Y195276D02*
D03*
X283661D02*
D03*
X276181Y157874D02*
D03*
X283661D02*
D03*
X276181Y128347D02*
D03*
X283661D02*
D03*
X276181Y254331D02*
D03*
X283661D02*
D03*
X276181Y165748D02*
D03*
X283661D02*
D03*
X276181Y275984D02*
D03*
X283661D02*
D03*
X276181Y136221D02*
D03*
X283661D02*
D03*
X276181Y283858D02*
D03*
X283661D02*
D03*
D22*
X255020Y279626D02*
D03*
X230020D02*
D03*
X233020D02*
D03*
X252020D02*
D03*
D23*
X235520D02*
D03*
X237520D02*
D03*
X239520D02*
D03*
X247520D02*
D03*
X249520D02*
D03*
X243520D02*
D03*
X245520D02*
D03*
X241520D02*
D03*
D24*
X199213Y261221D02*
D03*
Y258661D02*
D03*
Y256102D02*
D03*
X207874D02*
D03*
Y258661D02*
D03*
Y261221D02*
D03*
X119732Y239166D02*
D03*
Y236607D02*
D03*
Y234048D02*
D03*
X128394D02*
D03*
Y236607D02*
D03*
Y239166D02*
D03*
D25*
X216929Y269724D02*
D03*
Y278740D02*
D03*
Y287756D02*
D03*
D26*
X190945Y278740D02*
D03*
D27*
X370359Y143694D02*
D03*
X375648Y138405D02*
D03*
X370359Y155006D02*
D03*
X375648Y149716D02*
D03*
X384082Y155006D02*
D03*
X389371Y149716D02*
D03*
X370359Y166317D02*
D03*
X375648Y161028D02*
D03*
X384082Y166317D02*
D03*
X389371Y161028D02*
D03*
X370359Y177629D02*
D03*
X375648Y172339D02*
D03*
X384082Y177629D02*
D03*
X389371Y172339D02*
D03*
X370359Y188940D02*
D03*
X375648Y183651D02*
D03*
X384082Y188940D02*
D03*
X389371Y183651D02*
D03*
X370359Y200252D02*
D03*
X375648Y194963D02*
D03*
X384082Y200252D02*
D03*
X389371Y194963D02*
D03*
X370359Y211563D02*
D03*
X375648Y206274D02*
D03*
X384082Y211563D02*
D03*
X389371Y206274D02*
D03*
X370359Y222875D02*
D03*
X375648Y217586D02*
D03*
X384082Y222875D02*
D03*
X389371Y217586D02*
D03*
X370359Y234187D02*
D03*
X375648Y228897D02*
D03*
X384082Y234187D02*
D03*
X389371Y228897D02*
D03*
X384082Y245498D02*
D03*
X389371Y240209D02*
D03*
X370359Y256810D02*
D03*
X375648Y251520D02*
D03*
X370359Y268121D02*
D03*
X375648Y262832D02*
D03*
X384082Y256810D02*
D03*
X389371Y251520D02*
D03*
X384082Y268121D02*
D03*
X389371Y262832D02*
D03*
X370359Y245498D02*
D03*
X375648Y240209D02*
D03*
X411528Y268121D02*
D03*
X416818Y262832D02*
D03*
X411528Y256810D02*
D03*
X416818Y251520D02*
D03*
X411528Y245498D02*
D03*
X416818Y240209D02*
D03*
X411528Y234187D02*
D03*
X416818Y228897D02*
D03*
X411528Y222875D02*
D03*
X416818Y217586D02*
D03*
X411528Y211563D02*
D03*
X416818Y206274D02*
D03*
X411528Y200252D02*
D03*
X416818Y194963D02*
D03*
X411528Y188940D02*
D03*
X416818Y183651D02*
D03*
X411528Y177629D02*
D03*
X416818Y172339D02*
D03*
X411528Y166317D02*
D03*
X416818Y161028D02*
D03*
X411528Y155006D02*
D03*
X416818Y149716D02*
D03*
X411528Y143694D02*
D03*
X416818Y138405D02*
D03*
X397805Y268121D02*
D03*
X403095Y262832D02*
D03*
X397805Y256810D02*
D03*
X403095Y251520D02*
D03*
X397805Y245498D02*
D03*
X403095Y240209D02*
D03*
X397805Y234187D02*
D03*
X403095Y228897D02*
D03*
X397805Y222875D02*
D03*
X403095Y217586D02*
D03*
X397805Y211563D02*
D03*
X403095Y206274D02*
D03*
X397805Y200252D02*
D03*
X403095Y194963D02*
D03*
X397805Y188940D02*
D03*
X403095Y183651D02*
D03*
X397805Y177629D02*
D03*
X403095Y172339D02*
D03*
X397805Y166317D02*
D03*
X403095Y161028D02*
D03*
X397805Y155006D02*
D03*
X403095Y149716D02*
D03*
X397805Y143694D02*
D03*
X403095Y138405D02*
D03*
X384082Y143694D02*
D03*
X389371Y138405D02*
D03*
X356635Y268121D02*
D03*
X361925Y262832D02*
D03*
X356635Y256810D02*
D03*
X361925Y251520D02*
D03*
X356635Y245498D02*
D03*
X361925Y240209D02*
D03*
X356635Y234187D02*
D03*
X361925Y228897D02*
D03*
X356635Y222875D02*
D03*
X361925Y217586D02*
D03*
X356635Y211563D02*
D03*
X361925Y206274D02*
D03*
X356635Y200252D02*
D03*
X361925Y194963D02*
D03*
X356635Y188940D02*
D03*
X361925Y183651D02*
D03*
X356635Y177629D02*
D03*
X361925Y172339D02*
D03*
X356635Y166317D02*
D03*
X361925Y161028D02*
D03*
X356635Y155006D02*
D03*
X361925Y149716D02*
D03*
X356635Y143694D02*
D03*
X361925Y138405D02*
D03*
X342912Y268121D02*
D03*
X348201Y262832D02*
D03*
X342912Y256810D02*
D03*
X348201Y251520D02*
D03*
X342912Y245498D02*
D03*
X348201Y240209D02*
D03*
X342912Y234187D02*
D03*
X348201Y228897D02*
D03*
X342912Y222875D02*
D03*
X348201Y217586D02*
D03*
X342912Y211563D02*
D03*
X348201Y206274D02*
D03*
X342912Y200252D02*
D03*
X348201Y194963D02*
D03*
X342912Y188940D02*
D03*
X348201Y183651D02*
D03*
X342912Y177629D02*
D03*
X348201Y172339D02*
D03*
X342912Y166317D02*
D03*
X348201Y161028D02*
D03*
X342912Y155006D02*
D03*
X348201Y149716D02*
D03*
X342912Y143694D02*
D03*
X348201Y138405D02*
D03*
X329189Y268121D02*
D03*
X334478Y262832D02*
D03*
X329189Y256810D02*
D03*
X334478Y251520D02*
D03*
X329189Y245498D02*
D03*
X334478Y240209D02*
D03*
X329189Y234187D02*
D03*
X334478Y228897D02*
D03*
X329189Y222875D02*
D03*
X334478Y217586D02*
D03*
X329189Y211563D02*
D03*
X334478Y206274D02*
D03*
X329189Y200252D02*
D03*
X334478Y194963D02*
D03*
X329189Y188940D02*
D03*
X334478Y183651D02*
D03*
X329189Y177629D02*
D03*
X334478Y172339D02*
D03*
X329189Y166317D02*
D03*
X334478Y161028D02*
D03*
X329189Y155006D02*
D03*
X334478Y149716D02*
D03*
X329189Y143694D02*
D03*
X334478Y138405D02*
D03*
X315465Y268121D02*
D03*
X320755Y262832D02*
D03*
X315465Y256810D02*
D03*
X320755Y251520D02*
D03*
X315465Y245498D02*
D03*
X320755Y240209D02*
D03*
X315465Y234187D02*
D03*
X320755Y228897D02*
D03*
X315465Y222875D02*
D03*
X320755Y217586D02*
D03*
X315465Y211563D02*
D03*
X320755Y206274D02*
D03*
X315465Y188940D02*
D03*
X320755Y183651D02*
D03*
X315465Y177629D02*
D03*
X320755Y172339D02*
D03*
X315465Y143694D02*
D03*
X320755Y138405D02*
D03*
X315465Y166317D02*
D03*
X320755Y161028D02*
D03*
X315465Y155006D02*
D03*
X320755Y149716D02*
D03*
X315465Y200252D02*
D03*
X320755Y194963D02*
D03*
D28*
X306673Y279153D02*
D03*
X298799Y275374D02*
D03*
Y282933D02*
D03*
X291348Y265345D02*
D03*
X283474Y261565D02*
D03*
Y269124D02*
D03*
X306280Y220098D02*
D03*
X298406Y216319D02*
D03*
Y223878D02*
D03*
X291319Y235846D02*
D03*
X283445Y232067D02*
D03*
Y239626D02*
D03*
X291339Y206299D02*
D03*
X283465Y202520D02*
D03*
Y210079D02*
D03*
X306693Y190551D02*
D03*
X298819Y186772D02*
D03*
Y194331D02*
D03*
X306693Y161024D02*
D03*
X298819Y157244D02*
D03*
Y164803D02*
D03*
X291319Y147264D02*
D03*
X283445Y143484D02*
D03*
Y151043D02*
D03*
X306299Y131496D02*
D03*
X298425Y127717D02*
D03*
Y135276D02*
D03*
X291339Y117717D02*
D03*
X283465Y113937D02*
D03*
Y121496D02*
D03*
X306693Y249606D02*
D03*
X298819Y245827D02*
D03*
Y253386D02*
D03*
X291339Y176772D02*
D03*
X283465Y172992D02*
D03*
Y180551D02*
D03*
D29*
X208587Y154961D02*
D03*
Y160472D02*
D03*
Y165984D02*
D03*
X214098D02*
D03*
X219610D02*
D03*
Y160472D02*
D03*
Y154961D02*
D03*
X214098D02*
D03*
Y160472D02*
D03*
D30*
X173744Y130079D02*
D03*
Y135079D02*
D03*
Y140079D02*
D03*
Y145079D02*
D03*
Y150079D02*
D03*
Y155079D02*
D03*
Y160079D02*
D03*
Y165079D02*
D03*
Y170079D02*
D03*
Y175079D02*
D03*
Y180079D02*
D03*
Y185079D02*
D03*
Y190079D02*
D03*
Y195079D02*
D03*
X242642D02*
D03*
Y190079D02*
D03*
Y185079D02*
D03*
Y180079D02*
D03*
Y175079D02*
D03*
Y170079D02*
D03*
Y165079D02*
D03*
Y160079D02*
D03*
Y155079D02*
D03*
Y150079D02*
D03*
Y145079D02*
D03*
Y140079D02*
D03*
Y135079D02*
D03*
Y130079D02*
D03*
D31*
X180693Y200000D02*
D03*
X185693D02*
D03*
X190693D02*
D03*
X195693D02*
D03*
X200693D02*
D03*
X205693D02*
D03*
X210693D02*
D03*
X215693D02*
D03*
X220693D02*
D03*
X225693D02*
D03*
X230693D02*
D03*
X235693D02*
D03*
D32*
X181299Y250984D02*
D03*
X145472Y268701D02*
D03*
Y250984D02*
D03*
X181299Y268701D02*
D03*
Y280512D02*
D03*
X145472Y298228D02*
D03*
Y280512D02*
D03*
X181299Y298228D02*
D03*
M02*
