G04*
G04 #@! TF.GenerationSoftware,Altium Limited,Altium Designer,25.1.2 (22)*
G04*
G04 Layer_Color=8388736*
%FSLAX25Y25*%
%MOIN*%
G70*
G04*
G04 #@! TF.SameCoordinates,9731B79D-0BF3-49C4-8AD9-4CBC44B71680*
G04*
G04*
G04 #@! TF.FilePolarity,Negative*
G04*
G01*
G75*
%ADD33R,0.04343X0.04343*%
%ADD34R,0.06706X0.04343*%
%ADD35R,0.04343X0.06706*%
%ADD36R,0.06115X0.03359*%
%ADD37R,0.06509X0.02572*%
%ADD38R,0.05524X0.06509*%
%ADD39R,0.06312X0.04737*%
%ADD40R,0.04540X0.02572*%
%ADD41R,0.04737X0.06312*%
%ADD42R,0.06509X0.05524*%
%ADD43R,0.09068X0.06312*%
%ADD44R,0.06509X0.04540*%
%ADD45R,0.06509X0.13595*%
%ADD46R,0.01981X0.05524*%
%ADD47R,0.03162X0.05524*%
%ADD48R,0.02572X0.06509*%
G04:AMPARAMS|DCode=49|XSize=55.24mil|YSize=49.34mil|CornerRadius=0mil|HoleSize=0mil|Usage=FLASHONLY|Rotation=135.000|XOffset=0mil|YOffset=0mil|HoleType=Round|Shape=Rectangle|*
%AMROTATEDRECTD49*
4,1,4,0.03698,-0.00209,0.00209,-0.03698,-0.03698,0.00209,-0.00209,0.03698,0.03698,-0.00209,0.0*
%
%ADD49ROTATEDRECTD49*%

%ADD50C,0.05347*%
%ADD51R,0.05347X0.05347*%
%ADD52O,0.05131X0.09068*%
%ADD53O,0.05131X0.11036*%
%ADD54C,0.07591*%
%ADD55R,0.07591X0.07591*%
%ADD56R,0.07591X0.07591*%
%ADD57C,0.25800*%
D33*
X208587Y154961D02*
D03*
Y160472D02*
D03*
Y165984D02*
D03*
X214098D02*
D03*
X219610D02*
D03*
Y160472D02*
D03*
Y154961D02*
D03*
X214098D02*
D03*
Y160472D02*
D03*
D34*
X173744Y130079D02*
D03*
Y135079D02*
D03*
Y140079D02*
D03*
Y145079D02*
D03*
Y150079D02*
D03*
Y155079D02*
D03*
Y160079D02*
D03*
Y165079D02*
D03*
Y170079D02*
D03*
Y175079D02*
D03*
Y180079D02*
D03*
Y185079D02*
D03*
Y190079D02*
D03*
Y195079D02*
D03*
X242642D02*
D03*
Y190079D02*
D03*
Y185079D02*
D03*
Y180079D02*
D03*
Y175079D02*
D03*
Y170079D02*
D03*
Y165079D02*
D03*
Y160079D02*
D03*
Y155079D02*
D03*
Y150079D02*
D03*
Y145079D02*
D03*
Y140079D02*
D03*
Y135079D02*
D03*
Y130079D02*
D03*
D35*
X180693Y200000D02*
D03*
X185693D02*
D03*
X190693D02*
D03*
X195693D02*
D03*
X200693D02*
D03*
X205693D02*
D03*
X210693D02*
D03*
X215693D02*
D03*
X220693D02*
D03*
X225693D02*
D03*
X230693D02*
D03*
X235693D02*
D03*
D36*
X306299Y131496D02*
D03*
X298425Y127717D02*
D03*
Y135276D02*
D03*
X306693Y279134D02*
D03*
X298819Y275354D02*
D03*
Y282913D02*
D03*
X291339Y265354D02*
D03*
X283465Y261575D02*
D03*
Y269134D02*
D03*
X306693Y249606D02*
D03*
X298819Y245827D02*
D03*
Y253386D02*
D03*
X291339Y235827D02*
D03*
X283465Y232047D02*
D03*
Y239606D02*
D03*
X298425Y223858D02*
D03*
Y216299D02*
D03*
X306299Y220079D02*
D03*
X283465Y210079D02*
D03*
Y202520D02*
D03*
X291339Y206299D02*
D03*
X298819Y194331D02*
D03*
Y186772D02*
D03*
X306693Y190551D02*
D03*
X283465Y180551D02*
D03*
Y172992D02*
D03*
X291339Y176772D02*
D03*
X298031Y164803D02*
D03*
Y157244D02*
D03*
X305906Y161024D02*
D03*
X283465Y151024D02*
D03*
Y143465D02*
D03*
X291339Y147244D02*
D03*
X283465Y121496D02*
D03*
Y113937D02*
D03*
X291339Y117717D02*
D03*
D37*
X351673Y295571D02*
D03*
Y293012D02*
D03*
Y290453D02*
D03*
Y287894D02*
D03*
Y285335D02*
D03*
Y282776D02*
D03*
Y280217D02*
D03*
Y277658D02*
D03*
X328642D02*
D03*
Y280217D02*
D03*
Y282776D02*
D03*
Y285335D02*
D03*
Y287894D02*
D03*
Y290453D02*
D03*
Y293012D02*
D03*
Y295571D02*
D03*
D38*
X351772Y300787D02*
D03*
X345079D02*
D03*
X134449Y237795D02*
D03*
X141142D02*
D03*
X216732Y297244D02*
D03*
X210039D02*
D03*
X349016Y129921D02*
D03*
X355709D02*
D03*
D39*
X359449Y289173D02*
D03*
Y296654D02*
D03*
X134646Y286417D02*
D03*
Y278937D02*
D03*
X250394Y271850D02*
D03*
Y264370D02*
D03*
X238583Y271850D02*
D03*
Y264370D02*
D03*
X290945Y282874D02*
D03*
Y275394D02*
D03*
X275590Y269094D02*
D03*
Y261614D02*
D03*
X290945Y253346D02*
D03*
Y245866D02*
D03*
X275591Y239567D02*
D03*
Y232087D02*
D03*
X290551Y223819D02*
D03*
Y216339D02*
D03*
X275591Y210039D02*
D03*
Y202559D02*
D03*
X290945Y186811D02*
D03*
Y194291D02*
D03*
X275590Y173031D02*
D03*
Y180512D02*
D03*
X290945Y157283D02*
D03*
Y164764D02*
D03*
X275590Y143504D02*
D03*
Y150984D02*
D03*
X290945Y127756D02*
D03*
Y135236D02*
D03*
X275591Y113976D02*
D03*
Y121457D02*
D03*
D40*
X119291Y239173D02*
D03*
Y236614D02*
D03*
Y234055D02*
D03*
X127953D02*
D03*
Y236614D02*
D03*
Y239173D02*
D03*
X199213Y261221D02*
D03*
Y258661D02*
D03*
Y256102D02*
D03*
X207874D02*
D03*
Y258661D02*
D03*
Y261221D02*
D03*
D41*
X119882Y245669D02*
D03*
X127362D02*
D03*
X283661Y283858D02*
D03*
X276181D02*
D03*
X283661Y275984D02*
D03*
X276181D02*
D03*
X283661Y254331D02*
D03*
X276181D02*
D03*
X283661Y246457D02*
D03*
X276181D02*
D03*
X283661Y224803D02*
D03*
X276181D02*
D03*
X283661Y216929D02*
D03*
X276181D02*
D03*
X276181Y187401D02*
D03*
X283661D02*
D03*
X276181Y195276D02*
D03*
X283661D02*
D03*
X276181Y165748D02*
D03*
X283661D02*
D03*
X276181Y157874D02*
D03*
X283661D02*
D03*
X276181Y136221D02*
D03*
X283661D02*
D03*
X276181Y128347D02*
D03*
X283661D02*
D03*
D42*
X134646Y292717D02*
D03*
Y299410D02*
D03*
X215354Y262008D02*
D03*
Y255315D02*
D03*
X230315Y271850D02*
D03*
Y265158D02*
D03*
X314961Y123031D02*
D03*
Y129724D02*
D03*
X249213Y115551D02*
D03*
Y122244D02*
D03*
D43*
X181299Y250984D02*
D03*
X145472Y268701D02*
D03*
Y250984D02*
D03*
X181299Y268701D02*
D03*
Y280512D02*
D03*
X145472Y298228D02*
D03*
Y280512D02*
D03*
X181299Y298228D02*
D03*
D44*
X216929Y269724D02*
D03*
Y278740D02*
D03*
Y287756D02*
D03*
D45*
X190945Y278740D02*
D03*
D46*
X241520Y279626D02*
D03*
X245520D02*
D03*
X243520D02*
D03*
X249520D02*
D03*
X247520D02*
D03*
X239520D02*
D03*
X237520D02*
D03*
X235520D02*
D03*
D47*
X252020D02*
D03*
X233020D02*
D03*
X230020D02*
D03*
X255020D02*
D03*
D48*
X361122Y106595D02*
D03*
X363681D02*
D03*
X366240D02*
D03*
X368799D02*
D03*
X371358D02*
D03*
X373917D02*
D03*
X376476D02*
D03*
X379035D02*
D03*
Y129626D02*
D03*
X376476D02*
D03*
X373917D02*
D03*
X371358D02*
D03*
X368799D02*
D03*
X366240D02*
D03*
X363681D02*
D03*
X361122D02*
D03*
X320985Y106898D02*
D03*
X323544D02*
D03*
X326103D02*
D03*
X328662D02*
D03*
X331221D02*
D03*
X333780D02*
D03*
X336339D02*
D03*
X338898D02*
D03*
Y129929D02*
D03*
X336339D02*
D03*
X333780D02*
D03*
X331221D02*
D03*
X328662D02*
D03*
X326103D02*
D03*
X323544D02*
D03*
X320985D02*
D03*
D49*
X411528Y268786D02*
D03*
X416818Y263497D02*
D03*
X411528Y257369D02*
D03*
X416818Y252080D02*
D03*
X411528Y245952D02*
D03*
X416818Y240662D02*
D03*
X411528Y234535D02*
D03*
X416818Y229245D02*
D03*
X411528Y223117D02*
D03*
X416818Y217828D02*
D03*
X411528Y211700D02*
D03*
X416818Y206410D02*
D03*
X411528Y200283D02*
D03*
X416818Y194993D02*
D03*
X411528Y188865D02*
D03*
X416818Y183576D02*
D03*
X411528Y177448D02*
D03*
X416818Y172159D02*
D03*
X411528Y166424D02*
D03*
X416818Y161135D02*
D03*
X411528Y155007D02*
D03*
X416818Y149717D02*
D03*
X411528Y143590D02*
D03*
X416818Y138300D02*
D03*
X397749Y268786D02*
D03*
X403038Y263497D02*
D03*
X397749Y257405D02*
D03*
X403038Y252116D02*
D03*
X397749Y246023D02*
D03*
X403038Y240734D02*
D03*
X397749Y234642D02*
D03*
X403038Y229352D02*
D03*
X397749Y223260D02*
D03*
X403038Y217971D02*
D03*
X397749Y211879D02*
D03*
X403038Y206589D02*
D03*
X397749Y200497D02*
D03*
X403038Y195208D02*
D03*
X397749Y189116D02*
D03*
X403038Y183826D02*
D03*
X397749Y177734D02*
D03*
X403038Y172445D02*
D03*
X397749Y166353D02*
D03*
X403038Y161063D02*
D03*
X397749Y154971D02*
D03*
X403038Y149682D02*
D03*
X397749Y143590D02*
D03*
X403038Y138300D02*
D03*
X383969Y268786D02*
D03*
X389259Y263497D02*
D03*
X383969Y257405D02*
D03*
X389259Y252116D02*
D03*
X383969Y246023D02*
D03*
X389259Y240734D02*
D03*
X383969Y234642D02*
D03*
X389259Y229352D02*
D03*
X383969Y223260D02*
D03*
X389259Y217971D02*
D03*
X383969Y211879D02*
D03*
X389259Y206589D02*
D03*
X383969Y200497D02*
D03*
X389259Y195208D02*
D03*
X383969Y189116D02*
D03*
X389259Y183826D02*
D03*
X383969Y177734D02*
D03*
X389259Y172445D02*
D03*
X383969Y166353D02*
D03*
X389259Y161063D02*
D03*
X383969Y154971D02*
D03*
X389259Y149682D02*
D03*
X383969Y143590D02*
D03*
X389259Y138300D02*
D03*
X370190Y268786D02*
D03*
X375479Y263497D02*
D03*
X370190Y257405D02*
D03*
X375479Y252116D02*
D03*
X370190Y246023D02*
D03*
X375479Y240734D02*
D03*
X370190Y234642D02*
D03*
X375479Y229352D02*
D03*
X370190Y223260D02*
D03*
X375479Y217971D02*
D03*
X370190Y211879D02*
D03*
X375479Y206589D02*
D03*
X370190Y200497D02*
D03*
X375479Y195208D02*
D03*
X370190Y189116D02*
D03*
X375479Y183826D02*
D03*
X370190Y177734D02*
D03*
X375479Y172445D02*
D03*
X370190Y166353D02*
D03*
X375479Y161063D02*
D03*
X370190Y154971D02*
D03*
X375479Y149682D02*
D03*
X370190Y143590D02*
D03*
X375479Y138300D02*
D03*
X356410Y268786D02*
D03*
X361700Y263497D02*
D03*
X356410Y257405D02*
D03*
X361700Y252116D02*
D03*
X356410Y246023D02*
D03*
X361700Y240734D02*
D03*
X356410Y234642D02*
D03*
X361700Y229352D02*
D03*
X356410Y223260D02*
D03*
X361700Y217971D02*
D03*
X356410Y211879D02*
D03*
X361700Y206589D02*
D03*
X356410Y200497D02*
D03*
X361700Y195208D02*
D03*
X356410Y189116D02*
D03*
X361700Y183826D02*
D03*
X356410Y177734D02*
D03*
X361700Y172445D02*
D03*
X356410Y166353D02*
D03*
X361700Y161063D02*
D03*
X356410Y154971D02*
D03*
X361700Y149682D02*
D03*
X356410Y143590D02*
D03*
X361700Y138300D02*
D03*
X343025Y268786D02*
D03*
X348314Y263497D02*
D03*
X343025Y257405D02*
D03*
X348314Y252116D02*
D03*
X343025Y246023D02*
D03*
X348314Y240734D02*
D03*
X343025Y234642D02*
D03*
X348314Y229352D02*
D03*
X343025Y223260D02*
D03*
X348314Y217971D02*
D03*
X343025Y211879D02*
D03*
X348314Y206589D02*
D03*
X343025Y200497D02*
D03*
X348314Y195208D02*
D03*
X343025Y189116D02*
D03*
X348314Y183826D02*
D03*
X343025Y177734D02*
D03*
X348314Y172445D02*
D03*
X343025Y166353D02*
D03*
X348314Y161063D02*
D03*
X343025Y154971D02*
D03*
X348314Y149682D02*
D03*
X343025Y143590D02*
D03*
X348314Y138300D02*
D03*
X329245Y268786D02*
D03*
X334534Y263497D02*
D03*
X329245Y257405D02*
D03*
X334534Y252116D02*
D03*
X329245Y246023D02*
D03*
X334534Y240734D02*
D03*
X329245Y234642D02*
D03*
X334534Y229352D02*
D03*
X329245Y223260D02*
D03*
X334534Y217971D02*
D03*
X329245Y211879D02*
D03*
X334534Y206589D02*
D03*
X329245Y200497D02*
D03*
X334534Y195208D02*
D03*
X329245Y189116D02*
D03*
X334534Y183826D02*
D03*
X329245Y177734D02*
D03*
X334534Y172445D02*
D03*
X329245Y166353D02*
D03*
X334534Y161063D02*
D03*
X329245Y154971D02*
D03*
X334534Y149682D02*
D03*
X329245Y143590D02*
D03*
X334534Y138300D02*
D03*
X315465Y268786D02*
D03*
X320755Y263497D02*
D03*
X315465Y257763D02*
D03*
X320755Y252473D02*
D03*
X315465Y246345D02*
D03*
X320755Y241056D02*
D03*
X315465Y234928D02*
D03*
X320755Y229639D02*
D03*
X315465Y223511D02*
D03*
X320755Y218221D02*
D03*
X315465Y212093D02*
D03*
X320755Y206804D02*
D03*
X315465Y200676D02*
D03*
X320755Y195387D02*
D03*
X315465Y189259D02*
D03*
X320755Y183969D02*
D03*
X315465Y177841D02*
D03*
X320755Y172552D02*
D03*
X315465Y155007D02*
D03*
X320755Y149717D02*
D03*
X315465Y143590D02*
D03*
X320755Y138300D02*
D03*
X315465Y166424D02*
D03*
X320755Y161135D02*
D03*
D50*
X390315Y289213D02*
D03*
X380315Y299213D02*
D03*
D51*
X370315Y289213D02*
D03*
D52*
X259520Y281626D02*
D03*
X225520D02*
D03*
D53*
X259528Y295276D02*
D03*
X225512D02*
D03*
D54*
X136614Y140787D02*
D03*
Y150787D02*
D03*
Y160787D02*
D03*
X136614Y222362D02*
D03*
Y212362D02*
D03*
Y202362D02*
D03*
X152756Y233465D02*
D03*
X162756D02*
D03*
X172756D02*
D03*
X182756D02*
D03*
X192756D02*
D03*
X202756D02*
D03*
X232756D02*
D03*
X242756D02*
D03*
X252756D02*
D03*
X212756D02*
D03*
X222756D02*
D03*
X153150Y219843D02*
D03*
Y209842D02*
D03*
Y199843D02*
D03*
Y189842D02*
D03*
Y179842D02*
D03*
Y169843D02*
D03*
Y139842D02*
D03*
Y129842D02*
D03*
Y119843D02*
D03*
Y159843D02*
D03*
Y149843D02*
D03*
X262992Y219843D02*
D03*
Y209842D02*
D03*
Y199843D02*
D03*
Y189842D02*
D03*
Y179842D02*
D03*
Y169843D02*
D03*
Y139842D02*
D03*
Y129842D02*
D03*
Y119843D02*
D03*
Y159843D02*
D03*
Y149843D02*
D03*
X123622Y202362D02*
D03*
Y212362D02*
D03*
Y222362D02*
D03*
X108268Y209921D02*
D03*
Y219921D02*
D03*
Y179921D02*
D03*
Y189921D02*
D03*
Y199921D02*
D03*
Y229921D02*
D03*
Y239921D02*
D03*
D55*
X136614Y170787D02*
D03*
X136614Y192362D02*
D03*
X153150Y109843D02*
D03*
X262992D02*
D03*
X123622Y192362D02*
D03*
X108268Y169921D02*
D03*
D56*
X262756Y233465D02*
D03*
D57*
X409842Y288976D02*
D03*
Y116929D02*
D03*
X116929D02*
D03*
Y288976D02*
D03*
M02*
