G04*
G04 #@! TF.GenerationSoftware,Altium Limited,Altium Designer,25.1.2 (22)*
G04*
G04 Layer_Color=32896*
%FSLAX25Y25*%
%MOIN*%
G70*
G04*
G04 #@! TF.SameCoordinates,9731B79D-0BF3-49C4-8AD9-4CBC44B71680*
G04*
G04*
G04 #@! TF.FilePolarity,Positive*
G04*
G01*
G75*
%ADD12C,0.01181*%
%ADD15C,0.01000*%
%ADD58C,0.01968*%
%ADD68C,0.03150*%
%ADD69C,0.01024*%
G36*
X199927Y211823D02*
X199941Y211701D01*
X199913Y211619D01*
X199941Y211538D01*
X199968Y211103D01*
X199941Y203092D01*
X199859Y202956D01*
X199737Y202915D01*
X199492Y202888D01*
X199411Y202861D01*
X198813Y202834D01*
X198515Y202698D01*
X198243Y202617D01*
X198135Y202589D01*
X197931Y202549D01*
X197415Y202467D01*
X197306Y202440D01*
X197075Y202372D01*
X196614Y202345D01*
X196424Y202263D01*
X196315Y202236D01*
X196125Y202209D01*
X195935Y202128D01*
X195718Y202100D01*
X195636Y202073D01*
X195527Y202046D01*
X195351Y202006D01*
X195052Y201951D01*
X194821Y201883D01*
X194509Y201842D01*
X194210Y201788D01*
X194034Y201720D01*
X193857Y201680D01*
X193748Y201652D01*
X193531Y201625D01*
X193423Y201598D01*
X193287Y201544D01*
X193137Y201476D01*
X192676Y201449D01*
X192431Y201340D01*
X192241Y201313D01*
X191807Y201286D01*
X191725Y201259D01*
X191603Y201272D01*
X191467Y201245D01*
X191331Y201191D01*
X191236Y201123D01*
X191182Y201068D01*
X191046Y200987D01*
X190910Y200933D01*
X190408Y200946D01*
X190137Y200919D01*
X190001Y200892D01*
X189824Y200824D01*
X189566Y200729D01*
X189417Y200661D01*
X189281Y200580D01*
X189132Y200457D01*
X189064Y200390D01*
X189023Y200376D01*
X188996Y200322D01*
X188779Y200104D01*
X188751Y200050D01*
X188656Y199928D01*
X188602Y199901D01*
X188453Y199534D01*
X188426Y199425D01*
X188371Y199235D01*
X188330Y199086D01*
X188263Y198909D01*
X188235Y198719D01*
X188303Y198543D01*
X188371Y198448D01*
X188426Y198393D01*
X188453Y198285D01*
X188412Y198135D01*
X188398Y198122D01*
X188453Y198013D01*
Y197986D01*
X188480Y197877D01*
X188507Y197823D01*
X188616Y197633D01*
X188860Y197389D01*
X188887Y197334D01*
X189091Y197131D01*
X189254Y197103D01*
X189308Y197049D01*
X189444Y196995D01*
X189973Y196981D01*
X190503Y197022D01*
X190585Y197049D01*
X190693Y197076D01*
X190883Y197158D01*
X191019Y197212D01*
X191128Y197239D01*
X191359Y197280D01*
X191535Y197348D01*
X191644Y197375D01*
X191997Y197402D01*
X192105Y197429D01*
X192255Y197470D01*
X192363Y197497D01*
X192526Y197524D01*
X192635Y197552D01*
X192784Y197619D01*
X193029Y197647D01*
X193273Y197755D01*
X193450Y197742D01*
X193558Y197769D01*
X193803Y197796D01*
X194034Y197891D01*
X194224Y197918D01*
X194645Y197959D01*
X194876Y198054D01*
X195120Y198081D01*
X195202Y198108D01*
X195500Y198135D01*
X195636Y198190D01*
X195908Y198271D01*
X196179Y198298D01*
X196464Y198366D01*
X196695Y198434D01*
X196872Y198475D01*
X196980Y198502D01*
X197143Y198529D01*
X197279Y198556D01*
X197632Y198611D01*
X197768Y198665D01*
X197890Y198733D01*
X198121Y198719D01*
X198257Y198747D01*
X198406Y198787D01*
X198583Y198828D01*
X198759Y198923D01*
X199343Y198964D01*
X199615Y198991D01*
X199900Y199004D01*
X199941Y198964D01*
X199968Y198774D01*
X199981Y198217D01*
X199968Y197606D01*
X199995Y197524D01*
X199968Y196845D01*
X199954Y190558D01*
X199968Y190273D01*
X199900Y190124D01*
X199655Y190015D01*
X199275Y189988D01*
X199194Y189961D01*
X198813Y189934D01*
X198623Y189852D01*
X198243Y189798D01*
X197999Y189662D01*
X197863Y189608D01*
X197537Y189553D01*
X197347Y189499D01*
X197157Y189472D01*
X196899Y189431D01*
X196763Y189377D01*
X196654Y189350D01*
X196220Y189295D01*
X196111Y189268D01*
X195962Y189228D01*
X195568Y189160D01*
X195446Y189092D01*
X195392Y189065D01*
X195310Y188983D01*
X195202Y188956D01*
X194930Y188929D01*
X194631Y188902D01*
X194441Y188820D01*
X194074Y188779D01*
X193911Y188752D01*
X193762Y188712D01*
X193545Y188657D01*
X193355Y188630D01*
X193219Y188576D01*
X193042Y188535D01*
X192934Y188508D01*
X192784Y188467D01*
X192418Y188426D01*
X192255Y188399D01*
X192010Y188372D01*
X191834Y188304D01*
X191454Y188277D01*
X191372Y188250D01*
X191182Y188168D01*
X190965Y188114D01*
X190720Y188087D01*
X190585Y188033D01*
X190394Y188005D01*
X189838Y187992D01*
X189770Y188005D01*
X189688Y187978D01*
X189580Y187951D01*
X189227Y187978D01*
X189118Y187951D01*
X188738Y187978D01*
X188656Y188005D01*
X188385Y188033D01*
X188208Y188073D01*
X188059Y188114D01*
X187869Y188141D01*
X187760Y188168D01*
X187448Y188209D01*
X187299Y188250D01*
X187190Y188277D01*
X186986Y188318D01*
X186755Y188413D01*
X186579Y188481D01*
X186307Y188617D01*
X186267Y188657D01*
X185968Y188793D01*
X185832Y188874D01*
X185778Y188929D01*
X185723Y188956D01*
X185642Y189038D01*
X185588Y189065D01*
X184909Y189744D01*
X184854Y189771D01*
X184637Y190097D01*
X184433Y190300D01*
X184420Y190341D01*
X184365Y190368D01*
X184325Y190409D01*
X184298Y190463D01*
X184216Y190545D01*
X184107Y190735D01*
X184026Y190816D01*
X183999Y190871D01*
X183809Y191061D01*
X183782Y191115D01*
X183700Y191251D01*
X183632Y191427D01*
X183564Y191550D01*
X183523Y191699D01*
X183483Y191794D01*
X183293Y192093D01*
X183265Y192283D01*
X183225Y192459D01*
X183157Y192609D01*
X183116Y192758D01*
X183048Y192880D01*
X182994Y193070D01*
X182926Y193247D01*
X182885Y193369D01*
X182804Y193668D01*
X182749Y193994D01*
X182695Y194374D01*
X182654Y194686D01*
X182627Y194849D01*
X182587Y195216D01*
X182559Y195786D01*
X182505Y195922D01*
X182464Y196452D01*
X182437Y196832D01*
X182410Y197293D01*
X182356Y197619D01*
X182315Y197769D01*
X182328Y198760D01*
X182315Y198964D01*
X182396Y199154D01*
X182424Y199942D01*
X182451Y200023D01*
X182478Y200566D01*
X182505Y200648D01*
X182546Y201123D01*
X182654Y201856D01*
X182682Y202073D01*
X182736Y202291D01*
X182763Y202426D01*
X182790Y202589D01*
X182885Y202902D01*
X182926Y203133D01*
X182994Y203309D01*
X183075Y203635D01*
X183130Y203771D01*
X183170Y203947D01*
X183374Y204422D01*
X183401Y204531D01*
X183456Y204667D01*
X183510Y204721D01*
X183727Y205129D01*
X183809Y205210D01*
X184053Y205672D01*
X184162Y205835D01*
X184270Y206025D01*
X184325Y206079D01*
X184352Y206134D01*
X184406Y206188D01*
X184433Y206242D01*
X184542Y206351D01*
X184569Y206405D01*
X184691Y206554D01*
X184759Y206649D01*
X185085Y206975D01*
X185112Y207030D01*
X185167Y207084D01*
X185194Y207138D01*
X185289Y207206D01*
X185547Y207464D01*
X185574Y207519D01*
X185750Y207695D01*
X185805Y207722D01*
X185886Y207804D01*
X186022Y207885D01*
X186171Y208007D01*
X186267Y208102D01*
X186321Y208130D01*
X186402Y208211D01*
X186538Y208293D01*
X186728Y208401D01*
X187217Y208673D01*
X187407Y208781D01*
X187461Y208836D01*
X187638Y208876D01*
X187733Y208944D01*
X188005Y209107D01*
X188113Y209135D01*
X188303Y209216D01*
X188412Y209243D01*
X188575Y209270D01*
X188711Y209352D01*
X188996Y209420D01*
X189390Y209542D01*
X189580Y209623D01*
X189688Y209650D01*
X189824Y209732D01*
X189960Y209786D01*
X190313Y209813D01*
X190462Y209854D01*
X190598Y209881D01*
X190815Y209909D01*
X191073Y209949D01*
X191209Y210003D01*
X191603Y210071D01*
X191725Y210112D01*
X191888Y210139D01*
X192024Y210194D01*
X192133Y210221D01*
X192377Y210248D01*
X192431Y210302D01*
X192567Y210357D01*
X192676Y210384D01*
X192812Y210329D01*
X193137Y210357D01*
X193273Y210411D01*
X193463Y210438D01*
X193545Y210465D01*
X193653Y210492D01*
X193844Y210520D01*
X193925Y210547D01*
X194061Y210601D01*
X194251Y210710D01*
X194577Y210737D01*
X194713Y210791D01*
X195256Y210818D01*
X195609Y210981D01*
X196003Y211022D01*
X196111Y211049D01*
X196328Y211076D01*
X196437Y211103D01*
X196654Y211131D01*
X196709Y211185D01*
X196722Y211226D01*
X196831Y211253D01*
X197102Y211334D01*
X197564Y211361D01*
X197673Y211470D01*
X198270Y211497D01*
X198352Y211524D01*
X198460Y211551D01*
X198651Y211579D01*
X198949Y211715D01*
X199058Y211742D01*
X199194Y211796D01*
X199574Y211850D01*
X199927Y211823D01*
D02*
G37*
G36*
X178567Y209881D02*
X178594Y209691D01*
X178581Y209542D01*
X178608Y208184D01*
X178621Y207953D01*
X178499Y207722D01*
X178268Y207681D01*
X178119Y207614D01*
X177861Y207519D01*
X177413Y207315D01*
X177006Y207098D01*
X176815Y206989D01*
X176761Y206935D01*
X176503Y206840D01*
X176367Y206785D01*
X176313Y206758D01*
X176327Y206690D01*
X176843Y206717D01*
X177169Y206772D01*
X177712Y206745D01*
X177793Y206717D01*
X177983Y206690D01*
X178499Y206663D01*
X178567Y206595D01*
X178594Y206351D01*
X178567Y206296D01*
X178594Y206215D01*
Y206188D01*
Y206161D01*
X178567Y204586D01*
X178445Y204545D01*
X178173Y204518D01*
X178092Y204490D01*
X177820Y204463D01*
X177712Y204436D01*
X177508Y204395D01*
X177386Y204355D01*
X177277Y204328D01*
X176992Y204287D01*
X176856Y204260D01*
X176585Y204151D01*
X176435Y204083D01*
X176001Y204056D01*
X175919Y204029D01*
X175743Y203988D01*
X175580Y203961D01*
X175444Y203934D01*
X175199Y203906D01*
X175064Y203879D01*
X174955Y203852D01*
X174548Y203771D01*
X174317Y203703D01*
X174208Y203676D01*
X174073Y203703D01*
X174032Y203744D01*
X174005Y203934D01*
X173991Y204518D01*
X174032Y204966D01*
X174127Y205034D01*
X174263Y205088D01*
X174371Y205115D01*
X174670Y205142D01*
X174860Y205224D01*
X175050Y205251D01*
X175295Y205305D01*
X175485Y205387D01*
X175702Y205441D01*
X175960Y205563D01*
X175946Y205604D01*
X175240Y205631D01*
X175159Y205658D01*
X174751Y205631D01*
X174670Y205658D01*
X174317Y205685D01*
X174073Y205713D01*
X174005Y205780D01*
X173991Y206772D01*
X174018Y206880D01*
X174154Y207016D01*
X174290Y207070D01*
X174344Y207098D01*
X174806Y207315D01*
X174982Y207383D01*
X175702Y207722D01*
X175756Y207749D01*
X176001Y207885D01*
X176082Y207967D01*
X176204Y208034D01*
X176055Y208048D01*
X175974Y208021D01*
X175865Y207994D01*
X175716Y207953D01*
X175607Y207926D01*
X175430Y207858D01*
X175322Y207831D01*
X175118Y207790D01*
X174887Y207722D01*
X174779Y207695D01*
X174521Y207654D01*
X174385Y207600D01*
X174276Y207573D01*
X174140Y207519D01*
X174045Y207505D01*
X174005Y207627D01*
X173991Y208863D01*
X174032Y208958D01*
X174073Y208999D01*
X174263Y209026D01*
X174317Y209080D01*
X174534Y209135D01*
X174819Y209202D01*
X174928Y209229D01*
X175417Y209311D01*
X175525Y209338D01*
X175675Y209379D01*
X176041Y209420D01*
X176177Y209474D01*
X176286Y209501D01*
X176503Y209528D01*
X176666Y209555D01*
X176843Y209650D01*
X177236Y209718D01*
X177345Y209746D01*
X177481Y209773D01*
X177698Y209800D01*
X177997Y209854D01*
X178323Y209909D01*
X178499Y209922D01*
X178567Y209881D01*
D02*
G37*
G36*
X236498Y195044D02*
X236475Y195021D01*
X216194Y195011D01*
X216157Y195021D01*
X216143Y195035D01*
X216133Y210498D01*
X220074Y210503D01*
X220079Y200667D01*
X220093Y200653D01*
X224348Y200644D01*
X224385Y200653D01*
X224404Y200681D01*
X224399Y208202D01*
Y208212D01*
Y209655D01*
X224409Y209693D01*
X224423Y209707D01*
X228293Y209716D01*
X228345Y209702D01*
X228354Y200667D01*
X228378Y200644D01*
X232543Y200649D01*
X232558Y200681D01*
X232553Y210498D01*
X236494Y210503D01*
X236498Y195044D01*
D02*
G37*
G36*
X174181Y200987D02*
X174263Y200960D01*
X174901Y200919D01*
X175118Y200892D01*
X175281Y200865D01*
X175512Y200797D01*
X175783Y200770D01*
X175865Y200743D01*
X176191Y200688D01*
X176300Y200661D01*
X176571Y200634D01*
X176748Y200593D01*
X176883Y200566D01*
X177101Y200539D01*
X177399Y200512D01*
X177644Y200485D01*
X177752Y200457D01*
X177888Y200430D01*
X178133Y200403D01*
X178458Y200376D01*
X178554Y200335D01*
X178594Y200294D01*
X178567Y198393D01*
X178526Y198326D01*
X178268Y198231D01*
X178065Y198135D01*
X177875Y198027D01*
X177617Y197850D01*
X177386Y197728D01*
X177359Y197701D01*
X177331D01*
X176870Y197457D01*
X176653Y197321D01*
X176408Y197185D01*
X176055Y196995D01*
X176001Y196941D01*
X175946Y196913D01*
X175729Y196777D01*
X175593Y196750D01*
X175512Y196669D01*
X175267Y196533D01*
X175077Y196397D01*
X175023Y196370D01*
X174860Y196262D01*
X174724Y196207D01*
X174534Y196126D01*
X174385Y196085D01*
X174344Y196044D01*
X174208Y195963D01*
X174073Y195908D01*
X174018Y195936D01*
X173991Y196968D01*
X173977Y197389D01*
X174073Y197538D01*
X174127Y197565D01*
X174181Y197619D01*
X174453Y197782D01*
X174751Y197945D01*
X174792Y197986D01*
X174819Y198095D01*
X174792Y198529D01*
X174806Y199195D01*
X174724Y199276D01*
X174534Y199303D01*
X174263Y199330D01*
X174045Y199357D01*
X174005Y199398D01*
X173991Y200960D01*
X174045Y201014D01*
X174181Y200987D01*
D02*
G37*
G36*
X178554Y194170D02*
X178594Y194021D01*
X178608Y190423D01*
X178554Y190314D01*
X178418Y190260D01*
X178282Y190232D01*
X178200Y190205D01*
X178092Y190178D01*
X177793Y190097D01*
X177603Y190042D01*
X177494Y190015D01*
X177128Y189974D01*
X176965Y189947D01*
X176748Y189893D01*
X176422Y189839D01*
X176286Y189812D01*
X176069Y189757D01*
X175933Y189730D01*
X175770Y189703D01*
X175661Y189676D01*
X175539Y189608D01*
X175430Y189581D01*
X175199Y189540D01*
X175050Y189499D01*
X174942Y189472D01*
X174575Y189431D01*
X174412Y189404D01*
X174181Y189336D01*
X174045Y189363D01*
X174005Y189404D01*
X173991Y190830D01*
X174005Y192826D01*
X173977Y192908D01*
X174005Y193206D01*
X174045Y193247D01*
X174344Y193274D01*
X174480Y193328D01*
X174656Y193369D01*
X174833Y193437D01*
X175023Y193491D01*
X175118Y193423D01*
X175145Y193315D01*
X175172Y191604D01*
Y191577D01*
X175145Y191495D01*
X175172Y191305D01*
X175213Y191264D01*
X175322Y191237D01*
X175430Y191264D01*
X175620Y191292D01*
X175811Y191400D01*
X175838Y193084D01*
X175974Y193138D01*
X176164Y193193D01*
X176435Y193220D01*
X176639Y193261D01*
X176815Y193274D01*
X176856Y193233D01*
X176883Y192392D01*
X176870Y191916D01*
X176883Y191848D01*
X176856Y191767D01*
X176883Y191685D01*
X176910Y191631D01*
X176951Y191590D01*
X177277Y191645D01*
X177386Y191672D01*
X177427Y191713D01*
X177454Y191821D01*
X177440Y193872D01*
X177481Y193967D01*
X177522Y194007D01*
X177698Y194048D01*
X177848Y194089D01*
X177956Y194116D01*
X178241Y194184D01*
X178418Y194252D01*
X178554Y194170D01*
D02*
G37*
G36*
X178526Y187544D02*
X178567Y187503D01*
X178594Y187068D01*
Y183891D01*
Y183864D01*
X178567Y182940D01*
X178499Y182845D01*
X178133Y182805D01*
X177915Y182778D01*
X177780Y182723D01*
X177630Y182683D01*
X177522Y182710D01*
X177454Y182832D01*
X177427Y182940D01*
X177386Y184122D01*
X177331Y184203D01*
X177223Y184176D01*
X177087Y184122D01*
X176978Y184095D01*
X176829Y184054D01*
X176612Y184000D01*
X176449Y183973D01*
X176300Y183932D01*
X176164Y183877D01*
X175906Y183837D01*
X175593Y183742D01*
X175091Y183674D01*
X174982Y183647D01*
X174616Y183606D01*
X174344Y183579D01*
X174235Y183552D01*
X174045Y183579D01*
X174005Y183619D01*
X174032Y185113D01*
X174073Y185154D01*
X174276Y185195D01*
X174398Y185235D01*
X174507Y185263D01*
X174819Y185330D01*
X174928Y185358D01*
X175064Y185385D01*
X175308Y185412D01*
X175525Y185439D01*
X175634Y185466D01*
X175756Y185507D01*
X175974Y185534D01*
X176055Y185561D01*
X176164Y185588D01*
X176354Y185670D01*
X176571Y185697D01*
X176707Y185751D01*
X176965Y185792D01*
X177182Y185819D01*
X177359Y185806D01*
X177399Y185846D01*
X177454Y186064D01*
X177427Y186145D01*
X177454Y187286D01*
X177549Y187408D01*
X178024Y187476D01*
X178282Y187517D01*
X178418Y187571D01*
X178526Y187544D01*
D02*
G37*
G36*
X236489Y191830D02*
X236498Y186122D01*
Y186113D01*
Y176413D01*
X236484Y176371D01*
X216157Y176361D01*
X216143Y176375D01*
X216133Y191792D01*
X216147Y191834D01*
X220027Y191844D01*
X220069Y191830D01*
X220079Y182045D01*
X220088Y182008D01*
X220102Y181994D01*
X224366Y181984D01*
X224390Y182008D01*
X224399Y190996D01*
X224409Y191033D01*
X224423Y191047D01*
X228331Y191056D01*
X228345Y191042D01*
X228354Y182045D01*
X228368Y181994D01*
X232529Y181984D01*
X232543Y181999D01*
X232553Y191792D01*
X232567Y191834D01*
X236475Y191844D01*
X236489Y191830D01*
D02*
G37*
G36*
X177467Y176002D02*
X177522Y175947D01*
X177657Y175893D01*
X177793Y175812D01*
X177875Y175730D01*
X177929Y175703D01*
X177997Y175608D01*
X178296Y175309D01*
X178323Y175255D01*
X178431Y175146D01*
X178458Y175092D01*
X178567Y174929D01*
X178594Y174793D01*
X178649Y174657D01*
X178676Y174549D01*
X178703Y174277D01*
X178676Y173164D01*
X178649Y173082D01*
X178621Y172974D01*
X178567Y172838D01*
X178526Y172688D01*
X178486Y172648D01*
X178458Y172593D01*
X178323Y172403D01*
X178296Y172349D01*
X178160Y172213D01*
X178133Y172159D01*
X177929Y171955D01*
X177875Y171928D01*
X177739Y171792D01*
X177684Y171765D01*
X177630Y171711D01*
X177576Y171684D01*
X177522Y171629D01*
X177223Y171493D01*
X177046Y171425D01*
X176910Y171371D01*
X176693Y171290D01*
X176544Y171249D01*
X176435Y171222D01*
X175838Y171195D01*
X175240Y171222D01*
X175050Y171303D01*
X174846Y171344D01*
X174751Y171385D01*
X174670Y171466D01*
X174616Y171493D01*
X174507Y171602D01*
X174453Y171629D01*
X174398Y171684D01*
X174344Y171711D01*
X174276Y171779D01*
X174249Y171833D01*
X174195Y171887D01*
X174168Y171941D01*
X174059Y172186D01*
X174005Y172403D01*
X173977Y172593D01*
X174005Y173462D01*
X174073Y173557D01*
X174412Y173734D01*
X174385Y173788D01*
X174154Y173883D01*
X174059Y173924D01*
X174005Y174060D01*
X173991Y174209D01*
X174005Y175010D01*
X173977Y175092D01*
X173950Y175282D01*
X173977Y175363D01*
X174045Y175486D01*
X174398Y175513D01*
X174480Y175540D01*
X174616Y175594D01*
X174806Y175621D01*
X174942Y175649D01*
X175023Y175676D01*
X175213Y175757D01*
X175403Y175784D01*
X175566Y175812D01*
X175648Y175839D01*
X175756Y175866D01*
X176109Y175893D01*
X176164D01*
X176245Y175920D01*
X176503Y175961D01*
X176680Y175975D01*
X176761Y175947D01*
X176815Y175975D01*
X176951Y176029D01*
X177196Y176002D01*
X177277Y176029D01*
X177467Y176002D01*
D02*
G37*
G36*
X193192Y186430D02*
X193273Y186403D01*
X193491Y186349D01*
X193681Y186322D01*
X193789Y186294D01*
X193925Y186240D01*
X194346Y186145D01*
X194495Y186077D01*
X194685Y186050D01*
X194971Y185982D01*
X195120Y185942D01*
X195351Y185901D01*
X195459Y185874D01*
X195582Y185833D01*
X195690Y185806D01*
X195908Y185778D01*
X196043Y185724D01*
X196152Y185697D01*
X196342Y185670D01*
X196519Y185602D01*
X196559Y185561D01*
X197075Y185480D01*
X197211Y185425D01*
X197320Y185398D01*
X197618Y185371D01*
X197809Y185290D01*
X198135Y185263D01*
X198216Y185235D01*
X198352Y185181D01*
X198460Y185154D01*
X198610Y185113D01*
X198759Y185045D01*
X198949Y185018D01*
X199194Y184964D01*
X199329Y184909D01*
X199438Y184882D01*
X199696Y184842D01*
X199832Y184814D01*
X199968Y184733D01*
X199995Y184624D01*
X199968Y184271D01*
X199941Y180605D01*
X199873Y180510D01*
X199696Y180442D01*
X199492Y180320D01*
X199438Y180293D01*
X199058Y180021D01*
X199004Y179994D01*
X198922Y179912D01*
X198868Y179885D01*
X198678Y179777D01*
X197917Y179233D01*
X197863Y179206D01*
X197809Y179152D01*
X197754Y179125D01*
X197700Y179070D01*
X197456Y178935D01*
X197184Y178745D01*
X197130Y178717D01*
X196559Y178310D01*
X196505Y178283D01*
X196125Y178011D01*
X196071Y177984D01*
X195880Y177848D01*
X195826Y177821D01*
X195772Y177767D01*
X195582Y177658D01*
X195527Y177604D01*
X195473Y177577D01*
X194930Y177197D01*
X194876Y177169D01*
X194685Y177034D01*
X194631Y177006D01*
X194441Y176898D01*
X194183Y176721D01*
X194142Y176681D01*
X193952Y176572D01*
X193572Y176300D01*
X193110Y176056D01*
X193056Y176002D01*
X192893Y175920D01*
X192825Y175961D01*
X192839Y176273D01*
X192825Y177780D01*
X192852Y177862D01*
X192879Y179519D01*
X192974Y179641D01*
X193382Y179858D01*
X193463Y179939D01*
X193518Y179967D01*
X193681Y180075D01*
X193762Y180103D01*
X193803Y180143D01*
X193830Y180333D01*
X193803Y180768D01*
X193830Y181284D01*
X193803Y181773D01*
Y181800D01*
X193816Y182601D01*
X193762Y182683D01*
X193653Y182710D01*
X193477Y182750D01*
X193246Y182818D01*
X193029Y182873D01*
X192879Y182995D01*
X192825Y183131D01*
X192852Y186254D01*
X192879Y186417D01*
X192920Y186458D01*
X193192Y186430D01*
D02*
G37*
G36*
X194889Y176314D02*
X194943Y176124D01*
X194971Y176015D01*
X194998Y175581D01*
X195025Y171996D01*
X195066Y171955D01*
X195283Y171982D01*
X195527Y172091D01*
X195799Y172118D01*
X195908Y172145D01*
X196057Y172186D01*
X196166Y172213D01*
X196654Y172294D01*
X196831Y172362D01*
X197184Y172390D01*
X197320Y172444D01*
X197537Y172498D01*
X197700Y172525D01*
X197890Y172607D01*
X198175Y172648D01*
X198284Y172675D01*
X198406Y172715D01*
X198433D01*
X198813Y172770D01*
X198922Y172797D01*
X199262Y172865D01*
X199479Y172892D01*
X199642Y172919D01*
X199750Y172946D01*
X199873Y172987D01*
X199927Y172960D01*
X199968Y172919D01*
X199995Y172729D01*
X199968Y171724D01*
X199995Y170719D01*
X199981Y170054D01*
X199995Y170013D01*
X199968Y169932D01*
X199995Y169307D01*
X199873Y169158D01*
X199628Y169131D01*
X199547Y169104D01*
X199262Y169063D01*
X199126Y169036D01*
X198610Y168954D01*
X198392Y168900D01*
X198230Y168873D01*
X198080Y168832D01*
X197890Y168778D01*
X197673Y168723D01*
X197523Y168683D01*
X197388Y168655D01*
X197225Y168628D01*
X197089Y168601D01*
X196654Y168492D01*
X196492Y168465D01*
X196193Y168411D01*
X196084Y168384D01*
X195948Y168357D01*
X195785Y168330D01*
X195677Y168302D01*
X195527Y168262D01*
X195310Y168207D01*
X194998Y168139D01*
X194848Y168099D01*
X194740Y168071D01*
X194387Y168044D01*
X194197Y167990D01*
X194047Y167949D01*
X193884Y167922D01*
X193558Y167841D01*
X193395Y167814D01*
X193287Y167786D01*
X193110Y167718D01*
X193002Y167691D01*
X192866Y167718D01*
X192825Y167759D01*
X192852Y173001D01*
X192866Y174888D01*
X192839Y175404D01*
X192825Y175635D01*
X192893Y175757D01*
X193029Y175839D01*
X193165Y175893D01*
X193300Y175920D01*
X193491Y176002D01*
X193694Y176042D01*
X193803Y176069D01*
X193939Y176124D01*
X194264Y176205D01*
X194414Y176246D01*
X194604Y176273D01*
X194713Y176300D01*
X194821Y176355D01*
X194889Y176314D01*
D02*
G37*
G36*
X178567Y168927D02*
X178594Y168004D01*
X178567Y167596D01*
X178526Y167555D01*
X178404Y167542D01*
X178391Y167555D01*
X178309Y167528D01*
X178119Y167501D01*
X177888Y167460D01*
X177671Y167433D01*
X177345Y167379D01*
X177209Y167325D01*
X176938Y167270D01*
X176720Y167216D01*
X176449Y167162D01*
X176367Y167107D01*
X176394Y167053D01*
X176435Y167012D01*
X176490Y166985D01*
X176897Y166795D01*
X177291Y166727D01*
X177440Y166659D01*
X177752Y166591D01*
X177983Y166524D01*
X178268Y166456D01*
X178472Y166360D01*
X178513Y166320D01*
X178594Y166048D01*
X178567Y164609D01*
X178526Y164568D01*
X178418Y164541D01*
X178200Y164514D01*
X178119Y164487D01*
X177848Y164459D01*
X177739Y164432D01*
X177413Y164405D01*
X177331Y164378D01*
X177223Y164351D01*
X177033Y164324D01*
X176924Y164296D01*
X176734Y164269D01*
X176300Y164161D01*
X176123Y164120D01*
X175946Y164052D01*
X175661Y164011D01*
X175553Y163984D01*
X175403Y163943D01*
X174955Y163875D01*
X174738Y163821D01*
X174521Y163794D01*
X174168Y163740D01*
X174127Y163726D01*
X174005Y163794D01*
X173991Y163916D01*
X174005Y164690D01*
X173977Y164772D01*
X174018Y165030D01*
X174073Y165084D01*
X174344Y165111D01*
X174425Y165138D01*
X174534Y165166D01*
X174724Y165193D01*
X174833Y165220D01*
X174996Y165247D01*
X175132Y165301D01*
X175240Y165329D01*
X175512Y165356D01*
X175729Y165410D01*
X175811Y165437D01*
X176069Y165478D01*
X176177Y165505D01*
X176204Y165559D01*
X176164Y165600D01*
X176001Y165627D01*
X175756Y165736D01*
X175566Y165817D01*
X175132Y165926D01*
X174996Y165980D01*
X174819Y166048D01*
X174425Y166225D01*
X174235Y166333D01*
X174100Y166388D01*
X174045Y166415D01*
X174005Y166456D01*
X173977Y166646D01*
X174005Y166727D01*
X173991Y167990D01*
X174018Y168044D01*
X174127Y168071D01*
X174235D01*
X174249Y168085D01*
X174480Y168153D01*
X174711Y168194D01*
X174928Y168221D01*
X175037Y168248D01*
X175267Y168316D01*
X175566Y168343D01*
X175811Y168452D01*
X176096Y168492D01*
X176232Y168520D01*
X176381Y168560D01*
X176490Y168588D01*
X176802Y168628D01*
X177033Y168696D01*
X177304Y168723D01*
X177494Y168750D01*
X177766Y168832D01*
X178078Y168873D01*
X178187Y168900D01*
X178364Y168968D01*
X178486Y168981D01*
X178567Y168927D01*
D02*
G37*
G36*
X236489Y173179D02*
X236498Y157753D01*
X236489Y157716D01*
X236475Y157702D01*
X216166Y157692D01*
X216143Y157716D01*
X216133Y173133D01*
X216147Y173184D01*
X220027Y173194D01*
X220069Y173179D01*
X220079Y163461D01*
Y163451D01*
Y163386D01*
X220088Y163348D01*
X220102Y163334D01*
X224310Y163325D01*
X224376Y163334D01*
X224390Y163348D01*
X224399Y172383D01*
X224413Y172397D01*
X228303Y172406D01*
X228345Y172392D01*
X228354Y163386D01*
X228363Y163348D01*
X228378Y163334D01*
X232501Y163325D01*
X232543Y163339D01*
X232553Y173133D01*
X232567Y173184D01*
X236475Y173194D01*
X236489Y173179D01*
D02*
G37*
G36*
X178567Y161839D02*
X178594Y161730D01*
X178567Y160236D01*
X178499Y160169D01*
X178119Y160141D01*
X178038Y160114D01*
X177834Y160073D01*
X177684Y160033D01*
X177454Y159992D01*
X177223Y159924D01*
X177033Y159870D01*
X176815Y159843D01*
X176625Y159761D01*
X176313Y159720D01*
X176204Y159693D01*
X176109Y159680D01*
X176096Y159666D01*
X175987Y159639D01*
X175553Y159585D01*
X175444Y159557D01*
X175213Y159490D01*
X175037Y159449D01*
X174887Y159408D01*
X174670Y159354D01*
X174453Y159327D01*
X174263Y159245D01*
X174073Y159218D01*
X174018Y159245D01*
X173991Y160386D01*
X173964Y160549D01*
X173950Y160671D01*
X173977Y160752D01*
X174005Y160861D01*
X174127Y160902D01*
X174317Y160929D01*
X174507Y161010D01*
X174616Y161038D01*
X174887Y161119D01*
X174996Y161146D01*
X175186Y161173D01*
X175240Y161228D01*
X175430Y161255D01*
X175851Y161323D01*
X176001Y161363D01*
X176109Y161391D01*
X176978Y161499D01*
X177114Y161554D01*
X177223Y161581D01*
X177277Y161635D01*
X177467Y161689D01*
X177684Y161716D01*
X177766Y161744D01*
X177875Y161771D01*
X178296Y161839D01*
X178431Y161866D01*
X178472Y161879D01*
X178567Y161839D01*
D02*
G37*
G36*
X199927Y168805D02*
X199954Y168696D01*
X199941Y168628D01*
X199968Y168547D01*
X199954Y168370D01*
X199981Y166415D01*
X199995Y166075D01*
X199968Y165994D01*
X199981Y165138D01*
X199913Y165043D01*
X199791Y165003D01*
X199479Y164962D01*
X199262Y164935D01*
X198936Y164853D01*
X198800Y164826D01*
X198474Y164772D01*
X198325Y164731D01*
X198216Y164704D01*
X198067Y164663D01*
X197890Y164595D01*
X197659Y164555D01*
X197551Y164527D01*
X197401Y164487D01*
X197293Y164459D01*
X196980Y164419D01*
X196437Y164310D01*
X196274Y164283D01*
X196166Y164256D01*
X195853Y164161D01*
X195514Y164039D01*
X195419Y163971D01*
X195351Y163903D01*
X195324Y163848D01*
X195242Y163658D01*
X195188Y163441D01*
X195215Y163169D01*
X195242Y163088D01*
X195269Y162898D01*
X195310Y162749D01*
X195351Y162708D01*
X195378Y162653D01*
X195419Y162613D01*
X195541Y162599D01*
X195785Y162626D01*
X195921Y162681D01*
X196030Y162708D01*
X196274Y162735D01*
X196437Y162762D01*
X196668Y162830D01*
X197184Y162911D01*
X197320Y162966D01*
X197646Y162993D01*
X197727Y163020D01*
X197917Y163074D01*
X198094Y163115D01*
X198365Y163142D01*
X198488Y163183D01*
X198596Y163210D01*
X198732Y163265D01*
X198881Y163305D01*
X198949Y163319D01*
X198976D01*
X199058Y163346D01*
X199343Y163387D01*
X199601Y163427D01*
X199737Y163482D01*
X199846Y163509D01*
X199927Y163482D01*
X199968Y163359D01*
X199981Y160902D01*
X199968Y160671D01*
X199995Y160589D01*
X199968Y159720D01*
X199927Y159652D01*
X199818Y159625D01*
X199438Y159598D01*
X199357Y159571D01*
X199085Y159544D01*
X199004Y159517D01*
X198895Y159490D01*
X198705Y159435D01*
X198433Y159354D01*
X198121Y159286D01*
X198012Y159259D01*
X197877Y159231D01*
X197578Y159177D01*
X197361Y159123D01*
X197225Y159096D01*
X197008Y159069D01*
X196844Y159041D01*
X196627Y158987D01*
X196492Y158960D01*
X196166Y158906D01*
X196030Y158879D01*
X195867Y158851D01*
X195541Y158824D01*
X195147Y158811D01*
X195011Y158865D01*
X194876Y158892D01*
X194821Y158946D01*
X194672Y158987D01*
X194536Y159041D01*
X194237Y159177D01*
X194088Y159272D01*
X194034Y159327D01*
X193979Y159354D01*
X193898Y159435D01*
X193844Y159462D01*
X193558Y159748D01*
X193531Y159802D01*
X193395Y159938D01*
X193368Y159992D01*
X193178Y160291D01*
X193070Y160562D01*
X193029Y160712D01*
X192934Y161024D01*
X192893Y161200D01*
X192866Y161309D01*
X192798Y161540D01*
X192744Y161730D01*
X192717Y161839D01*
X192662Y162165D01*
X192635Y162599D01*
X192662Y164147D01*
X192689Y164229D01*
X192744Y164446D01*
X192812Y164758D01*
X192907Y165070D01*
X192934Y165179D01*
X192988Y165315D01*
X193110Y165654D01*
X193178Y165831D01*
X193368Y166184D01*
X193504Y166374D01*
X193762Y166714D01*
X193830Y166781D01*
X193857Y166836D01*
X193898Y166876D01*
X193952Y166904D01*
X194061Y167012D01*
X194115Y167040D01*
X194224Y167148D01*
X194360Y167230D01*
X194414Y167284D01*
X194468Y167311D01*
X194550Y167393D01*
X195120Y167664D01*
X195554Y167800D01*
X195663Y167827D01*
X195853Y167909D01*
X195962Y167936D01*
X196138Y167976D01*
X196315Y168044D01*
X196424Y168071D01*
X196627Y168112D01*
X196858Y168180D01*
X196967Y168207D01*
X197238Y168234D01*
X197320Y168262D01*
X197537Y168316D01*
X197727Y168343D01*
X197877Y168384D01*
X198107Y168452D01*
X198379Y168479D01*
X198515Y168533D01*
X198691Y168574D01*
X199017Y168628D01*
X199153Y168655D01*
X199370Y168710D01*
X199628Y168750D01*
X199818Y168832D01*
X199927Y168805D01*
D02*
G37*
G36*
X176978Y157072D02*
X177277Y156991D01*
X177535Y156896D01*
X177684Y156855D01*
X177793Y156828D01*
X177848Y156774D01*
X177902Y156747D01*
X178051Y156624D01*
X178092Y156584D01*
X178146Y156556D01*
X178241Y156461D01*
X178268Y156407D01*
X178404Y156217D01*
X178431Y156163D01*
X178540Y156000D01*
X178581Y155823D01*
X178635Y155552D01*
X178662Y155443D01*
X178689Y155280D01*
X178703Y154370D01*
X178676Y154289D01*
X178635Y154085D01*
X178567Y153936D01*
X178540Y153827D01*
X178431Y153664D01*
X178350Y153528D01*
X178241Y153338D01*
X178187Y153284D01*
X178160Y153230D01*
X178024Y153094D01*
X177997Y153040D01*
X177902Y152944D01*
X177848Y152917D01*
X177793Y152863D01*
X177603Y152754D01*
X177549Y152700D01*
X177440Y152673D01*
X177386Y152619D01*
X176978Y152428D01*
X176829Y152388D01*
X176720Y152360D01*
X176585Y152333D01*
X176422Y152306D01*
X176150Y152279D01*
X175458Y152266D01*
X175376Y152293D01*
X175186Y152320D01*
X175009Y152388D01*
X174996Y152401D01*
X174887Y152428D01*
X174453Y152754D01*
X174303Y152904D01*
X174276Y152958D01*
X174195Y153040D01*
X174032Y153393D01*
X173977Y153773D01*
X173950Y154207D01*
X173923Y154397D01*
X173950Y155076D01*
X173977Y155158D01*
X174005Y155266D01*
X174059Y155402D01*
X174330Y155918D01*
X174385Y155973D01*
X174412Y156027D01*
X174589Y156203D01*
X174643Y156230D01*
X174724Y156312D01*
X174779Y156339D01*
X174887Y156448D01*
X175023Y156529D01*
X175892Y156964D01*
X175987Y156896D01*
X176041Y156706D01*
X176069Y156353D01*
X176041Y155402D01*
X175919Y155226D01*
X175811Y155199D01*
X175458Y155008D01*
X175227Y154778D01*
X175172Y154642D01*
X175213Y154302D01*
X175322Y154139D01*
X175363Y154099D01*
X175390Y154044D01*
X175512Y154004D01*
X176300Y154031D01*
X176381Y154058D01*
X176490Y154085D01*
X176680Y154112D01*
X176788Y154139D01*
X176924Y154194D01*
X177223Y154357D01*
X177277Y154411D01*
X177331Y154438D01*
X177372Y154479D01*
X177399Y154533D01*
X177481Y154723D01*
X177454Y155049D01*
X177331Y155199D01*
X177141Y155280D01*
X176965Y155321D01*
X176856Y155348D01*
X176761Y155361D01*
X176680Y155334D01*
X176490Y155443D01*
X176462Y156095D01*
X176449Y156923D01*
X176476Y157004D01*
X176503Y157059D01*
X176544Y157100D01*
X176978Y157072D01*
D02*
G37*
G36*
X236489Y154717D02*
X236498Y149169D01*
X236484Y149117D01*
X220608Y149108D01*
X216166D01*
X216143Y149131D01*
X216133Y154670D01*
X216147Y154721D01*
X236475Y154731D01*
X236489Y154717D01*
D02*
G37*
G36*
X199927Y159191D02*
X199968Y159069D01*
X199981Y155660D01*
X199968Y155239D01*
X199995Y155158D01*
X199968Y154642D01*
X199900Y154520D01*
X199655Y154465D01*
X199465Y154384D01*
X199058Y154166D01*
X198841Y154031D01*
X198542Y153895D01*
X198026Y153623D01*
X197836Y153515D01*
X197483Y153352D01*
X197347Y153270D01*
X197157Y153162D01*
X196858Y152999D01*
X196804Y152944D01*
X196749Y152917D01*
X196736Y152876D01*
X197102Y152836D01*
X197211Y152809D01*
X197673Y152781D01*
X197754Y152754D01*
X197944Y152727D01*
X198678Y152700D01*
X198759Y152673D01*
X199248Y152646D01*
X199329Y152619D01*
X199520Y152591D01*
X199927Y152564D01*
X199968Y152442D01*
X199981Y149441D01*
X199954Y148246D01*
X199900Y148192D01*
X199601Y148165D01*
X199520Y148137D01*
X199234Y148097D01*
X199126Y148070D01*
X198976Y148029D01*
X198868Y148002D01*
X198691Y147961D01*
X198542Y147920D01*
X198433Y147893D01*
X198243Y147866D01*
X198039Y147825D01*
X197917Y147784D01*
X197809Y147757D01*
X197605Y147716D01*
X197469Y147662D01*
X197361Y147635D01*
X197035Y147581D01*
X196899Y147554D01*
X196790Y147526D01*
X196641Y147486D01*
X196532Y147459D01*
X196342Y147404D01*
X196166Y147363D01*
X196030Y147336D01*
X195921Y147309D01*
X195514Y147228D01*
X195351Y147201D01*
X194943Y147119D01*
X194618Y147065D01*
X194346Y147010D01*
X194237Y146983D01*
X194102Y146956D01*
X193939Y146929D01*
X193830Y146902D01*
X193681Y146861D01*
X193504Y146820D01*
X193355Y146780D01*
X193246Y146752D01*
X192988Y146657D01*
X192866Y146644D01*
X192798Y146712D01*
X192825Y147146D01*
X192852Y149672D01*
X192893Y149713D01*
X193029Y149767D01*
X193219Y149794D01*
X193327Y149821D01*
X193613Y149862D01*
X193748Y149889D01*
X193857Y149916D01*
X194074Y149943D01*
X194373Y149971D01*
X194536Y149998D01*
X194685Y150039D01*
X194794Y150066D01*
X195134Y150106D01*
X195242Y150134D01*
X195364Y150174D01*
X195514Y150215D01*
X195731Y150269D01*
X195880Y150310D01*
X196206Y150364D01*
X196220Y150405D01*
X196179Y150446D01*
X195867Y150487D01*
X195650Y150514D01*
X195378Y150568D01*
X195161Y150595D01*
X194794Y150636D01*
X194685Y150663D01*
X194346Y150704D01*
X193857Y150731D01*
X193504Y150758D01*
X193070Y150812D01*
X192934Y150840D01*
X192852Y150921D01*
X192839Y151206D01*
X192852Y152985D01*
X192825Y153067D01*
X192852Y153338D01*
X192907Y153393D01*
X192920Y153433D01*
X193327Y153650D01*
X193518Y153759D01*
X193599Y153841D01*
X193748Y153881D01*
X193952Y154004D01*
X194034Y154031D01*
X194088Y154085D01*
X194264Y154153D01*
X194305Y154194D01*
X194550Y154330D01*
X195229Y154683D01*
X195473Y154818D01*
X195527Y154873D01*
X195704Y154940D01*
X195745Y154981D01*
X195935Y155090D01*
X196179Y155226D01*
X196356Y155348D01*
X196342Y155389D01*
X196152Y155361D01*
X196016Y155307D01*
X195840Y155239D01*
X195758Y155212D01*
X195745Y155199D01*
X195582Y155171D01*
X195500Y155144D01*
X195202Y155063D01*
X194767Y154954D01*
X194495Y154927D01*
X194237Y154886D01*
X194102Y154859D01*
X193518Y154683D01*
X193300Y154628D01*
X193124Y154560D01*
X192988Y154506D01*
X192920Y154492D01*
X192825Y154560D01*
X192839Y156556D01*
X192825Y156624D01*
X192852Y156706D01*
X192812Y157425D01*
X192798Y157521D01*
X192866Y157616D01*
X193219Y157751D01*
X193531Y157792D01*
X193640Y157819D01*
X193871Y157887D01*
X194088Y157941D01*
X194278Y157996D01*
X194387Y158023D01*
X194645Y158064D01*
X194876Y158132D01*
X195066Y158159D01*
X195174Y158186D01*
X195351Y158227D01*
X195459Y158254D01*
X195595Y158281D01*
X195840Y158308D01*
X196003Y158335D01*
X196233Y158403D01*
X196424Y158430D01*
X196532Y158458D01*
X196682Y158498D01*
X196790Y158525D01*
X197089Y158580D01*
X197238Y158648D01*
X197564Y158702D01*
X197741Y158770D01*
X197890Y158811D01*
X198270Y158838D01*
X198460Y158919D01*
X198718Y158960D01*
X198854Y158987D01*
X199031Y159055D01*
X199343Y159096D01*
X199452Y159123D01*
X199682Y159191D01*
X199791Y159218D01*
X199927Y159191D01*
D02*
G37*
G36*
X198162Y147377D02*
X198392Y147336D01*
X198501Y147309D01*
X198637Y147255D01*
X198678Y147214D01*
X198786Y147187D01*
X198936Y147065D01*
X199031Y146997D01*
X199221Y146807D01*
X199275Y146780D01*
X199425Y146630D01*
X199452Y146576D01*
X199560Y146467D01*
X199669Y146223D01*
X199682Y146182D01*
X199696Y146168D01*
X199764Y145992D01*
X199818Y145856D01*
X199886Y145680D01*
X199941Y145544D01*
X199968Y145191D01*
X199981Y138714D01*
X199900Y138632D01*
X199791Y138605D01*
X199655Y138551D01*
X199547Y138523D01*
X199357Y138496D01*
X199248Y138469D01*
X199017Y138428D01*
X198881Y138401D01*
X198556Y138347D01*
X198338Y138320D01*
X198202Y138293D01*
X198094Y138266D01*
X197958Y138238D01*
X197795Y138211D01*
X197659Y138184D01*
X197510Y138143D01*
X197401Y138116D01*
X197211Y138089D01*
X196994Y138035D01*
X196804Y137980D01*
X196627Y137940D01*
X196519Y137912D01*
X196396Y137872D01*
X196206Y137845D01*
X196030Y137804D01*
X195880Y137763D01*
X195772Y137736D01*
X195297Y137668D01*
X194971Y137586D01*
X194821Y137546D01*
X194713Y137519D01*
X194563Y137478D01*
X194346Y137424D01*
X194183Y137396D01*
X194074Y137369D01*
X193939Y137342D01*
X193287Y137233D01*
X193151Y137206D01*
X192866Y137193D01*
X192798Y137261D01*
X192784Y137383D01*
X192812Y137980D01*
X192839Y139094D01*
X192879Y140873D01*
X192974Y140968D01*
X193178Y141008D01*
X193341Y141036D01*
X193450Y141063D01*
X193694Y141090D01*
X193911Y141117D01*
X194183Y141171D01*
X194292Y141199D01*
X194563Y141253D01*
X194781Y141307D01*
X194916Y141334D01*
X194930Y141348D01*
X195011Y141321D01*
X195134Y141389D01*
X195161Y141497D01*
X195147Y142190D01*
X195161Y142285D01*
X195134Y142366D01*
X195161Y142665D01*
X195093Y142760D01*
X194645Y142719D01*
X194495Y142679D01*
X194074Y142638D01*
X193911Y142611D01*
X193776Y142584D01*
X193409Y142543D01*
X192907Y142529D01*
X192825Y142611D01*
X192852Y142801D01*
X192839Y146236D01*
X192866Y146291D01*
X192974Y146318D01*
X193762Y146345D01*
X193898Y146399D01*
X194428Y146440D01*
X194672Y146467D01*
X194808Y146494D01*
X195025Y146521D01*
X195337Y146535D01*
X195419Y146508D01*
X195554Y146535D01*
X195609Y146562D01*
X195731Y146440D01*
X195718Y146182D01*
X195745Y146128D01*
X195853Y146101D01*
X196016Y146128D01*
X196098Y146155D01*
X196233Y146236D01*
X196301Y146359D01*
X196328Y146467D01*
X196451Y146617D01*
X196546Y146712D01*
X196573Y146766D01*
X196722Y146915D01*
X196777Y146942D01*
X196844Y147010D01*
X196872Y147065D01*
X197170Y147201D01*
X197483Y147295D01*
X197700Y147350D01*
X197958Y147391D01*
X198080Y147404D01*
X198162Y147377D01*
D02*
G37*
G36*
X174208Y149658D02*
X174344Y149604D01*
X174656Y149563D01*
X174955Y149536D01*
X175172Y149509D01*
X175335Y149482D01*
X175688Y149427D01*
X176014Y149400D01*
X176503Y149319D01*
X176829Y149292D01*
X177128Y149265D01*
X177236Y149237D01*
X177508Y149183D01*
X177807Y149129D01*
X177943Y149074D01*
X178051Y149047D01*
X178268Y149020D01*
X178404Y148993D01*
X178540Y148939D01*
X178594Y148803D01*
X178621Y148640D01*
X178594Y148558D01*
X178581Y147920D01*
X178608Y147404D01*
X178621Y147201D01*
X178526Y147078D01*
X178336Y146970D01*
X178065Y146780D01*
X178010Y146752D01*
X177603Y146535D01*
X177549Y146481D01*
X177141Y146264D01*
X177087Y146209D01*
X176910Y146141D01*
X176870Y146101D01*
X176815Y146073D01*
X176666Y146005D01*
X176653Y145992D01*
X176408Y145856D01*
X176191Y145720D01*
X175702Y145449D01*
X175444Y145272D01*
X175159Y145123D01*
X174860Y144960D01*
X174724Y144878D01*
X174670Y144851D01*
X174480Y144715D01*
X174425Y144688D01*
X174168Y144512D01*
X174073Y144498D01*
X174005Y144566D01*
X173991Y145693D01*
X174005Y145870D01*
X173977Y145951D01*
X174018Y146209D01*
X174045Y146264D01*
X174235Y146291D01*
X174344Y146318D01*
X174602Y146494D01*
X174670Y146562D01*
X174724Y146589D01*
X174765Y146630D01*
X174819Y146847D01*
X174792Y147119D01*
X174765Y147907D01*
X174724Y147947D01*
X174616Y147975D01*
X174235Y148029D01*
X174127Y148056D01*
X174073Y148083D01*
X174005Y148151D01*
X173991Y148273D01*
X174005Y149129D01*
X173977Y149210D01*
X174005Y149645D01*
X174045Y149685D01*
X174208Y149658D01*
D02*
G37*
G36*
X177766Y142624D02*
X178010Y142489D01*
X178268Y142231D01*
X178296Y142176D01*
X178486Y141905D01*
X178540Y141769D01*
X178567Y141660D01*
X178594Y140818D01*
X178608Y138632D01*
X178554Y138496D01*
X178418Y138415D01*
X178160Y138374D01*
X177888Y138347D01*
X177725Y138320D01*
X177508Y138266D01*
X177345Y138238D01*
X177128Y138211D01*
X177019Y138184D01*
X176870Y138143D01*
X176761Y138116D01*
X176571Y138089D01*
X176354Y138035D01*
X176218Y137980D01*
X175865Y137872D01*
X175756Y137845D01*
X175335Y137804D01*
X175227Y137777D01*
X175091Y137750D01*
X174928Y137722D01*
X174711Y137695D01*
X174385Y137641D01*
X174276Y137614D01*
X174100Y137600D01*
X174032Y137641D01*
X174005Y137750D01*
X173991Y138849D01*
X174018Y139067D01*
X174059Y139162D01*
X174100Y139202D01*
X174113Y139216D01*
X174235Y139257D01*
X174548Y139325D01*
X174697Y139365D01*
X174969Y139393D01*
X175159Y139420D01*
X175417Y139460D01*
X175580Y139488D01*
X175675Y139528D01*
X175716Y139650D01*
X175688Y139732D01*
X175716Y140167D01*
X175675Y140425D01*
X175620Y140479D01*
X175349Y140452D01*
X174697Y140370D01*
X174425Y140343D01*
X174235Y140316D01*
X174045Y140343D01*
X174005Y140384D01*
X173991Y141918D01*
X174045Y142000D01*
X174480Y142027D01*
X174507Y142054D01*
X174589Y142027D01*
X174670Y142054D01*
X175132Y142108D01*
X175240Y142136D01*
X175743Y142149D01*
X175824Y142095D01*
X175851Y142041D01*
X175892Y142000D01*
X176001Y141973D01*
X176191Y142000D01*
X176340Y142149D01*
X176422Y142285D01*
X176625Y142489D01*
X176883Y142584D01*
X177006Y142624D01*
X177196Y142651D01*
X177766Y142624D01*
D02*
G37*
G36*
X197537Y137546D02*
X197782Y137437D01*
X198080Y137301D01*
X198216Y137247D01*
X198270Y137193D01*
X198406Y137138D01*
X198569Y137030D01*
X198623Y137003D01*
X198705Y136921D01*
X198841Y136840D01*
X198895Y136785D01*
X198949Y136758D01*
X199017Y136690D01*
X199044Y136636D01*
X199153Y136527D01*
X199234Y136392D01*
X199370Y136256D01*
X199425Y136120D01*
X199452Y136011D01*
X199560Y135821D01*
X199669Y135658D01*
X199710Y135509D01*
X199778Y135387D01*
X199832Y135251D01*
X199941Y134898D01*
X200008Y134613D01*
X200049Y134491D01*
X200076Y134137D01*
X200103Y133947D01*
X200131Y132481D01*
X200103Y132399D01*
X200076Y131557D01*
X200049Y131476D01*
X200022Y131286D01*
X199995Y131204D01*
X199968Y131096D01*
X199927Y130919D01*
X199900Y130811D01*
X199805Y130580D01*
X199778Y130417D01*
X199615Y130118D01*
X199479Y129874D01*
X199370Y129683D01*
X199316Y129629D01*
X199207Y129439D01*
X199017Y129195D01*
X198936Y129113D01*
X198908Y129059D01*
X198786Y128910D01*
X198433Y128557D01*
X198379Y128529D01*
X198298Y128448D01*
X198216Y128421D01*
X198162Y128366D01*
X198107Y128339D01*
X197836Y128176D01*
X197483Y127986D01*
X197347Y127932D01*
X197238Y127905D01*
X197062Y127864D01*
X196953Y127837D01*
X196817Y127810D01*
X196573Y127782D01*
X196274Y127755D01*
X195840Y127701D01*
X195636Y127687D01*
X195554Y127715D01*
X195310Y127742D01*
X195229Y127769D01*
X195038Y127796D01*
X194821Y127823D01*
X194577Y127959D01*
X194142Y128285D01*
X193993Y128407D01*
X193898Y128475D01*
X193830Y128543D01*
X193803Y128597D01*
X193667Y128733D01*
X193640Y128787D01*
X193314Y129249D01*
X193233Y129385D01*
X193070Y129765D01*
X193042Y129874D01*
X192934Y130227D01*
X192893Y130403D01*
X192839Y130621D01*
X192798Y130770D01*
X192744Y130960D01*
X192717Y131069D01*
X192689Y131259D01*
X192662Y131367D01*
X192635Y131965D01*
X192662Y133133D01*
X192689Y133214D01*
X192730Y133391D01*
X192757Y133526D01*
X192812Y133852D01*
X192879Y134083D01*
X192907Y134192D01*
X193002Y134450D01*
X193029Y134558D01*
X193110Y134776D01*
X193178Y134952D01*
X193314Y135251D01*
X193477Y135550D01*
X193531Y135604D01*
X193640Y135794D01*
X193898Y136134D01*
X194210Y136446D01*
X194237Y136500D01*
X194387Y136650D01*
X194441Y136677D01*
X194794Y136921D01*
X194848Y136948D01*
X195690Y137383D01*
X195772Y137410D01*
X195962Y137437D01*
X196071Y137464D01*
X196274Y137505D01*
X196383Y137532D01*
X196519Y137559D01*
X196559Y137573D01*
X196587D01*
X197537Y137546D01*
D02*
G37*
G36*
X199913Y128380D02*
X199941Y128271D01*
X199968Y127755D01*
X199981Y120328D01*
X199927Y120219D01*
X199791Y120165D01*
X199560Y120124D01*
X199316Y120097D01*
X199153Y120070D01*
X198936Y120015D01*
X198325Y119947D01*
X198135Y119866D01*
X197741Y119798D01*
X197591Y119730D01*
X197293Y119649D01*
X197184Y119622D01*
X196994Y119594D01*
X196736Y119554D01*
X196587Y119513D01*
X196383Y119472D01*
X195894Y119391D01*
X195785Y119363D01*
X195650Y119336D01*
X195351Y119228D01*
X195052Y119173D01*
X194821Y119106D01*
X194713Y119078D01*
X194373Y119038D01*
X194264Y119010D01*
X194115Y118970D01*
X193803Y118929D01*
X193477Y118875D01*
X193368Y118848D01*
X193233Y118820D01*
X193124Y118793D01*
X193002Y118725D01*
X192879Y118820D01*
X192852Y119010D01*
X192866Y120219D01*
X192852Y120232D01*
X192879Y120287D01*
X192852Y120341D01*
X192879Y120368D01*
X192852Y120423D01*
X192879Y120504D01*
X192866Y122283D01*
X192893Y122419D01*
X192934Y122514D01*
X192974Y122555D01*
X193083Y122582D01*
X193273Y122609D01*
X193382Y122636D01*
X193409D01*
X193491Y122663D01*
X193599Y122690D01*
X193911Y122731D01*
X194129Y122785D01*
X194292Y122813D01*
X194563Y122840D01*
X194862Y122894D01*
X195011Y122935D01*
X195120Y122962D01*
X195215Y123057D01*
X195174Y123369D01*
X195161Y126207D01*
X195256Y126302D01*
X195364Y126330D01*
X195785Y126370D01*
X195921Y126397D01*
X196152Y126465D01*
X196546Y126506D01*
X196682Y126533D01*
X196831Y126574D01*
X196967Y126601D01*
X197062Y126533D01*
X197089Y126425D01*
X197102Y123695D01*
X197089Y123546D01*
X197184Y123424D01*
X197279Y123410D01*
X197388Y123437D01*
X197537Y123478D01*
X197836Y123505D01*
X197877Y123627D01*
X197849Y123709D01*
X197836Y127416D01*
X197863Y127796D01*
X197904Y127891D01*
X197944Y127932D01*
X198107Y127959D01*
X198162Y128013D01*
X198379Y128068D01*
X198637Y128108D01*
X198786Y128149D01*
X199058Y128176D01*
X199302Y128231D01*
X199384Y128258D01*
X199492Y128285D01*
X199696Y128326D01*
X199846Y128393D01*
X199913Y128380D01*
D02*
G37*
G36*
X189892Y186281D02*
X189851Y185751D01*
X189797Y185616D01*
X189743Y185398D01*
X189661Y184991D01*
X189648Y184842D01*
Y184814D01*
X189620Y184733D01*
X189593Y184543D01*
X189553Y184366D01*
X189525Y184258D01*
X189485Y183891D01*
X189457Y183782D01*
X189417Y183579D01*
X189376Y183457D01*
X189295Y183131D01*
X189254Y182873D01*
X189227Y182737D01*
X189186Y182587D01*
X189145Y182357D01*
X189091Y182031D01*
X189009Y181623D01*
X188982Y181460D01*
X188955Y181189D01*
X188914Y180958D01*
X188833Y180768D01*
X188792Y180537D01*
X188765Y180428D01*
X188738Y180293D01*
X188683Y179939D01*
X188656Y179804D01*
X188602Y179587D01*
X188575Y179315D01*
X188548Y179152D01*
X188521Y179043D01*
X188493Y178908D01*
X188466Y178690D01*
X188439Y178527D01*
X188412Y178419D01*
X188371Y178269D01*
X188344Y177998D01*
X188317Y177889D01*
X188263Y177699D01*
X188235Y177590D01*
X188140Y177142D01*
X188100Y176993D01*
X188073Y176884D01*
X188045Y176613D01*
X188018Y176504D01*
X187964Y176178D01*
X187923Y175920D01*
X187896Y175784D01*
X187869Y175676D01*
X187814Y175323D01*
X187787Y175214D01*
X187719Y175038D01*
X187692Y174847D01*
X187652Y174644D01*
X187624Y174535D01*
X187584Y174386D01*
X187557Y174277D01*
X187516Y173910D01*
X187461Y173693D01*
X187434Y173530D01*
X187407Y173313D01*
X187380Y173204D01*
X187339Y173055D01*
X187312Y172729D01*
X187285Y172648D01*
X187203Y172376D01*
X187163Y172118D01*
X187136Y171982D01*
X187095Y171833D01*
X187068Y171724D01*
X186986Y171181D01*
X186959Y171100D01*
X186932Y170991D01*
X186905Y170719D01*
X186837Y170407D01*
X186783Y170081D01*
X186728Y169864D01*
X186687Y169714D01*
X186660Y169524D01*
X186633Y169416D01*
X186592Y169266D01*
X186565Y169158D01*
X186538Y169022D01*
X186457Y168506D01*
X186416Y168357D01*
X186375Y168044D01*
X186348Y167909D01*
X186307Y167759D01*
X186280Y167569D01*
X186239Y167393D01*
X186212Y167284D01*
X186171Y167134D01*
X186117Y166917D01*
X186076Y166714D01*
X186022Y166496D01*
X185995Y166333D01*
X185968Y166116D01*
X185941Y165980D01*
X185913Y165872D01*
X185886Y165709D01*
X185859Y165437D01*
X185805Y165166D01*
X185750Y164813D01*
X185683Y164582D01*
X185628Y164364D01*
X185588Y164134D01*
X185493Y163821D01*
X185452Y163400D01*
X185425Y163265D01*
X185397Y163156D01*
X185370Y163020D01*
X185343Y162776D01*
X185289Y162423D01*
X185262Y162287D01*
X185234Y162178D01*
X185167Y162002D01*
X185126Y161825D01*
X185099Y161662D01*
X185072Y161526D01*
X184990Y161200D01*
X184949Y160834D01*
X184881Y160549D01*
X184854Y160413D01*
X184813Y160046D01*
X184786Y159856D01*
X184759Y159476D01*
X184786Y159395D01*
X184827Y159136D01*
X184854Y159028D01*
X185017Y158621D01*
X185085Y158471D01*
X185112Y158362D01*
X185329Y157901D01*
X185384Y157684D01*
X185438Y157629D01*
X185520Y157412D01*
X185574Y157358D01*
X185615Y157154D01*
X185737Y156923D01*
X185900Y156570D01*
X185981Y156380D01*
X186009Y156271D01*
X186036Y156217D01*
X186389Y155484D01*
X186429Y155280D01*
X186592Y155008D01*
X186660Y154832D01*
X186715Y154696D01*
X186878Y154343D01*
X186918Y154166D01*
X187081Y153841D01*
X187149Y153718D01*
X187176Y153610D01*
X187312Y153311D01*
X187421Y153067D01*
X187557Y152714D01*
X187665Y152469D01*
X187719Y152333D01*
X187964Y151817D01*
X187991Y151682D01*
X188208Y151220D01*
X188398Y150812D01*
X188453Y150622D01*
X188480Y150514D01*
X188534Y150378D01*
X188670Y150134D01*
X188724Y149998D01*
X188751Y149889D01*
X188779Y149835D01*
X188996Y149373D01*
X189023Y149265D01*
X189240Y148803D01*
X189295Y148667D01*
X189512Y148205D01*
X189553Y148029D01*
X189607Y147893D01*
X189756Y147608D01*
X189824Y147431D01*
X189865Y147391D01*
X189933Y147214D01*
X190028Y146983D01*
X190096Y146807D01*
X190164Y146657D01*
X190408Y146141D01*
X190381Y145924D01*
X190218Y145625D01*
X190109Y145435D01*
X189973Y145191D01*
X189919Y145136D01*
X189783Y144892D01*
X189661Y144743D01*
X189525Y144525D01*
X189430Y144376D01*
X189213Y143996D01*
X189132Y143914D01*
X189104Y143860D01*
X188996Y143697D01*
X188914Y143561D01*
X188806Y143371D01*
X188751Y143317D01*
X188670Y143181D01*
X188480Y142910D01*
X188398Y142774D01*
X188344Y142719D01*
X188181Y142421D01*
X187937Y142068D01*
X187801Y141823D01*
X187692Y141660D01*
X187665Y141606D01*
X187421Y141253D01*
X187312Y141063D01*
X187081Y140723D01*
X187040Y140682D01*
X186878Y140384D01*
X186742Y140194D01*
X186715Y140139D01*
X186538Y139881D01*
X186470Y139786D01*
X186362Y139623D01*
X186226Y139379D01*
X186090Y139189D01*
X186063Y139135D01*
X185981Y139053D01*
X185845Y138809D01*
X185710Y138619D01*
X185683Y138564D01*
X185574Y138374D01*
X185329Y138021D01*
X185194Y137777D01*
X185085Y137614D01*
X185058Y137559D01*
X184976Y137478D01*
X184868Y137288D01*
X184678Y136989D01*
X184651Y136935D01*
X184542Y136772D01*
X184515Y136717D01*
X184433Y136636D01*
X184406Y136582D01*
X184270Y136392D01*
X184162Y136202D01*
X184053Y136038D01*
X184026Y135984D01*
X183890Y135794D01*
X183863Y135740D01*
X183809Y135686D01*
X183700Y135495D01*
X183591Y135332D01*
X183564Y135278D01*
X183456Y135088D01*
X183401Y135034D01*
X183374Y134979D01*
X183238Y134789D01*
X183103Y134545D01*
X182967Y134355D01*
X182940Y134300D01*
X182885Y134246D01*
X182858Y134192D01*
X182722Y134002D01*
X182695Y133947D01*
X182641Y133893D01*
X182424Y133513D01*
X182288Y133323D01*
X182261Y133268D01*
X182152Y133078D01*
X181962Y132780D01*
X181935Y132725D01*
X181690Y132372D01*
X181663Y132318D01*
X181554Y132155D01*
X181527Y132101D01*
X181392Y131911D01*
X181364Y131856D01*
X181283Y131775D01*
X181120Y131476D01*
X181066Y131422D01*
X180957Y131231D01*
X180821Y131041D01*
X180631Y130743D01*
X180468Y130444D01*
X180360Y130281D01*
X180332Y130227D01*
X180251Y130145D01*
X180169Y130009D01*
X180061Y129819D01*
X180007Y129765D01*
X179979Y129711D01*
X179871Y129548D01*
X179789Y129412D01*
X179599Y129140D01*
X179463Y128896D01*
X179355Y128733D01*
X179328Y128679D01*
X179192Y128489D01*
X179165Y128434D01*
X179110Y128380D01*
X179002Y128190D01*
X178947Y128136D01*
X178784Y127837D01*
X178540Y127484D01*
X178513Y127429D01*
X178404Y127267D01*
X178377Y127212D01*
X178323Y127158D01*
X178214Y126968D01*
X178078Y126778D01*
X178051Y126723D01*
X177915Y126533D01*
X177807Y126343D01*
X177630Y126085D01*
X177508Y125881D01*
X177481Y125827D01*
X177372Y125664D01*
X177345Y125610D01*
X177291Y125556D01*
X177182Y125365D01*
X177128Y125311D01*
X177019Y125121D01*
X176883Y124904D01*
X176802Y124768D01*
X176666Y124578D01*
X176612Y124523D01*
X176585Y124469D01*
X176476Y124306D01*
X176367Y124116D01*
X176232Y123899D01*
X176204Y123845D01*
X176069Y123654D01*
X176041Y123600D01*
X175987Y123546D01*
X175770Y123166D01*
X175716Y123111D01*
X175634Y122976D01*
X175525Y122813D01*
X175498Y122758D01*
X175390Y122568D01*
X175281Y122405D01*
X175254Y122351D01*
X175145Y122161D01*
X175091Y122106D01*
X175064Y122052D01*
X174928Y121862D01*
X174792Y121618D01*
X174561Y121278D01*
X174453Y121115D01*
X174317Y120898D01*
X174276Y120857D01*
X174249Y120803D01*
X174140Y120640D01*
X174059Y120504D01*
X173869Y120232D01*
X173733Y119988D01*
X173624Y119825D01*
X173556Y119676D01*
X173502Y119649D01*
X173407Y119581D01*
X173380Y119526D01*
X173326Y119472D01*
X173271Y119336D01*
X173244Y119282D01*
X173081Y118983D01*
X172959Y118834D01*
X172878Y118807D01*
X172837Y118820D01*
X172864Y119010D01*
X172973Y119255D01*
X173040Y119431D01*
X173190Y119771D01*
X173244Y119961D01*
X173489Y120477D01*
X173556Y120653D01*
X173652Y120884D01*
X173896Y121400D01*
X174005Y121645D01*
X174073Y121821D01*
X174276Y122215D01*
X174358Y122405D01*
X174453Y122663D01*
X174521Y122813D01*
X174589Y122989D01*
X174792Y123437D01*
X174901Y123709D01*
X175037Y124007D01*
X175104Y124184D01*
X175335Y124687D01*
X175580Y125203D01*
X175716Y125556D01*
X175933Y126017D01*
X175987Y126207D01*
X176096Y126452D01*
X176164Y126628D01*
X176367Y127076D01*
X176449Y127267D01*
X176612Y127620D01*
X176680Y127796D01*
X176883Y128244D01*
X176938Y128380D01*
X177128Y128787D01*
X177196Y128964D01*
X177427Y129466D01*
X177454Y129521D01*
X177535Y129711D01*
X177644Y129955D01*
X177739Y130213D01*
X177997Y130770D01*
X178092Y131028D01*
X178431Y131775D01*
X178499Y131951D01*
X178703Y132399D01*
X178771Y132576D01*
X178974Y133024D01*
X179219Y133540D01*
X179260Y133689D01*
X179450Y134070D01*
X179531Y134287D01*
X179599Y134436D01*
X179667Y134613D01*
X179735Y134762D01*
X179803Y134939D01*
X180007Y135387D01*
X180088Y135577D01*
X180169Y135794D01*
X180305Y136093D01*
X180332Y136147D01*
X180523Y136555D01*
X180794Y137152D01*
X180903Y137396D01*
X180971Y137573D01*
X181011Y137614D01*
X181093Y137831D01*
X181174Y138021D01*
X181283Y138266D01*
X181310Y138374D01*
X181582Y138972D01*
X181690Y139216D01*
X181731Y139365D01*
X181772Y139406D01*
X181880Y139678D01*
X182071Y140085D01*
X182166Y140343D01*
X182288Y140601D01*
X182369Y140791D01*
X182478Y141036D01*
X182546Y141212D01*
X182587Y141253D01*
X182614Y141361D01*
X182858Y141877D01*
X182926Y142054D01*
X183130Y142502D01*
X183238Y142747D01*
X183333Y143005D01*
X183401Y143154D01*
X183456Y143290D01*
X183646Y143697D01*
X183714Y143874D01*
X183917Y144322D01*
X184080Y144675D01*
X184107Y144729D01*
X184189Y144919D01*
X184257Y145096D01*
X184488Y145598D01*
X184542Y145734D01*
X184569Y145843D01*
X184610Y145992D01*
X184623Y146196D01*
X184488Y146386D01*
X184447Y146562D01*
X184352Y146875D01*
X184298Y147092D01*
X184189Y147445D01*
X184121Y147730D01*
X184094Y147839D01*
X184012Y148137D01*
X183944Y148368D01*
X183809Y148803D01*
X183754Y149020D01*
X183673Y149292D01*
X183632Y149441D01*
X183605Y149550D01*
X183537Y149780D01*
X183496Y149930D01*
X183374Y150324D01*
X183347Y150432D01*
X183306Y150582D01*
X183225Y150908D01*
X183184Y151057D01*
X183130Y151247D01*
X183103Y151464D01*
X183048Y151600D01*
X183008Y151777D01*
X182953Y151994D01*
X182885Y152170D01*
X182777Y152524D01*
X182749Y152632D01*
X182722Y152795D01*
X182668Y152931D01*
X182587Y153257D01*
X182546Y153433D01*
X182505Y153583D01*
X182478Y153691D01*
X182396Y153963D01*
X182342Y154180D01*
X182261Y154370D01*
X182179Y154696D01*
X182138Y154873D01*
X182098Y155022D01*
X182057Y155199D01*
X181989Y155429D01*
X181962Y155538D01*
X181853Y155891D01*
X181799Y156027D01*
X181758Y156176D01*
X181731Y156285D01*
X181704Y156421D01*
X181582Y156814D01*
X181554Y157004D01*
X181473Y157303D01*
X181446Y157412D01*
X181337Y157765D01*
X181202Y158064D01*
X181174Y158172D01*
X181079Y158593D01*
X181052Y158729D01*
X181025Y158946D01*
X181011Y159177D01*
X181038Y159259D01*
X181066Y159530D01*
X181093Y159612D01*
X181147Y159802D01*
X181174Y159911D01*
X181242Y160087D01*
X181310Y160318D01*
X181351Y160467D01*
X181432Y160685D01*
X181487Y160820D01*
X181554Y160997D01*
X181582Y161105D01*
X181622Y161255D01*
X181663Y161377D01*
X181758Y161635D01*
X181799Y161784D01*
X181826Y161893D01*
X182030Y162477D01*
X182098Y162653D01*
X182138Y162830D01*
X182206Y163006D01*
X182234Y163169D01*
X182288Y163305D01*
X182342Y163495D01*
X182369Y163604D01*
X182437Y163780D01*
X182573Y164161D01*
X182682Y164459D01*
X182722Y164609D01*
X182749Y164717D01*
X182790Y164867D01*
X182858Y165098D01*
X182953Y165356D01*
X183021Y165586D01*
X183103Y165777D01*
X183130Y165885D01*
X183198Y166062D01*
X183238Y166211D01*
X183306Y166524D01*
X183374Y166700D01*
X183401Y166809D01*
X183537Y167162D01*
X183564Y167270D01*
X183646Y167460D01*
X183741Y167718D01*
X183768Y167827D01*
X183795Y167963D01*
X183822Y168071D01*
X183890Y168221D01*
X183917Y168330D01*
X184121Y168886D01*
X184162Y169008D01*
X184189Y169117D01*
X184243Y169253D01*
X184298Y169443D01*
X184338Y169647D01*
X184393Y169782D01*
X184433Y169932D01*
X184501Y170108D01*
X184569Y170339D01*
X184651Y170529D01*
X184705Y170719D01*
X184786Y170991D01*
X184813Y171100D01*
X184841Y171263D01*
X184949Y171507D01*
X185153Y172091D01*
X185302Y172566D01*
X185329Y172675D01*
X185357Y172838D01*
X185493Y173136D01*
X185520Y173245D01*
X185574Y173381D01*
X185601Y173489D01*
X185737Y173843D01*
X185764Y173951D01*
X185818Y174141D01*
X185845Y174250D01*
X185886Y174426D01*
X185941Y174562D01*
X185981Y174684D01*
X186036Y174902D01*
X186103Y175078D01*
X186185Y175295D01*
X186253Y175472D01*
X186362Y175825D01*
X186402Y176002D01*
X186497Y176233D01*
X186538Y176409D01*
X186565Y176518D01*
X186633Y176694D01*
X186674Y176844D01*
X186728Y176979D01*
X186769Y177102D01*
X186837Y177278D01*
X186878Y177427D01*
X186905Y177536D01*
X186973Y177713D01*
X187013Y177862D01*
X187068Y178079D01*
X187136Y178256D01*
X187176Y178405D01*
X187312Y178758D01*
X187353Y178935D01*
X187421Y179111D01*
X187461Y179288D01*
X187516Y179423D01*
X187597Y179722D01*
X187652Y179858D01*
X187760Y180157D01*
X187828Y180333D01*
X187869Y180510D01*
X187923Y180646D01*
X187977Y180863D01*
X188032Y180999D01*
X188073Y181148D01*
X188168Y181406D01*
X188208Y181555D01*
X188235Y181664D01*
X188317Y181854D01*
X188344Y181963D01*
X188385Y182139D01*
X188439Y182275D01*
X188493Y182492D01*
X188575Y182710D01*
X188616Y182859D01*
X188697Y183049D01*
X188751Y183185D01*
X188779Y183294D01*
X188860Y183565D01*
X188928Y183742D01*
X188969Y183864D01*
X188996Y183973D01*
X189023Y184190D01*
X189104Y184380D01*
X189213Y184570D01*
X189267Y184624D01*
X189376Y184977D01*
X189403Y185086D01*
X189444Y185263D01*
X189485Y185412D01*
X189512Y185521D01*
X189566Y185711D01*
X189648Y185982D01*
X189702Y186199D01*
X189783Y186335D01*
X189824Y186349D01*
X189892Y186281D01*
D02*
G37*
G36*
X226620Y145579D02*
X226667Y145570D01*
X226728Y145556D01*
X226766Y145546D01*
X226859Y145518D01*
X226906Y145500D01*
X227009Y145453D01*
X227056Y145424D01*
X227075Y145415D01*
X227131Y145378D01*
X227150Y145368D01*
X227178Y145340D01*
X227197Y145331D01*
X227234Y145293D01*
X227253Y145284D01*
X227305Y145232D01*
X227314Y145214D01*
X227337Y145190D01*
X227356Y145181D01*
X227379Y145139D01*
X227398Y145120D01*
X227431Y145068D01*
X227454Y145008D01*
X227464Y144970D01*
X227511Y144904D01*
X227520Y144886D01*
X227567Y144820D01*
X227600Y144769D01*
X227642Y144717D01*
X227651Y144698D01*
X227698Y144633D01*
X227708Y144614D01*
X227801Y144483D01*
X227829Y144436D01*
X227857Y144408D01*
X227867Y144389D01*
X227914Y144323D01*
X227923Y144305D01*
X227951Y144276D01*
X227960Y144258D01*
X228007Y144192D01*
X228017Y144173D01*
X228035Y144155D01*
X228045Y144136D01*
X228064Y144117D01*
X228092Y144070D01*
X228120Y144042D01*
X228129Y144024D01*
X228195Y143930D01*
X228204Y143911D01*
X228223Y143892D01*
X228232Y143874D01*
X228251Y143855D01*
X228284Y143803D01*
X228420Y143621D01*
X228532Y143471D01*
X228542Y143452D01*
X228560Y143433D01*
X228584Y143400D01*
X228673Y143283D01*
X228682Y143264D01*
X228696Y143250D01*
X228785Y143133D01*
X228851Y143049D01*
X228860Y143030D01*
X228879Y143011D01*
X228907Y142964D01*
X228921Y142950D01*
X228963Y142899D01*
X229029Y142815D01*
X229052Y142782D01*
X229095Y142730D01*
X229160Y142646D01*
X229184Y142613D01*
X229226Y142561D01*
X229235Y142543D01*
X229263Y142515D01*
X229273Y142496D01*
X229301Y142468D01*
X229310Y142449D01*
X229348Y142411D01*
X229357Y142393D01*
X229376Y142374D01*
X229385Y142355D01*
X229399Y142341D01*
X229441Y142290D01*
X229451Y142271D01*
X229488Y142233D01*
X229498Y142215D01*
X229526Y142187D01*
X229535Y142168D01*
X229563Y142140D01*
X229573Y142121D01*
X229610Y142084D01*
X229619Y142065D01*
X229633Y142051D01*
X229676Y141999D01*
X229685Y141980D01*
X229713Y141952D01*
X229722Y141934D01*
X229760Y141896D01*
X229769Y141877D01*
X229797Y141849D01*
X229807Y141830D01*
X229849Y141788D01*
X229891Y141737D01*
X229901Y141718D01*
X229938Y141681D01*
X229947Y141662D01*
X229976Y141634D01*
X229985Y141615D01*
X230022Y141577D01*
X230032Y141559D01*
X230079Y141512D01*
X230088Y141493D01*
X230107Y141474D01*
X230116Y141455D01*
X230163Y141409D01*
X230172Y141390D01*
X230238Y141324D01*
X230247Y141306D01*
X230275Y141278D01*
X230285Y141259D01*
X230332Y141212D01*
X230341Y141193D01*
X230369Y141165D01*
X230379Y141146D01*
X230393Y141132D01*
X230411Y141123D01*
X230425Y141099D01*
X230435Y141081D01*
X230472Y141043D01*
X230482Y141024D01*
X230557Y140949D01*
X230566Y140931D01*
X230613Y140884D01*
X230622Y140865D01*
X230678Y140809D01*
X230688Y140790D01*
X230735Y140743D01*
X230744Y140725D01*
X230791Y140678D01*
X230800Y140659D01*
X230875Y140584D01*
X230885Y140565D01*
X230950Y140500D01*
X230960Y140481D01*
X231016Y140425D01*
X231025Y140406D01*
X231063Y140368D01*
X231072Y140350D01*
X231138Y140284D01*
X231147Y140265D01*
X231161Y140251D01*
X231180Y140242D01*
X231194Y140228D01*
X231203Y140209D01*
X231222Y140200D01*
X231250Y140153D01*
X231325Y140078D01*
X231334Y140059D01*
X231428Y139965D01*
X231437Y139947D01*
X231512Y139872D01*
X231522Y139853D01*
X231644Y139731D01*
X231653Y139712D01*
X231667Y139708D01*
X231681Y139694D01*
X231691Y139675D01*
X231756Y139609D01*
X231766Y139591D01*
X231798Y139558D01*
X231817Y139548D01*
X231822Y139534D01*
X231836Y139520D01*
X231855Y139511D01*
X231859Y139497D01*
X231915Y139441D01*
X231925Y139422D01*
X232056Y139291D01*
X232065Y139272D01*
X232080Y139267D01*
X232131Y139216D01*
X232140Y139197D01*
X232187Y139150D01*
X232197Y139131D01*
X232211Y139117D01*
X232229Y139108D01*
X232234Y139094D01*
X232262Y139075D01*
X232286Y139042D01*
X232304Y139033D01*
X232356Y138981D01*
X232365Y138963D01*
X232436Y138892D01*
X232454Y138883D01*
X232464Y138864D01*
X232483Y138855D01*
X232497Y138841D01*
X232506Y138822D01*
X232534Y138803D01*
X232543Y138785D01*
X232581Y138747D01*
X232590Y138728D01*
X232642Y138677D01*
X232675Y138653D01*
X232684Y138635D01*
X232698Y138620D01*
X232717Y138611D01*
X232735Y138583D01*
X232754Y138574D01*
X232773Y138546D01*
X232792Y138536D01*
X232806Y138522D01*
X232815Y138503D01*
X232876Y138443D01*
X232895Y138433D01*
X232960Y138367D01*
X232979Y138358D01*
X233040Y138297D01*
X233050Y138278D01*
X233101Y138227D01*
X233120Y138217D01*
X233176Y138161D01*
X233195Y138152D01*
X233274Y138072D01*
X233284Y138054D01*
X233335Y138002D01*
X233354Y137993D01*
X233401Y137946D01*
X233420Y137936D01*
X233481Y137875D01*
X233490Y137857D01*
X233509Y137847D01*
X233518Y137829D01*
X233565Y137782D01*
X233621Y137744D01*
X233630Y137725D01*
X233645Y137721D01*
X233705Y137660D01*
X233715Y137641D01*
X233766Y137590D01*
X233785Y137580D01*
X233813Y137552D01*
X233846Y137529D01*
X233856Y137510D01*
X233870Y137505D01*
X233930Y137444D01*
X233954Y137412D01*
X233973Y137402D01*
X233991Y137374D01*
X234010Y137365D01*
X234057Y137318D01*
X234076Y137309D01*
X234085Y137290D01*
X234104Y137280D01*
X234155Y137229D01*
X234179Y137196D01*
X234212Y137173D01*
X234221Y137154D01*
X234235Y137149D01*
X234282Y137102D01*
X234301Y137093D01*
X234310Y137074D01*
X234329Y137065D01*
X234399Y136995D01*
X234408Y136976D01*
X234422Y136962D01*
X234441Y136952D01*
X234526Y136868D01*
X234544Y136859D01*
X234633Y136770D01*
X234643Y136751D01*
X234657Y136737D01*
X234676Y136727D01*
X234713Y136690D01*
X234732Y136680D01*
X234751Y136652D01*
X234769Y136643D01*
X234928Y136484D01*
X234961Y136460D01*
X234971Y136442D01*
X234985Y136427D01*
X235003Y136418D01*
X235018Y136404D01*
X235027Y136385D01*
X235041Y136381D01*
X235064Y136357D01*
X235074Y136338D01*
X235088Y136334D01*
X235172Y136249D01*
X235191Y136240D01*
X235228Y136203D01*
X235247Y136193D01*
X235294Y136146D01*
X235313Y136137D01*
X235425Y136024D01*
X235444Y136015D01*
X235482Y135978D01*
X235500Y135968D01*
X235514Y135954D01*
X235524Y135935D01*
X235547Y135921D01*
X235566Y135912D01*
X235575Y135893D01*
X235594Y135884D01*
X235641Y135837D01*
X235660Y135828D01*
X235688Y135800D01*
X235706Y135790D01*
X235753Y135743D01*
X235772Y135734D01*
X235838Y135668D01*
X235856Y135659D01*
X235894Y135622D01*
X235913Y135612D01*
X235960Y135565D01*
X235978Y135556D01*
X236016Y135518D01*
X236034Y135509D01*
X236072Y135472D01*
X236091Y135462D01*
X236128Y135425D01*
X236147Y135415D01*
X236184Y135378D01*
X236203Y135369D01*
X236269Y135303D01*
X236287Y135293D01*
X236306Y135275D01*
X236325Y135265D01*
X236362Y135228D01*
X236381Y135219D01*
X236419Y135181D01*
X236437Y135172D01*
X236475Y135134D01*
X236508Y135111D01*
X236559Y135069D01*
X236578Y135059D01*
X236606Y135031D01*
X236639Y135008D01*
X236648Y134989D01*
X236662Y134984D01*
X236690Y134956D01*
X236709Y134947D01*
X236737Y134919D01*
X236756Y134909D01*
X236784Y134881D01*
X236803Y134872D01*
X236822Y134853D01*
X236840Y134844D01*
X236878Y134806D01*
X236897Y134797D01*
X236934Y134759D01*
X236953Y134750D01*
X236981Y134722D01*
X237000Y134712D01*
X237028Y134684D01*
X237047Y134675D01*
X237079Y134642D01*
X237136Y134605D01*
X237145Y134586D01*
X237168Y134572D01*
X237187Y134563D01*
X237215Y134534D01*
X237234Y134525D01*
X237262Y134497D01*
X237281Y134487D01*
X237318Y134450D01*
X237337Y134441D01*
X237365Y134413D01*
X237384Y134403D01*
X237412Y134375D01*
X237431Y134366D01*
X237459Y134338D01*
X237478Y134328D01*
X237496Y134309D01*
X237515Y134300D01*
X237543Y134272D01*
X237562Y134263D01*
X237599Y134225D01*
X237618Y134216D01*
X237637Y134197D01*
X237656Y134188D01*
X237684Y134160D01*
X237703Y134150D01*
X237721Y134131D01*
X237740Y134122D01*
X237778Y134084D01*
X237796Y134075D01*
X237810Y134061D01*
X237862Y134019D01*
X237881Y134010D01*
X237909Y133981D01*
X237928Y133972D01*
X237946Y133953D01*
X237965Y133944D01*
X238002Y133906D01*
X238021Y133897D01*
X238049Y133869D01*
X238068Y133860D01*
X238087Y133841D01*
X238106Y133832D01*
X238134Y133803D01*
X238153Y133794D01*
X238171Y133775D01*
X238190Y133766D01*
X238228Y133728D01*
X238246Y133719D01*
X238265Y133700D01*
X238284Y133691D01*
X238302Y133672D01*
X238321Y133663D01*
X238349Y133635D01*
X238368Y133625D01*
X238565Y133485D01*
X238584Y133475D01*
X238602Y133457D01*
X238621Y133447D01*
X238687Y133400D01*
X238705Y133391D01*
X238734Y133363D01*
X238752Y133353D01*
X238818Y133307D01*
X238837Y133297D01*
X238855Y133279D01*
X238874Y133269D01*
X238968Y133204D01*
X239033Y133157D01*
X239080Y133129D01*
X239099Y133110D01*
X239146Y133082D01*
X239174Y133054D01*
X239193Y133044D01*
X239324Y132950D01*
X239343Y132941D01*
X239362Y132922D01*
X239380Y132913D01*
X239394Y132899D01*
X239451Y132861D01*
X239540Y132801D01*
X239586Y132773D01*
X239624Y132735D01*
X239643Y132726D01*
X239708Y132679D01*
X239727Y132669D01*
X239755Y132641D01*
X239797Y132590D01*
X239891Y132449D01*
X239947Y132346D01*
X239961Y132332D01*
X239989Y132257D01*
X240008Y132210D01*
X240027Y132135D01*
X240060Y132112D01*
X240055Y131863D01*
X240036Y131854D01*
X240022Y131802D01*
X240003Y131728D01*
X239900Y131512D01*
X239891Y131493D01*
X239854Y131437D01*
X239825Y131390D01*
X239783Y131348D01*
X239750Y131325D01*
X239633Y131236D01*
X239549Y131170D01*
X239516Y131146D01*
X239465Y131104D01*
X239446Y131095D01*
X239427Y131076D01*
X239408Y131067D01*
X239380Y131039D01*
X239296Y130973D01*
X239277Y130964D01*
X239249Y130936D01*
X239230Y130926D01*
X239212Y130907D01*
X239193Y130898D01*
X239174Y130879D01*
X239155Y130870D01*
X239137Y130851D01*
X239104Y130828D01*
X239052Y130786D01*
X239033Y130776D01*
X239015Y130757D01*
X238996Y130748D01*
X238977Y130729D01*
X238944Y130706D01*
X238893Y130664D01*
X238874Y130654D01*
X238855Y130636D01*
X238823Y130612D01*
X238771Y130570D01*
X238752Y130561D01*
X238738Y130547D01*
X238621Y130458D01*
X238588Y130434D01*
X238537Y130392D01*
X238518Y130383D01*
X238490Y130354D01*
X238471Y130345D01*
X238434Y130308D01*
X238415Y130298D01*
X238345Y130247D01*
X238293Y130204D01*
X238274Y130195D01*
X238246Y130167D01*
X238228Y130158D01*
X238209Y130139D01*
X238176Y130115D01*
X238059Y130026D01*
X237974Y129961D01*
X237942Y129937D01*
X237890Y129895D01*
X237871Y129886D01*
X237843Y129858D01*
X237825Y129848D01*
X237806Y129830D01*
X237721Y129764D01*
X237703Y129755D01*
X237684Y129736D01*
X237665Y129727D01*
X237637Y129699D01*
X237590Y129670D01*
X237553Y129633D01*
X237534Y129623D01*
X237520Y129609D01*
X237464Y129572D01*
X237412Y129530D01*
X237393Y129520D01*
X237337Y129464D01*
X237318Y129455D01*
X237304Y129441D01*
X237253Y129399D01*
X237234Y129389D01*
X237206Y129361D01*
X237187Y129352D01*
X237150Y129314D01*
X237131Y129305D01*
X237093Y129267D01*
X237075Y129258D01*
X237037Y129220D01*
X237018Y129211D01*
X236990Y129183D01*
X236972Y129174D01*
X236944Y129146D01*
X236925Y129136D01*
X236878Y129089D01*
X236859Y129080D01*
X236822Y129042D01*
X236803Y129033D01*
X236775Y129005D01*
X236756Y128996D01*
X236719Y128958D01*
X236700Y128949D01*
X236653Y128902D01*
X236634Y128893D01*
X236597Y128855D01*
X236578Y128846D01*
X236550Y128817D01*
X236531Y128808D01*
X236503Y128780D01*
X236484Y128771D01*
X236437Y128724D01*
X236419Y128714D01*
X236353Y128649D01*
X236334Y128639D01*
X236297Y128602D01*
X236278Y128593D01*
X236241Y128555D01*
X236222Y128546D01*
X236175Y128499D01*
X236156Y128489D01*
X236109Y128443D01*
X236091Y128433D01*
X236063Y128405D01*
X236044Y128396D01*
X235978Y128330D01*
X235960Y128321D01*
X235922Y128283D01*
X235903Y128274D01*
X235838Y128208D01*
X235819Y128199D01*
X235763Y128143D01*
X235744Y128133D01*
X235678Y128068D01*
X235660Y128058D01*
X235622Y128021D01*
X235603Y128012D01*
X235557Y127965D01*
X235538Y127955D01*
X235453Y127871D01*
X235435Y127862D01*
X235369Y127796D01*
X235350Y127787D01*
X235285Y127721D01*
X235266Y127712D01*
X235200Y127646D01*
X235182Y127637D01*
X235116Y127571D01*
X235097Y127562D01*
X235013Y127477D01*
X234994Y127468D01*
X234928Y127402D01*
X234910Y127393D01*
X234816Y127299D01*
X234797Y127290D01*
X234713Y127206D01*
X234694Y127196D01*
X234572Y127074D01*
X234554Y127065D01*
X234469Y126981D01*
X234451Y126971D01*
X234329Y126849D01*
X234310Y126840D01*
X234179Y126709D01*
X234160Y126699D01*
X233991Y126531D01*
X233973Y126521D01*
X233766Y126315D01*
X233748Y126306D01*
X233513Y126072D01*
X233495Y126062D01*
X232646Y125214D01*
X232637Y125195D01*
X232253Y124811D01*
X232243Y124792D01*
X232103Y124652D01*
X232094Y124633D01*
X231962Y124502D01*
X231953Y124483D01*
X231803Y124333D01*
X231794Y124314D01*
X231653Y124174D01*
X231644Y124155D01*
X231569Y124080D01*
X231559Y124061D01*
X231508Y124010D01*
X231489Y124000D01*
X231466Y123958D01*
X231381Y123874D01*
X231372Y123855D01*
X231288Y123771D01*
X231278Y123752D01*
X231194Y123668D01*
X231185Y123649D01*
X231081Y123546D01*
X231072Y123527D01*
X231025Y123480D01*
X231016Y123461D01*
X230950Y123396D01*
X230941Y123377D01*
X230875Y123311D01*
X230866Y123293D01*
X230852Y123288D01*
X230847Y123274D01*
X230810Y123237D01*
X230800Y123218D01*
X230763Y123180D01*
X230753Y123162D01*
X230669Y123077D01*
X230660Y123058D01*
X230603Y123002D01*
X230594Y122984D01*
X230575Y122965D01*
X230566Y122946D01*
X230482Y122862D01*
X230472Y122843D01*
X230425Y122796D01*
X230416Y122777D01*
X230393Y122754D01*
X230350Y122702D01*
X230341Y122684D01*
X230266Y122609D01*
X230257Y122590D01*
X230219Y122552D01*
X230210Y122534D01*
X230172Y122496D01*
X230163Y122477D01*
X230125Y122440D01*
X230116Y122421D01*
X230079Y122384D01*
X230069Y122365D01*
X230032Y122327D01*
X230022Y122309D01*
X229994Y122281D01*
X229985Y122262D01*
X229943Y122220D01*
X229901Y122168D01*
X229891Y122149D01*
X229854Y122112D01*
X229844Y122093D01*
X229807Y122056D01*
X229797Y122037D01*
X229760Y121999D01*
X229751Y121981D01*
X229713Y121943D01*
X229704Y121924D01*
X229685Y121906D01*
X229676Y121887D01*
X229657Y121868D01*
X229647Y121850D01*
X229610Y121812D01*
X229601Y121793D01*
X229554Y121746D01*
X229544Y121728D01*
X229516Y121700D01*
X229507Y121681D01*
X229488Y121662D01*
X229479Y121643D01*
X229451Y121615D01*
X229441Y121596D01*
X229413Y121568D01*
X229404Y121550D01*
X229366Y121512D01*
X229357Y121493D01*
X229338Y121475D01*
X229329Y121456D01*
X229310Y121437D01*
X229301Y121418D01*
X229273Y121390D01*
X229263Y121371D01*
X229235Y121343D01*
X229226Y121325D01*
X229198Y121297D01*
X229188Y121278D01*
X229170Y121259D01*
X229160Y121240D01*
X229141Y121222D01*
X229118Y121189D01*
X229076Y121137D01*
X229066Y121118D01*
X229038Y121090D01*
X229029Y121072D01*
X229010Y121053D01*
X228987Y121020D01*
X228898Y120903D01*
X228888Y120884D01*
X228860Y120856D01*
X228851Y120837D01*
X228823Y120809D01*
X228813Y120791D01*
X228795Y120772D01*
X228766Y120725D01*
X228738Y120697D01*
X228729Y120678D01*
X228706Y120655D01*
X228668Y120598D01*
X228626Y120547D01*
X228617Y120528D01*
X228598Y120509D01*
X228589Y120491D01*
X228570Y120472D01*
X228542Y120425D01*
X228523Y120406D01*
X228453Y120308D01*
X228363Y120191D01*
X228354Y120172D01*
X228335Y120153D01*
X228303Y120102D01*
X228120Y119853D01*
X228092Y119806D01*
X228073Y119788D01*
X228045Y119741D01*
X228021Y119717D01*
X227942Y119600D01*
X227914Y119553D01*
X227895Y119535D01*
X227886Y119516D01*
X227867Y119497D01*
X227857Y119478D01*
X227553Y119052D01*
X227511Y119000D01*
X227501Y118982D01*
X227454Y118916D01*
X227445Y118897D01*
X227426Y118879D01*
X227417Y118860D01*
X227379Y118822D01*
X227370Y118804D01*
X227342Y118775D01*
X227333Y118757D01*
X227258Y118682D01*
X227248Y118663D01*
X227234Y118649D01*
X227216Y118640D01*
X227211Y118625D01*
X227197Y118612D01*
X227178Y118602D01*
X227140Y118565D01*
X227122Y118555D01*
X227103Y118536D01*
X227056Y118508D01*
X226981Y118462D01*
X226944Y118452D01*
X226925Y118433D01*
X226869Y118424D01*
X226808Y118401D01*
X226798Y118382D01*
X226503Y118377D01*
X226499Y118391D01*
X226456Y118415D01*
X226381Y118433D01*
X226297Y118471D01*
X226241Y118508D01*
X226222Y118518D01*
X226166Y118555D01*
X226147Y118565D01*
X226119Y118593D01*
X226100Y118602D01*
X226072Y118630D01*
X226053Y118640D01*
X226030Y118663D01*
X226021Y118682D01*
X225974Y118729D01*
X225964Y118747D01*
X225824Y118944D01*
X225796Y118991D01*
X225763Y119033D01*
X225721Y119085D01*
X225711Y119104D01*
X225646Y119197D01*
X225618Y119244D01*
X225599Y119263D01*
X225571Y119310D01*
X225543Y119338D01*
X225533Y119357D01*
X225304Y119680D01*
X225215Y119797D01*
X225205Y119816D01*
X225186Y119834D01*
X225177Y119853D01*
X225158Y119872D01*
X225126Y119924D01*
X224990Y120106D01*
X224980Y120125D01*
X224961Y120144D01*
X224952Y120162D01*
X224924Y120191D01*
X224896Y120238D01*
X224882Y120252D01*
X224844Y120308D01*
X224802Y120359D01*
X224793Y120378D01*
X224765Y120406D01*
X224755Y120425D01*
X224727Y120453D01*
X224718Y120472D01*
X224699Y120491D01*
X224666Y120542D01*
X224624Y120594D01*
X224615Y120612D01*
X224587Y120641D01*
X224577Y120659D01*
X224549Y120687D01*
X224540Y120706D01*
X224521Y120725D01*
X224512Y120744D01*
X224493Y120762D01*
X224483Y120781D01*
X224465Y120800D01*
X224455Y120819D01*
X224441Y120833D01*
X224399Y120884D01*
X224390Y120903D01*
X224371Y120922D01*
X224362Y120940D01*
X224343Y120959D01*
X224334Y120978D01*
X224315Y120997D01*
X224306Y121015D01*
X224287Y121034D01*
X224277Y121053D01*
X224249Y121081D01*
X224226Y121114D01*
X224184Y121165D01*
X224174Y121184D01*
X224146Y121212D01*
X224137Y121231D01*
X224109Y121259D01*
X224099Y121278D01*
X224071Y121306D01*
X224048Y121339D01*
X224006Y121390D01*
X223996Y121409D01*
X223968Y121437D01*
X223959Y121456D01*
X223931Y121484D01*
X223921Y121503D01*
X223874Y121550D01*
X223865Y121568D01*
X223846Y121587D01*
X223837Y121606D01*
X223818Y121625D01*
X223809Y121643D01*
X223790Y121662D01*
X223781Y121681D01*
X223743Y121718D01*
X223734Y121737D01*
X223696Y121774D01*
X223687Y121793D01*
X223668Y121812D01*
X223659Y121831D01*
X223640Y121850D01*
X223631Y121868D01*
X223603Y121896D01*
X223593Y121915D01*
X223565Y121943D01*
X223556Y121962D01*
X223509Y122009D01*
X223499Y122028D01*
X223462Y122065D01*
X223453Y122084D01*
X223425Y122112D01*
X223415Y122131D01*
X223378Y122168D01*
X223368Y122187D01*
X223331Y122224D01*
X223321Y122243D01*
X223284Y122281D01*
X223275Y122299D01*
X223247Y122327D01*
X223237Y122346D01*
X223200Y122384D01*
X223190Y122402D01*
X223148Y122445D01*
X223106Y122496D01*
X223096Y122515D01*
X223068Y122543D01*
X223059Y122562D01*
X223022Y122599D01*
X223012Y122618D01*
X222965Y122665D01*
X222956Y122684D01*
X222890Y122749D01*
X222881Y122768D01*
X222862Y122787D01*
X222853Y122805D01*
X222787Y122871D01*
X222778Y122890D01*
X222731Y122937D01*
X222722Y122955D01*
X222665Y123012D01*
X222656Y123030D01*
X222628Y123058D01*
X222619Y123077D01*
X222562Y123133D01*
X222553Y123152D01*
X222487Y123218D01*
X222478Y123237D01*
X222441Y123274D01*
X222431Y123293D01*
X222384Y123340D01*
X222375Y123358D01*
X222337Y123396D01*
X222328Y123415D01*
X222234Y123508D01*
X222225Y123527D01*
X222169Y123583D01*
X222159Y123602D01*
X222094Y123668D01*
X222084Y123686D01*
X221991Y123780D01*
X221981Y123799D01*
X221925Y123855D01*
X221916Y123874D01*
X221850Y123939D01*
X221841Y123958D01*
X221756Y124042D01*
X221747Y124061D01*
X221681Y124127D01*
X221672Y124146D01*
X221550Y124267D01*
X221541Y124286D01*
X221447Y124380D01*
X221438Y124399D01*
X221297Y124539D01*
X221288Y124558D01*
X221157Y124689D01*
X221147Y124708D01*
X221035Y124820D01*
X221025Y124839D01*
X220819Y125045D01*
X220810Y125064D01*
X220547Y125327D01*
X220538Y125345D01*
X219690Y126193D01*
X219671Y126203D01*
X219446Y126428D01*
X219427Y126437D01*
X219184Y126681D01*
X219165Y126690D01*
X219062Y126793D01*
X219043Y126803D01*
X218921Y126924D01*
X218903Y126934D01*
X218781Y127056D01*
X218762Y127065D01*
X218659Y127168D01*
X218640Y127177D01*
X218518Y127299D01*
X218500Y127309D01*
X218387Y127421D01*
X218368Y127430D01*
X218284Y127515D01*
X218265Y127524D01*
X218200Y127590D01*
X218181Y127599D01*
X218097Y127683D01*
X218078Y127693D01*
X218031Y127740D01*
X218012Y127749D01*
X217956Y127805D01*
X217937Y127815D01*
X217890Y127862D01*
X217872Y127871D01*
X217806Y127937D01*
X217787Y127946D01*
X217741Y127993D01*
X217722Y128002D01*
X217656Y128068D01*
X217637Y128077D01*
X217581Y128133D01*
X217562Y128143D01*
X217497Y128208D01*
X217478Y128218D01*
X217375Y128321D01*
X217356Y128330D01*
X217197Y128489D01*
X217178Y128499D01*
X217127Y128550D01*
X217075Y128593D01*
X217042Y128616D01*
X216991Y128658D01*
X216906Y128724D01*
X216888Y128733D01*
X216860Y128761D01*
X216841Y128771D01*
X216822Y128789D01*
X216803Y128799D01*
X216785Y128817D01*
X216766Y128827D01*
X216738Y128855D01*
X216719Y128864D01*
X216691Y128893D01*
X216672Y128902D01*
X216653Y128921D01*
X216606Y128949D01*
X216569Y128986D01*
X216550Y128996D01*
X216531Y129014D01*
X216447Y129080D01*
X216428Y129089D01*
X216400Y129117D01*
X216382Y129127D01*
X216344Y129164D01*
X216325Y129174D01*
X216297Y129202D01*
X216278Y129211D01*
X216260Y129230D01*
X216241Y129239D01*
X216213Y129267D01*
X216194Y129277D01*
X216166Y129305D01*
X216147Y129314D01*
X216128Y129333D01*
X216096Y129356D01*
X216044Y129399D01*
X216025Y129408D01*
X215997Y129436D01*
X215979Y129445D01*
X215941Y129483D01*
X215922Y129492D01*
X215894Y129520D01*
X215875Y129530D01*
X215847Y129558D01*
X215829Y129567D01*
X215810Y129586D01*
X215791Y129595D01*
X215772Y129614D01*
X215754Y129623D01*
X215725Y129652D01*
X215693Y129675D01*
X215641Y129717D01*
X215557Y129783D01*
X215524Y129806D01*
X215472Y129848D01*
X215454Y129858D01*
X215426Y129886D01*
X215407Y129895D01*
X215383Y129919D01*
X215266Y130008D01*
X215233Y130031D01*
X215182Y130073D01*
X215163Y130083D01*
X215144Y130102D01*
X215112Y130125D01*
X214995Y130214D01*
X214976Y130223D01*
X214957Y130242D01*
X214924Y130265D01*
X214807Y130354D01*
X214788Y130364D01*
X214770Y130383D01*
X214751Y130392D01*
X214723Y130420D01*
X214704Y130429D01*
X214441Y130617D01*
X214437Y130622D01*
X214418Y130631D01*
X214301Y130711D01*
X214235Y130757D01*
X214170Y130795D01*
X214142Y130823D01*
X214123Y130833D01*
X214067Y130870D01*
X214015Y130903D01*
X213898Y130992D01*
X213851Y131020D01*
X213832Y131039D01*
X213654Y131132D01*
X213584Y131175D01*
X213472Y131249D01*
X213420Y131292D01*
X213331Y131409D01*
X213289Y131489D01*
X213256Y131578D01*
X213237Y131652D01*
X213218Y131699D01*
X213200Y131859D01*
X213190Y131896D01*
X213172Y131943D01*
X213181Y132027D01*
X213162Y132046D01*
X213172Y132074D01*
X213195Y132107D01*
X213209Y132215D01*
X213256Y132337D01*
X213284Y132365D01*
X213294Y132384D01*
X213532Y132623D01*
X213551Y132632D01*
X213570Y132651D01*
X213589Y132660D01*
X213607Y132679D01*
X213626Y132688D01*
X213645Y132707D01*
X213664Y132716D01*
X213734Y132768D01*
X213823Y132829D01*
X214038Y132988D01*
X214057Y132997D01*
X214076Y133016D01*
X214123Y133044D01*
X214151Y133072D01*
X214170Y133082D01*
X214235Y133129D01*
X214254Y133138D01*
X214268Y133152D01*
X214451Y133288D01*
X214484Y133311D01*
X214601Y133400D01*
X214751Y133513D01*
X214835Y133578D01*
X214854Y133588D01*
X214873Y133607D01*
X214891Y133616D01*
X214915Y133639D01*
X214971Y133677D01*
X215023Y133719D01*
X215041Y133728D01*
X215070Y133756D01*
X215088Y133766D01*
X215107Y133785D01*
X215126Y133794D01*
X215144Y133813D01*
X215163Y133822D01*
X215177Y133836D01*
X215308Y133939D01*
X215360Y133981D01*
X215379Y133991D01*
X215416Y134028D01*
X215435Y134038D01*
X215454Y134056D01*
X215487Y134080D01*
X215538Y134122D01*
X215557Y134131D01*
X215585Y134160D01*
X215604Y134169D01*
X215632Y134197D01*
X215651Y134206D01*
X215679Y134234D01*
X215697Y134244D01*
X215716Y134263D01*
X215735Y134272D01*
X215754Y134291D01*
X215772Y134300D01*
X215800Y134328D01*
X215819Y134338D01*
X215857Y134375D01*
X215875Y134384D01*
X215913Y134422D01*
X215932Y134431D01*
X215960Y134459D01*
X215979Y134469D01*
X215997Y134487D01*
X216016Y134497D01*
X216044Y134525D01*
X216063Y134534D01*
X216100Y134572D01*
X216119Y134581D01*
X216157Y134619D01*
X216175Y134628D01*
X216203Y134656D01*
X216222Y134666D01*
X216250Y134694D01*
X216269Y134703D01*
X216306Y134741D01*
X216325Y134750D01*
X216363Y134787D01*
X216382Y134797D01*
X216410Y134825D01*
X216428Y134834D01*
X216457Y134862D01*
X216475Y134872D01*
X216513Y134909D01*
X216531Y134919D01*
X216578Y134966D01*
X216597Y134975D01*
X216635Y135012D01*
X216653Y135022D01*
X216681Y135050D01*
X216700Y135059D01*
X216738Y135097D01*
X216756Y135106D01*
X216813Y135162D01*
X216831Y135172D01*
X216860Y135200D01*
X216878Y135209D01*
X216888Y135228D01*
X216906Y135237D01*
X216934Y135265D01*
X216953Y135275D01*
X217000Y135322D01*
X217019Y135331D01*
X217056Y135369D01*
X217075Y135378D01*
X217112Y135415D01*
X217131Y135425D01*
X217169Y135462D01*
X217188Y135472D01*
X217216Y135500D01*
X217248Y135523D01*
X217258Y135542D01*
X217272Y135547D01*
X217319Y135593D01*
X217337Y135603D01*
X217375Y135640D01*
X217394Y135650D01*
X217478Y135734D01*
X217497Y135743D01*
X217534Y135781D01*
X217553Y135790D01*
X217619Y135856D01*
X217637Y135865D01*
X217698Y135926D01*
X217750Y135968D01*
X217769Y135978D01*
X217844Y136053D01*
X217862Y136062D01*
X217947Y136146D01*
X217965Y136156D01*
X218003Y136193D01*
X218022Y136203D01*
X218031Y136221D01*
X218050Y136231D01*
X218078Y136259D01*
X218111Y136282D01*
X218120Y136301D01*
X218134Y136315D01*
X218153Y136324D01*
X218237Y136409D01*
X218256Y136418D01*
X218307Y136470D01*
X218364Y136516D01*
X218373Y136535D01*
X218387Y136540D01*
X218472Y136624D01*
X218490Y136634D01*
X218518Y136662D01*
X218551Y136685D01*
X218575Y136718D01*
X218593Y136727D01*
X218706Y136840D01*
X218724Y136849D01*
X218903Y137027D01*
X218921Y137037D01*
X218968Y137083D01*
X218987Y137093D01*
X219001Y137107D01*
X219010Y137126D01*
X219039Y137144D01*
X219048Y137163D01*
X219090Y137205D01*
X219109Y137215D01*
X219156Y137262D01*
X219174Y137271D01*
X219193Y137299D01*
X219212Y137309D01*
X219235Y137332D01*
X219245Y137351D01*
X219259Y137355D01*
X219427Y137524D01*
X219446Y137533D01*
X219460Y137548D01*
X219470Y137566D01*
X219498Y137585D01*
X219507Y137604D01*
X219652Y137749D01*
X219671Y137758D01*
X219685Y137772D01*
X219694Y137791D01*
X219723Y137810D01*
X219732Y137829D01*
X219821Y137918D01*
X219854Y137941D01*
X219910Y137988D01*
X219919Y138007D01*
X219934Y138021D01*
X219952Y138030D01*
X219957Y138044D01*
X220111Y138199D01*
X220130Y138208D01*
X220144Y138222D01*
X220154Y138241D01*
X220304Y138391D01*
X220327Y138424D01*
X220346Y138433D01*
X220360Y138447D01*
X220369Y138466D01*
X220397Y138485D01*
X220407Y138503D01*
X220552Y138649D01*
X220571Y138658D01*
X220589Y138686D01*
X220636Y138742D01*
X220669Y138766D01*
X220678Y138785D01*
X220707Y138803D01*
X220716Y138822D01*
X220744Y138841D01*
X220768Y138874D01*
X220786Y138883D01*
X220838Y138935D01*
X220847Y138953D01*
X220861Y138967D01*
X220908Y139023D01*
X220927Y139033D01*
X220946Y139061D01*
X220978Y139084D01*
X220988Y139103D01*
X221002Y139108D01*
X221025Y139131D01*
X221035Y139150D01*
X221072Y139188D01*
X221081Y139206D01*
X221133Y139258D01*
X221152Y139267D01*
X221157Y139281D01*
X221288Y139412D01*
X221297Y139431D01*
X221353Y139487D01*
X221363Y139506D01*
X221377Y139511D01*
X221391Y139525D01*
X221400Y139544D01*
X221414Y139548D01*
X221438Y139572D01*
X221447Y139591D01*
X221522Y139665D01*
X221531Y139684D01*
X221569Y139722D01*
X221578Y139741D01*
X221606Y139759D01*
X221616Y139778D01*
X221709Y139872D01*
X221719Y139890D01*
X221747Y139919D01*
X221770Y139951D01*
X221803Y139975D01*
X221813Y139994D01*
X221887Y140068D01*
X221897Y140087D01*
X221962Y140153D01*
X221972Y140172D01*
X222066Y140265D01*
X222075Y140284D01*
X222131Y140340D01*
X222141Y140359D01*
X222187Y140406D01*
X222197Y140425D01*
X222244Y140471D01*
X222253Y140490D01*
X222328Y140565D01*
X222337Y140584D01*
X222375Y140621D01*
X222384Y140640D01*
X222431Y140687D01*
X222441Y140706D01*
X222506Y140771D01*
X222515Y140790D01*
X222562Y140837D01*
X222572Y140856D01*
X222647Y140931D01*
X222656Y140949D01*
X222693Y140987D01*
X222703Y141006D01*
X222731Y141034D01*
X222740Y141052D01*
X222787Y141099D01*
X222797Y141118D01*
X222839Y141160D01*
X222881Y141212D01*
X222890Y141231D01*
X222947Y141287D01*
X222956Y141306D01*
X223012Y141362D01*
X223022Y141381D01*
X223059Y141418D01*
X223068Y141437D01*
X223096Y141465D01*
X223106Y141484D01*
X223143Y141521D01*
X223153Y141540D01*
X223218Y141605D01*
X223228Y141624D01*
X223247Y141643D01*
X223256Y141662D01*
X223293Y141699D01*
X223303Y141718D01*
X223321Y141737D01*
X223331Y141755D01*
X223368Y141793D01*
X223378Y141812D01*
X223415Y141849D01*
X223425Y141868D01*
X223453Y141896D01*
X223462Y141915D01*
X223490Y141943D01*
X223499Y141962D01*
X223546Y142008D01*
X223556Y142027D01*
X223584Y142055D01*
X223593Y142074D01*
X223631Y142112D01*
X223640Y142130D01*
X223668Y142158D01*
X223678Y142177D01*
X223715Y142215D01*
X223724Y142233D01*
X223739Y142247D01*
X223781Y142299D01*
X223790Y142318D01*
X223818Y142346D01*
X223828Y142365D01*
X223846Y142383D01*
X223856Y142402D01*
X223893Y142440D01*
X223903Y142458D01*
X223917Y142472D01*
X223959Y142524D01*
X223968Y142543D01*
X223996Y142571D01*
X224006Y142589D01*
X224024Y142608D01*
X224034Y142627D01*
X224062Y142655D01*
X224085Y142688D01*
X224188Y142819D01*
X224231Y142871D01*
X224240Y142889D01*
X224254Y142894D01*
X224282Y142941D01*
X224301Y142950D01*
X224362Y143039D01*
X224371Y143058D01*
X224390Y143077D01*
X224413Y143110D01*
X224455Y143161D01*
X224465Y143180D01*
X224493Y143208D01*
X224502Y143227D01*
X224521Y143246D01*
X224530Y143264D01*
X224549Y143283D01*
X224558Y143302D01*
X224577Y143321D01*
X224587Y143339D01*
X224619Y143382D01*
X224662Y143433D01*
X224685Y143466D01*
X224727Y143517D01*
X224737Y143536D01*
X224755Y143555D01*
X224765Y143574D01*
X224779Y143588D01*
X224961Y143836D01*
X225074Y143986D01*
X225083Y144005D01*
X225107Y144028D01*
X225144Y144084D01*
X225233Y144202D01*
X225261Y144248D01*
X225275Y144262D01*
X225322Y144319D01*
X225364Y144370D01*
X225374Y144389D01*
X225421Y144455D01*
X225449Y144501D01*
X225468Y144520D01*
X225533Y144642D01*
X225571Y144698D01*
X225580Y144717D01*
X225608Y144764D01*
X225646Y144829D01*
X225739Y144998D01*
X225786Y145064D01*
X225796Y145082D01*
X225833Y145139D01*
X225842Y145157D01*
X225880Y145195D01*
X225889Y145214D01*
X225918Y145242D01*
X225927Y145261D01*
X226053Y145387D01*
X226138Y145453D01*
X226217Y145495D01*
X226320Y145542D01*
X226381Y145556D01*
X226410Y145565D01*
X226484Y145574D01*
X226513Y145584D01*
X226620Y145579D01*
D02*
G37*
%LPC*%
G36*
X175729Y199140D02*
X175688Y199100D01*
X175716Y198611D01*
X175783Y198516D01*
X175974Y198543D01*
X176164Y198651D01*
X176218Y198706D01*
X176367Y198747D01*
X176517Y198842D01*
X176544D01*
X176693Y198882D01*
X176775Y198937D01*
X176761Y199032D01*
X176653Y199059D01*
X176367Y199045D01*
X176232Y199072D01*
X176123Y199100D01*
X175960Y199127D01*
X175729Y199140D01*
D02*
G37*
G36*
X176680Y175866D02*
X176612Y175798D01*
X176598Y175621D01*
X176612Y175554D01*
X176585Y175472D01*
X176557Y174793D01*
X176585Y174386D01*
Y174358D01*
X176598Y173883D01*
X176544Y173748D01*
X176449Y173598D01*
X176408Y173557D01*
X176218Y173530D01*
X176137Y173503D01*
X175933Y173544D01*
X175783Y173639D01*
X175716Y173707D01*
X175580Y173951D01*
X175512Y174046D01*
X175458Y174073D01*
X175376Y174100D01*
X175322Y174073D01*
X175267Y174019D01*
X175213Y173992D01*
X175145Y173815D01*
X175118Y173544D01*
X175064Y173408D01*
X175091Y173299D01*
X175145Y173245D01*
X175172Y173191D01*
X175267Y173123D01*
X175349Y173041D01*
X175485Y172987D01*
X175675Y172906D01*
X176109Y172933D01*
X176245Y172987D01*
X176462Y173014D01*
X176544Y173041D01*
X176843Y173177D01*
X176897Y173204D01*
X176951Y173259D01*
X177196Y173394D01*
X177440Y173584D01*
X177508Y173734D01*
X177481Y174060D01*
X177386Y174209D01*
X177331Y174236D01*
X177277Y174291D01*
X177169Y174318D01*
X176897Y174345D01*
X176829Y174413D01*
X176775Y174549D01*
X176734Y175051D01*
X176707Y175594D01*
X176734Y175730D01*
X176748Y175852D01*
X176680Y175866D01*
D02*
G37*
G36*
X195826Y182384D02*
X195636Y182357D01*
X195595Y182316D01*
X195568Y182207D01*
X195554Y181841D01*
X195582Y181352D01*
X195650Y181257D01*
X195745Y181243D01*
X195894Y181365D01*
X196016Y181488D01*
X196369Y181678D01*
X196559Y181786D01*
X196804Y181922D01*
X196967Y182031D01*
X197021Y182058D01*
X197062Y182099D01*
X197035Y182180D01*
X196668Y182194D01*
X196641D01*
X196505Y182248D01*
X196315Y182302D01*
X196098Y182329D01*
X196016Y182357D01*
X195826Y182384D01*
D02*
G37*
G36*
X197917Y143466D02*
X197184Y143439D01*
X197035Y143317D01*
X196980Y143181D01*
X196953Y142882D01*
Y142855D01*
X196940Y141891D01*
X197048Y141864D01*
X197320Y141891D01*
X197659Y141959D01*
X197877Y141986D01*
X197972Y142027D01*
X198012Y142122D01*
X197985Y142203D01*
X197958Y143426D01*
X197917Y143466D01*
D02*
G37*
G36*
X175783Y147893D02*
X175716Y147852D01*
X175702Y147730D01*
X175729Y147377D01*
X175756Y147241D01*
X175838Y147214D01*
X175987Y147255D01*
X176164Y147350D01*
X176761Y147649D01*
X176775Y147662D01*
X176802Y147744D01*
X176761Y147784D01*
X176571Y147812D01*
X176245Y147784D01*
X176164Y147757D01*
X176028Y147839D01*
X175838Y147866D01*
X175783Y147893D01*
D02*
G37*
G36*
X177331Y140941D02*
X176992Y140900D01*
X176856Y140873D01*
X176775Y140818D01*
X176720Y140628D01*
X176693Y140031D01*
X176720Y139895D01*
X176761Y139854D01*
X176843Y139827D01*
X176924Y139854D01*
X177114Y139881D01*
X177413Y139909D01*
X177481Y139949D01*
Y139976D01*
X177508Y140058D01*
X177481Y140357D01*
X177508Y140384D01*
X177481Y140465D01*
X177454Y140791D01*
X177331Y140941D01*
D02*
G37*
G36*
X196722Y133635D02*
X196587D01*
X196573Y133622D01*
X196410Y133594D01*
X196301Y133567D01*
X196030Y133513D01*
X195894Y133458D01*
X195677Y133377D01*
X195582Y133309D01*
X195446Y133173D01*
X195392Y133146D01*
X195351Y133105D01*
X195324Y133051D01*
X195134Y132644D01*
X195106Y132372D01*
X195134Y132046D01*
X195269Y131802D01*
X195364Y131707D01*
X195419Y131680D01*
X195554Y131625D01*
X195745Y131598D01*
X196478Y131625D01*
X196559Y131652D01*
X196777Y131707D01*
X196940Y131734D01*
X197238Y131897D01*
X197388Y132019D01*
X197442Y132073D01*
X197469Y132128D01*
X197605Y132318D01*
X197741Y132617D01*
X197822Y132915D01*
X197795Y133133D01*
X197686Y133323D01*
X197537Y133472D01*
X197266Y133581D01*
X197157Y133608D01*
X196722Y133635D01*
D02*
G37*
G36*
X226583Y142046D02*
X226447Y142041D01*
X226353Y142032D01*
X226274Y142008D01*
X226213Y141994D01*
X226110Y141948D01*
X226063Y141929D01*
X225716Y141760D01*
X225575Y141685D01*
X225519Y141648D01*
X225322Y141535D01*
X225304Y141516D01*
X225285Y141507D01*
X225182Y141442D01*
X225116Y141395D01*
X225097Y141385D01*
X224835Y141198D01*
X224816Y141188D01*
X224798Y141170D01*
X224751Y141142D01*
X224737Y141128D01*
X224619Y141039D01*
X224535Y140973D01*
X224516Y140963D01*
X224479Y140926D01*
X224460Y140917D01*
X224446Y140903D01*
X224394Y140860D01*
X224376Y140851D01*
X224348Y140823D01*
X224329Y140814D01*
X224301Y140785D01*
X224282Y140776D01*
X224235Y140729D01*
X224216Y140720D01*
X224179Y140682D01*
X224160Y140673D01*
X224132Y140645D01*
X224113Y140636D01*
X224076Y140598D01*
X224057Y140589D01*
X224029Y140560D01*
X224010Y140551D01*
X223945Y140486D01*
X223926Y140476D01*
X223888Y140439D01*
X223870Y140429D01*
X223842Y140401D01*
X223823Y140392D01*
X223767Y140336D01*
X223748Y140326D01*
X223710Y140289D01*
X223692Y140279D01*
X223635Y140223D01*
X223617Y140214D01*
X223570Y140167D01*
X223551Y140157D01*
X223504Y140111D01*
X223485Y140101D01*
X223448Y140064D01*
X223429Y140054D01*
X223364Y139989D01*
X223345Y139980D01*
X223307Y139942D01*
X223289Y139933D01*
X223251Y139895D01*
X223232Y139886D01*
X223195Y139848D01*
X223176Y139839D01*
X223139Y139801D01*
X223120Y139792D01*
X223073Y139745D01*
X223054Y139736D01*
X223026Y139708D01*
X223007Y139698D01*
X222979Y139670D01*
X222961Y139661D01*
X222923Y139623D01*
X222904Y139614D01*
X222857Y139567D01*
X222839Y139558D01*
X222745Y139464D01*
X222726Y139455D01*
X222586Y139314D01*
X222567Y139305D01*
X222473Y139211D01*
X222455Y139202D01*
X222436Y139173D01*
X222417Y139164D01*
X222286Y139033D01*
X222267Y139023D01*
X222098Y138855D01*
X222080Y138846D01*
X221892Y138658D01*
X221873Y138649D01*
X221602Y138377D01*
X221583Y138367D01*
X221039Y137824D01*
X221021Y137815D01*
X220922Y137716D01*
X220866Y137669D01*
X220857Y137651D01*
X220791Y137585D01*
X220782Y137566D01*
X220665Y137449D01*
X220646Y137440D01*
X220641Y137426D01*
X220458Y137243D01*
X220426Y137219D01*
X220416Y137201D01*
X220397Y137182D01*
X220388Y137163D01*
X220144Y136919D01*
X220135Y136901D01*
X219966Y136732D01*
X219957Y136713D01*
X219788Y136545D01*
X219779Y136526D01*
X219741Y136498D01*
X219732Y136479D01*
X219694Y136442D01*
X219685Y136423D01*
X219671Y136409D01*
X219652Y136399D01*
X219648Y136385D01*
X219549Y136287D01*
X219507Y136235D01*
X219498Y136217D01*
X219376Y136095D01*
X219367Y136076D01*
X219301Y136010D01*
X219277Y135978D01*
X219245Y135954D01*
X219235Y135935D01*
X219198Y135898D01*
X219188Y135879D01*
X219142Y135832D01*
X219132Y135814D01*
X219104Y135785D01*
X219095Y135767D01*
X219081Y135753D01*
X219062Y135743D01*
X219057Y135729D01*
X219010Y135682D01*
X219001Y135664D01*
X218935Y135598D01*
X218926Y135579D01*
X218879Y135532D01*
X218870Y135514D01*
X218832Y135476D01*
X218823Y135458D01*
X218748Y135382D01*
X218739Y135364D01*
X218701Y135326D01*
X218692Y135308D01*
X218626Y135242D01*
X218617Y135223D01*
X218598Y135205D01*
X218589Y135186D01*
X218561Y135158D01*
X218551Y135139D01*
X218514Y135101D01*
X218504Y135083D01*
X218439Y135017D01*
X218429Y134998D01*
X218401Y134970D01*
X218392Y134951D01*
X218354Y134914D01*
X218345Y134895D01*
X218317Y134867D01*
X218307Y134848D01*
X218261Y134801D01*
X218251Y134783D01*
X218223Y134755D01*
X218214Y134736D01*
X218186Y134708D01*
X218176Y134689D01*
X218158Y134670D01*
X218148Y134652D01*
X218120Y134623D01*
X218111Y134605D01*
X218073Y134567D01*
X218064Y134548D01*
X218036Y134520D01*
X218026Y134502D01*
X217998Y134474D01*
X217989Y134455D01*
X217970Y134436D01*
X217961Y134417D01*
X217933Y134389D01*
X217923Y134370D01*
X217895Y134342D01*
X217872Y134309D01*
X217829Y134258D01*
X217820Y134239D01*
X217801Y134220D01*
X217792Y134202D01*
X217773Y134183D01*
X217750Y134150D01*
X217708Y134099D01*
X217698Y134080D01*
X217680Y134061D01*
X217670Y134042D01*
X217651Y134024D01*
X217642Y134005D01*
X217614Y133977D01*
X217605Y133958D01*
X217576Y133930D01*
X217567Y133911D01*
X217548Y133892D01*
X217539Y133874D01*
X217520Y133855D01*
X217511Y133836D01*
X217492Y133817D01*
X217483Y133799D01*
X217464Y133780D01*
X217431Y133728D01*
X217295Y133546D01*
X217286Y133527D01*
X217272Y133513D01*
X217234Y133457D01*
X217192Y133405D01*
X217169Y133372D01*
X217108Y133283D01*
X217042Y133199D01*
X217033Y133180D01*
X216967Y133086D01*
X216930Y133021D01*
X216911Y133002D01*
X216864Y132918D01*
X216761Y132721D01*
X216714Y132618D01*
X216691Y132557D01*
X216649Y132440D01*
X216625Y132360D01*
X216611Y132280D01*
X216602Y132243D01*
X216592Y132215D01*
X216583Y131859D01*
X216592Y131821D01*
X216606Y131770D01*
X216620Y131690D01*
X216658Y131596D01*
X216695Y131512D01*
X216742Y131428D01*
X216780Y131362D01*
X216827Y131278D01*
X216864Y131212D01*
X216958Y131043D01*
X216991Y130992D01*
X217052Y130903D01*
X217061Y130884D01*
X217127Y130781D01*
X217136Y130762D01*
X217155Y130743D01*
X217164Y130725D01*
X217211Y130650D01*
X217220Y130631D01*
X217239Y130612D01*
X217248Y130594D01*
X217295Y130528D01*
X217305Y130509D01*
X217323Y130490D01*
X217333Y130472D01*
X217398Y130378D01*
X217408Y130359D01*
X217426Y130340D01*
X217436Y130322D01*
X217455Y130303D01*
X217483Y130256D01*
X217501Y130237D01*
X217511Y130219D01*
X217558Y130153D01*
X217567Y130134D01*
X217586Y130115D01*
X217595Y130097D01*
X217614Y130078D01*
X217623Y130059D01*
X217642Y130041D01*
X217666Y130008D01*
X217708Y129956D01*
X217717Y129937D01*
X217736Y129919D01*
X217745Y129900D01*
X217769Y129876D01*
X217858Y129759D01*
X217881Y129727D01*
X217923Y129675D01*
X217933Y129656D01*
X217979Y129609D01*
X217989Y129591D01*
X218017Y129563D01*
X218026Y129544D01*
X218064Y129506D01*
X218073Y129488D01*
X218087Y129483D01*
X218092Y129469D01*
X218111Y129450D01*
X218120Y129431D01*
X218148Y129403D01*
X218158Y129385D01*
X218195Y129347D01*
X218204Y129328D01*
X218232Y129300D01*
X218242Y129281D01*
X218270Y129253D01*
X218279Y129235D01*
X218326Y129188D01*
X218336Y129169D01*
X218373Y129131D01*
X218382Y129113D01*
X218448Y129047D01*
X218457Y129028D01*
X218504Y128981D01*
X218514Y128963D01*
X218528Y128949D01*
X218546Y128939D01*
X218561Y128916D01*
X218570Y128897D01*
X218617Y128850D01*
X218626Y128832D01*
X218673Y128785D01*
X218682Y128766D01*
X218767Y128682D01*
X218776Y128663D01*
X218823Y128616D01*
X218832Y128597D01*
X218907Y128522D01*
X218917Y128504D01*
X218992Y128429D01*
X219001Y128410D01*
X219048Y128363D01*
X219057Y128344D01*
X219160Y128241D01*
X219170Y128222D01*
X219254Y128138D01*
X219263Y128119D01*
X219357Y128026D01*
X219367Y128007D01*
X219441Y127932D01*
X219451Y127913D01*
X219535Y127829D01*
X219545Y127810D01*
X219629Y127726D01*
X219638Y127707D01*
X219723Y127623D01*
X219732Y127604D01*
X219760Y127585D01*
X219770Y127566D01*
X219835Y127501D01*
X219844Y127482D01*
X219910Y127416D01*
X219919Y127398D01*
X220004Y127313D01*
X220013Y127295D01*
X220116Y127191D01*
X220126Y127173D01*
X220140Y127159D01*
X220158Y127149D01*
X220182Y127117D01*
X220191Y127098D01*
X220266Y127023D01*
X220276Y127004D01*
X220360Y126920D01*
X220369Y126901D01*
X220491Y126779D01*
X220500Y126760D01*
X220543Y126718D01*
X220575Y126695D01*
X220585Y126676D01*
X220660Y126601D01*
X220669Y126582D01*
X220768Y126484D01*
X220786Y126474D01*
X220800Y126461D01*
X220810Y126442D01*
X220847Y126404D01*
X220857Y126385D01*
X221002Y126240D01*
X221021Y126231D01*
X221025Y126217D01*
X221039Y126203D01*
X221058Y126193D01*
X221063Y126179D01*
X221185Y126058D01*
X221194Y126039D01*
X221677Y125556D01*
X221695Y125547D01*
X221892Y125350D01*
X221911Y125340D01*
X221925Y125327D01*
X221934Y125308D01*
X221953Y125298D01*
X221962Y125280D01*
X222061Y125181D01*
X222080Y125172D01*
X222117Y125134D01*
X222136Y125125D01*
X222187Y125073D01*
X222197Y125055D01*
X222220Y125031D01*
X222239Y125022D01*
X222342Y124919D01*
X222361Y124909D01*
X222398Y124872D01*
X222417Y124863D01*
X222422Y124848D01*
X222492Y124778D01*
X222511Y124769D01*
X222595Y124685D01*
X222614Y124675D01*
X222708Y124581D01*
X222726Y124572D01*
X222759Y124539D01*
X222872Y124445D01*
X222881Y124427D01*
X222895Y124413D01*
X222914Y124403D01*
X222961Y124356D01*
X222979Y124347D01*
X223045Y124282D01*
X223064Y124272D01*
X223111Y124225D01*
X223129Y124216D01*
X223143Y124202D01*
X223153Y124183D01*
X223167Y124178D01*
X223232Y124113D01*
X223251Y124103D01*
X223298Y124057D01*
X223317Y124047D01*
X223345Y124019D01*
X223364Y124010D01*
X223411Y123963D01*
X223429Y123953D01*
X223467Y123916D01*
X223485Y123907D01*
X223514Y123879D01*
X223532Y123869D01*
X223584Y123818D01*
X223635Y123775D01*
X223654Y123766D01*
X223701Y123719D01*
X223720Y123710D01*
X223785Y123644D01*
X223804Y123635D01*
X223832Y123607D01*
X223851Y123597D01*
X223888Y123560D01*
X223907Y123550D01*
X223935Y123522D01*
X223954Y123513D01*
X223982Y123485D01*
X224001Y123476D01*
X224048Y123429D01*
X224066Y123419D01*
X224085Y123400D01*
X224104Y123391D01*
X224123Y123372D01*
X224142Y123363D01*
X224170Y123335D01*
X224188Y123326D01*
X224226Y123288D01*
X224245Y123279D01*
X224273Y123251D01*
X224291Y123241D01*
X224310Y123222D01*
X224329Y123213D01*
X224348Y123194D01*
X224366Y123185D01*
X224394Y123157D01*
X224413Y123147D01*
X224451Y123110D01*
X224469Y123101D01*
X224483Y123087D01*
X224666Y122951D01*
X224751Y122885D01*
X224769Y122876D01*
X224788Y122857D01*
X224807Y122848D01*
X224826Y122829D01*
X224844Y122819D01*
X224863Y122801D01*
X224882Y122791D01*
X224901Y122773D01*
X224933Y122749D01*
X225051Y122660D01*
X225069Y122651D01*
X225083Y122637D01*
X225088Y122632D01*
X225191Y122557D01*
X225210Y122548D01*
X225229Y122529D01*
X225247Y122520D01*
X225313Y122473D01*
X225332Y122463D01*
X225360Y122435D01*
X225379Y122426D01*
X225444Y122379D01*
X225463Y122370D01*
X225482Y122351D01*
X225500Y122342D01*
X225594Y122276D01*
X225613Y122266D01*
X225627Y122253D01*
X225716Y122192D01*
X225735Y122182D01*
X225753Y122163D01*
X225772Y122154D01*
X225838Y122107D01*
X225997Y122023D01*
X226081Y121985D01*
X226119Y121976D01*
X226227Y121943D01*
X226274Y121934D01*
X226330Y121924D01*
X226419Y121910D01*
X226447Y121901D01*
X226766Y121892D01*
X226887Y121929D01*
X226925Y121939D01*
X226976Y121962D01*
X227037Y121976D01*
X227122Y122013D01*
X227187Y122042D01*
X227206Y122051D01*
X227403Y122145D01*
X227468Y122182D01*
X227590Y122248D01*
X227609Y122266D01*
X227628Y122276D01*
X227731Y122342D01*
X227797Y122379D01*
X227825Y122407D01*
X227843Y122416D01*
X228003Y122529D01*
X228021Y122538D01*
X228040Y122557D01*
X228059Y122566D01*
X228087Y122595D01*
X228106Y122604D01*
X228124Y122623D01*
X228171Y122651D01*
X228195Y122674D01*
X228251Y122712D01*
X228303Y122754D01*
X228471Y122885D01*
X228490Y122895D01*
X228509Y122913D01*
X228527Y122923D01*
X228565Y122960D01*
X228584Y122969D01*
X228612Y122997D01*
X228631Y123007D01*
X228659Y123035D01*
X228678Y123044D01*
X228706Y123073D01*
X228752Y123101D01*
X228799Y123147D01*
X228818Y123157D01*
X228846Y123185D01*
X228865Y123194D01*
X228893Y123222D01*
X228912Y123232D01*
X228940Y123260D01*
X228959Y123269D01*
X228982Y123293D01*
X229034Y123335D01*
X229052Y123344D01*
X229081Y123372D01*
X229099Y123382D01*
X229137Y123419D01*
X229155Y123429D01*
X229221Y123494D01*
X229240Y123504D01*
X229277Y123541D01*
X229296Y123550D01*
X229315Y123569D01*
X229333Y123579D01*
X229371Y123616D01*
X229390Y123626D01*
X229437Y123672D01*
X229455Y123682D01*
X229493Y123719D01*
X229512Y123729D01*
X229540Y123757D01*
X229573Y123780D01*
X229629Y123827D01*
X229638Y123846D01*
X229652Y123850D01*
X229708Y123907D01*
X229727Y123916D01*
X229783Y123972D01*
X229830Y124000D01*
X229915Y124085D01*
X229933Y124094D01*
X229999Y124160D01*
X230018Y124169D01*
X230065Y124216D01*
X230083Y124225D01*
X230168Y124310D01*
X230186Y124319D01*
X230252Y124385D01*
X230271Y124394D01*
X230285Y124408D01*
X230294Y124427D01*
X230327Y124450D01*
X230346Y124460D01*
X230350Y124474D01*
X230364Y124488D01*
X230383Y124497D01*
X230458Y124572D01*
X230477Y124581D01*
X230482Y124595D01*
X230524Y124628D01*
X230542Y124638D01*
X230557Y124652D01*
X230566Y124670D01*
X230580Y124675D01*
X230664Y124759D01*
X230683Y124769D01*
X230805Y124891D01*
X230824Y124900D01*
X230852Y124937D01*
X230871Y124947D01*
X230974Y125050D01*
X230992Y125059D01*
X231006Y125073D01*
X231016Y125092D01*
X231039Y125116D01*
X231058Y125125D01*
X231077Y125153D01*
X231095Y125162D01*
X231170Y125237D01*
X231189Y125247D01*
X231241Y125298D01*
X231250Y125317D01*
X231274Y125340D01*
X231292Y125350D01*
X231480Y125537D01*
X231498Y125547D01*
X231508Y125566D01*
X231526Y125575D01*
X231691Y125739D01*
X231700Y125758D01*
X231714Y125762D01*
X231733Y125790D01*
X231751Y125800D01*
X231934Y125982D01*
X231958Y126015D01*
X231976Y126025D01*
X232159Y126207D01*
X232183Y126240D01*
X232201Y126250D01*
X232225Y126273D01*
X232234Y126292D01*
X232384Y126442D01*
X232393Y126461D01*
X232407Y126465D01*
X232515Y126573D01*
X232525Y126592D01*
X232590Y126657D01*
X232600Y126676D01*
X232614Y126690D01*
X232632Y126699D01*
X232651Y126728D01*
X232670Y126737D01*
X232712Y126779D01*
X232721Y126798D01*
X232806Y126882D01*
X232815Y126901D01*
X232829Y126915D01*
X232848Y126924D01*
X232862Y126938D01*
X232871Y126957D01*
X232899Y126976D01*
X232909Y126995D01*
X233031Y127117D01*
X233040Y127135D01*
X233162Y127257D01*
X233171Y127276D01*
X233228Y127332D01*
X233237Y127351D01*
X233251Y127356D01*
X233274Y127379D01*
X233284Y127398D01*
X233321Y127435D01*
X233331Y127454D01*
X233345Y127459D01*
X233396Y127510D01*
X233406Y127529D01*
X233490Y127613D01*
X233499Y127632D01*
X233513Y127637D01*
X233527Y127651D01*
X233537Y127670D01*
X233612Y127744D01*
X233621Y127763D01*
X233701Y127843D01*
X233738Y127899D01*
X233757Y127908D01*
X233790Y127941D01*
X233799Y127960D01*
X233893Y128054D01*
X233902Y128072D01*
X233977Y128147D01*
X233987Y128166D01*
X234033Y128213D01*
X234043Y128232D01*
X234240Y128429D01*
X234249Y128447D01*
X234287Y128485D01*
X234296Y128504D01*
X234343Y128550D01*
X234352Y128569D01*
X234380Y128597D01*
X234390Y128616D01*
X234427Y128654D01*
X234436Y128672D01*
X234483Y128719D01*
X234493Y128738D01*
X234540Y128785D01*
X234549Y128803D01*
X234596Y128850D01*
X234605Y128869D01*
X234633Y128897D01*
X234643Y128916D01*
X234699Y128972D01*
X234708Y128991D01*
X234736Y129019D01*
X234746Y129038D01*
X234783Y129075D01*
X234793Y129094D01*
X234830Y129131D01*
X234840Y129150D01*
X234877Y129188D01*
X234886Y129206D01*
X234914Y129235D01*
X234924Y129253D01*
X234943Y129272D01*
X234952Y129291D01*
X234971Y129309D01*
X234980Y129328D01*
X235018Y129366D01*
X235027Y129385D01*
X235055Y129413D01*
X235064Y129431D01*
X235093Y129460D01*
X235102Y129478D01*
X235121Y129497D01*
X235130Y129516D01*
X235168Y129553D01*
X235177Y129572D01*
X235205Y129600D01*
X235214Y129619D01*
X235243Y129647D01*
X235252Y129666D01*
X235271Y129684D01*
X235294Y129717D01*
X235336Y129769D01*
X235346Y129788D01*
X235374Y129816D01*
X235383Y129834D01*
X235421Y129872D01*
X235430Y129891D01*
X235444Y129905D01*
X235482Y129961D01*
X235524Y130012D01*
X235533Y130031D01*
X235552Y130050D01*
X235561Y130069D01*
X235580Y130087D01*
X235646Y130172D01*
X235655Y130191D01*
X235683Y130219D01*
X235692Y130237D01*
X235711Y130256D01*
X235720Y130275D01*
X235739Y130294D01*
X235749Y130312D01*
X235767Y130331D01*
X235800Y130383D01*
X235842Y130434D01*
X235889Y130500D01*
X236049Y130715D01*
X236058Y130734D01*
X236072Y130748D01*
X236348Y131128D01*
X236386Y131193D01*
X236461Y131334D01*
X236484Y131385D01*
X236531Y131507D01*
X236550Y131582D01*
X236559Y131629D01*
X236569Y131685D01*
X236578Y131732D01*
X236592Y131877D01*
X236583Y132084D01*
X236573Y132177D01*
X236555Y132290D01*
X236545Y132327D01*
X236536Y132393D01*
X236512Y132473D01*
X236498Y132534D01*
X236475Y132585D01*
X236461Y132637D01*
X236414Y132758D01*
X236391Y132801D01*
X236367Y132861D01*
X236311Y132983D01*
X236264Y133068D01*
X236189Y133208D01*
X236170Y133227D01*
X236161Y133246D01*
X236123Y133302D01*
X236114Y133321D01*
X236049Y133424D01*
X235936Y133574D01*
X235927Y133592D01*
X235908Y133611D01*
X235898Y133630D01*
X235880Y133649D01*
X235870Y133668D01*
X235828Y133710D01*
X235786Y133761D01*
X235777Y133780D01*
X235749Y133808D01*
X235739Y133827D01*
X235720Y133845D01*
X235711Y133864D01*
X235692Y133883D01*
X235683Y133902D01*
X235655Y133930D01*
X235646Y133949D01*
X235627Y133967D01*
X235603Y134000D01*
X235561Y134052D01*
X235552Y134071D01*
X235524Y134099D01*
X235514Y134117D01*
X235486Y134145D01*
X235477Y134164D01*
X235449Y134192D01*
X235439Y134211D01*
X235421Y134230D01*
X235411Y134248D01*
X235383Y134277D01*
X235374Y134295D01*
X235346Y134324D01*
X235336Y134342D01*
X235308Y134370D01*
X235299Y134389D01*
X235271Y134417D01*
X235247Y134450D01*
X235205Y134502D01*
X235196Y134520D01*
X235130Y134586D01*
X235121Y134605D01*
X235102Y134623D01*
X235093Y134642D01*
X235074Y134661D01*
X235064Y134680D01*
X235027Y134717D01*
X235018Y134736D01*
X234990Y134764D01*
X234980Y134783D01*
X234905Y134858D01*
X234896Y134876D01*
X234868Y134905D01*
X234858Y134923D01*
X234840Y134942D01*
X234830Y134961D01*
X234802Y134989D01*
X234793Y135008D01*
X234718Y135083D01*
X234708Y135101D01*
X234671Y135139D01*
X234662Y135158D01*
X234615Y135205D01*
X234605Y135223D01*
X234540Y135289D01*
X234530Y135308D01*
X234465Y135373D01*
X234455Y135392D01*
X234408Y135439D01*
X234399Y135458D01*
X234315Y135542D01*
X234305Y135561D01*
X234254Y135612D01*
X234212Y135664D01*
X234202Y135682D01*
X234188Y135687D01*
X234160Y135725D01*
X234127Y135748D01*
X234118Y135767D01*
X234043Y135842D01*
X234033Y135861D01*
X233856Y136039D01*
X233846Y136057D01*
X233781Y136123D01*
X233771Y136142D01*
X233752Y136160D01*
X233715Y136226D01*
X233668Y136292D01*
X233659Y136310D01*
X233640Y136320D01*
X233616Y136353D01*
X233598Y136362D01*
X233593Y136376D01*
X233490Y136479D01*
X233481Y136498D01*
X233467Y136503D01*
X233453Y136516D01*
X233443Y136535D01*
X233274Y136704D01*
X233265Y136723D01*
X233059Y136929D01*
X233050Y136948D01*
X232023Y137974D01*
X232004Y137983D01*
X231826Y138161D01*
X231808Y138171D01*
X231630Y138349D01*
X231611Y138358D01*
X231606Y138372D01*
X231592Y138377D01*
X231461Y138508D01*
X231442Y138517D01*
X231358Y138602D01*
X231339Y138611D01*
X231236Y138714D01*
X231217Y138724D01*
X231133Y138808D01*
X231114Y138817D01*
X231002Y138930D01*
X230983Y138939D01*
X230917Y139005D01*
X230899Y139014D01*
X230852Y139061D01*
X230833Y139070D01*
X230758Y139145D01*
X230739Y139155D01*
X230674Y139220D01*
X230655Y139230D01*
X230599Y139286D01*
X230580Y139295D01*
X230561Y139323D01*
X230542Y139333D01*
X230505Y139370D01*
X230486Y139380D01*
X230449Y139417D01*
X230430Y139427D01*
X230393Y139464D01*
X230374Y139473D01*
X230327Y139520D01*
X230308Y139530D01*
X230271Y139567D01*
X230252Y139576D01*
X230247Y139591D01*
X230233Y139595D01*
X230196Y139633D01*
X230177Y139642D01*
X230130Y139689D01*
X230111Y139698D01*
X230065Y139745D01*
X230046Y139754D01*
X230018Y139783D01*
X229999Y139792D01*
X229952Y139839D01*
X229933Y139848D01*
X229868Y139914D01*
X229849Y139923D01*
X229812Y139961D01*
X229793Y139970D01*
X229765Y139998D01*
X229746Y140008D01*
X229718Y140036D01*
X229699Y140045D01*
X229652Y140092D01*
X229633Y140101D01*
X229615Y140120D01*
X229596Y140129D01*
X229577Y140148D01*
X229558Y140157D01*
X229530Y140186D01*
X229512Y140195D01*
X229474Y140233D01*
X229455Y140242D01*
X229418Y140279D01*
X229399Y140289D01*
X229371Y140317D01*
X229352Y140326D01*
X229333Y140345D01*
X229301Y140368D01*
X229244Y140415D01*
X229193Y140457D01*
X229174Y140467D01*
X229151Y140490D01*
X229099Y140532D01*
X229015Y140598D01*
X228996Y140607D01*
X228977Y140626D01*
X228893Y140692D01*
X228874Y140701D01*
X228846Y140729D01*
X228827Y140739D01*
X228799Y140767D01*
X228781Y140776D01*
X228762Y140795D01*
X228743Y140804D01*
X228724Y140823D01*
X228706Y140832D01*
X228678Y140860D01*
X228659Y140870D01*
X228640Y140889D01*
X228593Y140917D01*
X228565Y140945D01*
X228546Y140954D01*
X228532Y140968D01*
X228415Y141057D01*
X228382Y141081D01*
X228200Y141217D01*
X228167Y141240D01*
X228111Y141278D01*
X227993Y141367D01*
X227975Y141376D01*
X227960Y141390D01*
X227904Y141427D01*
X227787Y141516D01*
X227740Y141545D01*
X227726Y141559D01*
X227670Y141596D01*
X227618Y141638D01*
X227600Y141648D01*
X227581Y141666D01*
X227562Y141676D01*
X227506Y141713D01*
X227487Y141723D01*
X227431Y141760D01*
X227412Y141770D01*
X227365Y141798D01*
X227150Y141910D01*
X227098Y141934D01*
X227037Y141957D01*
X226986Y141971D01*
X226939Y141990D01*
X226878Y142004D01*
X226827Y142018D01*
X226789Y142027D01*
X226742Y142037D01*
X226583Y142046D01*
D02*
G37*
%LPD*%
G36*
X226606Y141385D02*
X226733Y141371D01*
X226822Y141357D01*
X226859Y141348D01*
X226902Y141334D01*
X226953Y141320D01*
X226991Y141310D01*
X227056Y141282D01*
X227309Y141160D01*
X227356Y141132D01*
X227375Y141123D01*
X227379Y141109D01*
X227403Y141095D01*
X227422Y141085D01*
X227440Y141067D01*
X227459Y141057D01*
X227684Y140898D01*
X227703Y140889D01*
X227722Y140870D01*
X227740Y140860D01*
X227839Y140790D01*
X228021Y140654D01*
X228040Y140645D01*
X228059Y140626D01*
X228092Y140603D01*
X228209Y140514D01*
X228228Y140504D01*
X228251Y140481D01*
X228307Y140443D01*
X228359Y140401D01*
X228443Y140336D01*
X228462Y140326D01*
X228481Y140307D01*
X228499Y140298D01*
X228518Y140279D01*
X228537Y140270D01*
X228542Y140256D01*
X228565Y140242D01*
X228584Y140233D01*
X228612Y140204D01*
X228631Y140195D01*
X228659Y140167D01*
X228678Y140157D01*
X228696Y140139D01*
X228715Y140129D01*
X228734Y140111D01*
X228752Y140101D01*
X228781Y140073D01*
X228813Y140050D01*
X228865Y140008D01*
X228884Y139998D01*
X228912Y139970D01*
X228930Y139961D01*
X228968Y139923D01*
X228987Y139914D01*
X229024Y139876D01*
X229043Y139867D01*
X229071Y139839D01*
X229090Y139830D01*
X229118Y139801D01*
X229137Y139792D01*
X229174Y139754D01*
X229193Y139745D01*
X229230Y139708D01*
X229249Y139698D01*
X229277Y139670D01*
X229296Y139661D01*
X229333Y139623D01*
X229352Y139614D01*
X229380Y139586D01*
X229427Y139558D01*
X229446Y139530D01*
X229465Y139520D01*
X229512Y139473D01*
X229530Y139464D01*
X229558Y139436D01*
X229577Y139427D01*
X229615Y139389D01*
X229633Y139380D01*
X229680Y139333D01*
X229699Y139323D01*
X229755Y139267D01*
X229774Y139258D01*
X229821Y139211D01*
X229840Y139202D01*
X229915Y139127D01*
X229933Y139117D01*
X229971Y139080D01*
X229990Y139070D01*
X230036Y139023D01*
X230055Y139014D01*
X230083Y138986D01*
X230102Y138977D01*
X230107Y138963D01*
X230130Y138939D01*
X230149Y138930D01*
X230215Y138864D01*
X230233Y138855D01*
X230318Y138770D01*
X230336Y138761D01*
X230411Y138686D01*
X230430Y138677D01*
X230496Y138611D01*
X230514Y138602D01*
X230664Y138452D01*
X230683Y138443D01*
X230711Y138414D01*
X230744Y138391D01*
X230753Y138372D01*
X230767Y138358D01*
X230786Y138349D01*
X230791Y138335D01*
X230814Y138311D01*
X230833Y138302D01*
X230927Y138208D01*
X230945Y138199D01*
X230964Y138180D01*
X230997Y138157D01*
X231006Y138138D01*
X231067Y138077D01*
X231086Y138068D01*
X231161Y137993D01*
X231180Y137983D01*
X231199Y137955D01*
X231217Y137946D01*
X231231Y137932D01*
X231241Y137913D01*
X231386Y137768D01*
X231405Y137758D01*
X231423Y137730D01*
X231442Y137721D01*
X231456Y137707D01*
X231466Y137688D01*
X231517Y137636D01*
X231536Y137627D01*
X231611Y137552D01*
X231630Y137543D01*
X231648Y137515D01*
X231681Y137491D01*
X231691Y137472D01*
X231836Y137327D01*
X231855Y137318D01*
X231873Y137290D01*
X231906Y137266D01*
X231915Y137248D01*
X232000Y137163D01*
X232009Y137144D01*
X232051Y137102D01*
X232084Y137079D01*
X232094Y137060D01*
X232108Y137055D01*
X232131Y137032D01*
X232140Y137013D01*
X232290Y136863D01*
X232314Y136830D01*
X232332Y136821D01*
X232356Y136798D01*
X232365Y136779D01*
X232497Y136648D01*
X232506Y136629D01*
X232520Y136615D01*
X232553Y136591D01*
X232562Y136573D01*
X232581Y136563D01*
X232590Y136545D01*
X232637Y136498D01*
X232646Y136479D01*
X232768Y136357D01*
X232778Y136338D01*
X232792Y136334D01*
X232806Y136320D01*
X232815Y136301D01*
X232881Y136235D01*
X232890Y136217D01*
X233021Y136085D01*
X233031Y136067D01*
X233068Y136029D01*
X233073Y136024D01*
X233078Y136020D01*
X233087Y136001D01*
X233181Y135907D01*
X233190Y135889D01*
X233209Y135879D01*
X233218Y135861D01*
X233256Y135823D01*
X233265Y135804D01*
X233331Y135739D01*
X233354Y135706D01*
X233387Y135682D01*
X233396Y135664D01*
X233443Y135617D01*
X233453Y135598D01*
X233490Y135561D01*
X233499Y135542D01*
X233574Y135467D01*
X233584Y135448D01*
X233621Y135411D01*
X233630Y135392D01*
X233649Y135382D01*
X233659Y135364D01*
X233705Y135317D01*
X233715Y135298D01*
X233743Y135279D01*
X233752Y135261D01*
X233781Y135233D01*
X233790Y135214D01*
X233837Y135167D01*
X233846Y135148D01*
X233884Y135111D01*
X233893Y135092D01*
X233930Y135055D01*
X233940Y135036D01*
X233954Y135022D01*
X233973Y135012D01*
X233987Y134989D01*
X233996Y134970D01*
X234052Y134914D01*
X234062Y134895D01*
X234118Y134839D01*
X234127Y134820D01*
X234165Y134783D01*
X234174Y134764D01*
X234212Y134727D01*
X234221Y134708D01*
X234259Y134670D01*
X234268Y134652D01*
X234305Y134614D01*
X234315Y134595D01*
X234357Y134553D01*
X234399Y134502D01*
X234408Y134483D01*
X234446Y134445D01*
X234455Y134427D01*
X234511Y134370D01*
X234521Y134352D01*
X234549Y134324D01*
X234572Y134291D01*
X234615Y134239D01*
X234624Y134220D01*
X234690Y134155D01*
X234699Y134136D01*
X234727Y134108D01*
X234736Y134089D01*
X234755Y134071D01*
X234765Y134052D01*
X234793Y134024D01*
X234802Y134005D01*
X234830Y133977D01*
X234840Y133958D01*
X234877Y133921D01*
X234886Y133902D01*
X234910Y133878D01*
X234999Y133761D01*
X235022Y133728D01*
X235111Y133611D01*
X235121Y133592D01*
X235149Y133564D01*
X235158Y133546D01*
X235177Y133527D01*
X235186Y133508D01*
X235205Y133489D01*
X235214Y133471D01*
X235243Y133443D01*
X235252Y133424D01*
X235280Y133396D01*
X235289Y133377D01*
X235341Y133307D01*
X235477Y133124D01*
X235486Y133105D01*
X235505Y133086D01*
X235514Y133068D01*
X235528Y133054D01*
X235669Y132829D01*
X235772Y132641D01*
X235795Y132580D01*
X235809Y132566D01*
X235838Y132491D01*
X235875Y132388D01*
X235903Y132276D01*
X235917Y132196D01*
X235927Y132168D01*
X235922Y131863D01*
X235913Y131807D01*
X235903Y131770D01*
X235889Y131718D01*
X235880Y131681D01*
X235842Y131587D01*
X235786Y131465D01*
X235749Y131409D01*
X235739Y131390D01*
X235617Y131212D01*
X235608Y131193D01*
X235589Y131175D01*
X235580Y131156D01*
X235533Y131090D01*
X235505Y131043D01*
X235477Y131015D01*
X235467Y130997D01*
X235327Y130800D01*
X235261Y130715D01*
X235228Y130664D01*
X235139Y130547D01*
X235027Y130397D01*
X235018Y130378D01*
X234990Y130350D01*
X234980Y130331D01*
X234961Y130312D01*
X234938Y130280D01*
X234849Y130162D01*
X234840Y130144D01*
X234811Y130115D01*
X234802Y130097D01*
X234788Y130083D01*
X234699Y129966D01*
X234577Y129816D01*
X234568Y129797D01*
X234549Y129778D01*
X234526Y129745D01*
X234483Y129694D01*
X234474Y129675D01*
X234436Y129638D01*
X234427Y129619D01*
X234399Y129591D01*
X234390Y129572D01*
X234352Y129534D01*
X234343Y129516D01*
X234315Y129488D01*
X234305Y129469D01*
X234277Y129441D01*
X234268Y129422D01*
X234221Y129375D01*
X234212Y129356D01*
X234193Y129338D01*
X234184Y129319D01*
X234165Y129300D01*
X234155Y129281D01*
X234099Y129225D01*
X234090Y129206D01*
X234071Y129188D01*
X234062Y129169D01*
X234024Y129131D01*
X234015Y129113D01*
X233959Y129057D01*
X233949Y129038D01*
X233921Y129010D01*
X233912Y128991D01*
X233865Y128944D01*
X233856Y128925D01*
X233809Y128878D01*
X233799Y128860D01*
X233762Y128822D01*
X233752Y128803D01*
X233724Y128775D01*
X233715Y128757D01*
X233659Y128700D01*
X233649Y128682D01*
X233593Y128625D01*
X233584Y128607D01*
X233546Y128569D01*
X233537Y128550D01*
X233462Y128475D01*
X233453Y128457D01*
X233415Y128419D01*
X233406Y128401D01*
X233368Y128363D01*
X233359Y128344D01*
X233274Y128260D01*
X233265Y128241D01*
X233199Y128175D01*
X233190Y128157D01*
X233134Y128101D01*
X233124Y128082D01*
X233050Y128007D01*
X233040Y127988D01*
X232956Y127904D01*
X232946Y127885D01*
X232824Y127763D01*
X232815Y127744D01*
X232731Y127660D01*
X232721Y127641D01*
X232600Y127520D01*
X232590Y127501D01*
X232468Y127379D01*
X232459Y127360D01*
X232337Y127238D01*
X232328Y127220D01*
X232065Y126957D01*
X232056Y126938D01*
X231808Y126690D01*
X231761Y126634D01*
X231742Y126625D01*
X231508Y126390D01*
X231489Y126381D01*
X231484Y126367D01*
X231292Y126175D01*
X231259Y126151D01*
X231250Y126132D01*
X231114Y125997D01*
X231095Y125987D01*
X231049Y125940D01*
X231030Y125931D01*
X231025Y125917D01*
X230917Y125809D01*
X230899Y125800D01*
X230861Y125762D01*
X230842Y125753D01*
X230824Y125725D01*
X230805Y125715D01*
X230800Y125701D01*
X230739Y125640D01*
X230721Y125631D01*
X230627Y125537D01*
X230608Y125528D01*
X230603Y125514D01*
X230561Y125472D01*
X230542Y125462D01*
X230439Y125359D01*
X230421Y125350D01*
X230374Y125303D01*
X230355Y125294D01*
X230350Y125280D01*
X230327Y125256D01*
X230308Y125247D01*
X230215Y125153D01*
X230196Y125144D01*
X230149Y125097D01*
X230130Y125087D01*
X230125Y125073D01*
X230102Y125050D01*
X230083Y125041D01*
X230008Y124966D01*
X229990Y124956D01*
X229933Y124900D01*
X229915Y124891D01*
X229840Y124816D01*
X229821Y124806D01*
X229755Y124741D01*
X229736Y124731D01*
X229722Y124717D01*
X229666Y124670D01*
X229657Y124652D01*
X229643Y124647D01*
X229596Y124600D01*
X229577Y124591D01*
X229540Y124553D01*
X229521Y124544D01*
X229493Y124516D01*
X229460Y124492D01*
X229451Y124474D01*
X229437Y124460D01*
X229418Y124450D01*
X229380Y124413D01*
X229362Y124403D01*
X229324Y124366D01*
X229305Y124356D01*
X229258Y124310D01*
X229240Y124300D01*
X229188Y124249D01*
X229132Y124211D01*
X229123Y124193D01*
X229109Y124188D01*
X229071Y124150D01*
X229052Y124141D01*
X229024Y124113D01*
X229006Y124103D01*
X228945Y124042D01*
X228893Y124000D01*
X228874Y123991D01*
X228837Y123953D01*
X228818Y123944D01*
X228781Y123907D01*
X228762Y123897D01*
X228757Y123883D01*
X228743Y123879D01*
X228706Y123841D01*
X228687Y123832D01*
X228673Y123818D01*
X228621Y123775D01*
X228603Y123766D01*
X228574Y123738D01*
X228556Y123729D01*
X228490Y123663D01*
X228471Y123654D01*
X228453Y123635D01*
X228434Y123626D01*
X228420Y123611D01*
X228368Y123569D01*
X228335Y123546D01*
X228218Y123457D01*
X228200Y123447D01*
X228181Y123429D01*
X228162Y123419D01*
X228134Y123391D01*
X228115Y123382D01*
X228087Y123354D01*
X228040Y123326D01*
X228012Y123297D01*
X227993Y123288D01*
X227965Y123260D01*
X227946Y123251D01*
X227928Y123232D01*
X227909Y123222D01*
X227881Y123194D01*
X227862Y123185D01*
X227834Y123157D01*
X227815Y123147D01*
X227778Y123110D01*
X227759Y123101D01*
X227651Y123021D01*
X227534Y122932D01*
X227515Y122923D01*
X227497Y122904D01*
X227431Y122866D01*
X227412Y122848D01*
X227347Y122810D01*
X227206Y122735D01*
X227159Y122707D01*
X227140Y122698D01*
X227019Y122651D01*
X226981Y122641D01*
X226930Y122618D01*
X226883Y122609D01*
X226794Y122595D01*
X226766Y122585D01*
X226513Y122576D01*
X226438Y122595D01*
X226325Y122613D01*
X226283Y122627D01*
X226222Y122651D01*
X226185Y122660D01*
X225819Y122838D01*
X225791Y122866D01*
X225763Y122876D01*
X225538Y123035D01*
X225519Y123044D01*
X225500Y123063D01*
X225482Y123073D01*
X225463Y123091D01*
X225444Y123101D01*
X225416Y123129D01*
X225397Y123138D01*
X225360Y123176D01*
X225341Y123185D01*
X225313Y123213D01*
X225294Y123222D01*
X225266Y123251D01*
X225247Y123260D01*
X225224Y123283D01*
X225172Y123326D01*
X225154Y123335D01*
X225116Y123372D01*
X225097Y123382D01*
X225041Y123438D01*
X225022Y123447D01*
X224985Y123485D01*
X224966Y123494D01*
X224947Y123513D01*
X224929Y123522D01*
X224901Y123550D01*
X224868Y123574D01*
X224774Y123649D01*
X224657Y123738D01*
X224638Y123747D01*
X224619Y123766D01*
X224601Y123775D01*
X224535Y123822D01*
X224516Y123832D01*
X224498Y123850D01*
X224479Y123860D01*
X224432Y123907D01*
X224413Y123916D01*
X224376Y123953D01*
X224357Y123963D01*
X224320Y124000D01*
X224301Y124010D01*
X224273Y124038D01*
X224254Y124047D01*
X224207Y124094D01*
X224188Y124103D01*
X224132Y124160D01*
X224113Y124169D01*
X224076Y124206D01*
X224057Y124216D01*
X224010Y124263D01*
X223991Y124272D01*
X223954Y124310D01*
X223935Y124319D01*
X223870Y124385D01*
X223851Y124394D01*
X223814Y124431D01*
X223795Y124441D01*
X223771Y124464D01*
X223762Y124483D01*
X223739Y124497D01*
X223720Y124506D01*
X223663Y124563D01*
X223645Y124572D01*
X223598Y124619D01*
X223579Y124628D01*
X223565Y124642D01*
X223556Y124661D01*
X223523Y124685D01*
X223504Y124694D01*
X223429Y124769D01*
X223411Y124778D01*
X223336Y124853D01*
X223317Y124863D01*
X223251Y124928D01*
X223232Y124937D01*
X223148Y125022D01*
X223129Y125031D01*
X223101Y125069D01*
X223082Y125078D01*
X223054Y125106D01*
X223036Y125116D01*
X222951Y125200D01*
X222933Y125209D01*
X222829Y125312D01*
X222811Y125322D01*
X222708Y125425D01*
X222689Y125434D01*
X222558Y125566D01*
X222539Y125575D01*
X222389Y125725D01*
X222370Y125734D01*
X222183Y125922D01*
X222164Y125931D01*
X221981Y126114D01*
X221958Y126146D01*
X221939Y126156D01*
X221864Y126231D01*
X221845Y126240D01*
X221306Y126779D01*
X221297Y126798D01*
X220997Y127098D01*
X220988Y127117D01*
X220810Y127295D01*
X220800Y127313D01*
X220632Y127482D01*
X220622Y127501D01*
X220500Y127623D01*
X220491Y127641D01*
X220407Y127726D01*
X220397Y127744D01*
X220285Y127857D01*
X220276Y127876D01*
X220191Y127960D01*
X220182Y127979D01*
X220097Y128063D01*
X220088Y128082D01*
X220004Y128166D01*
X219994Y128185D01*
X219919Y128260D01*
X219910Y128279D01*
X219844Y128344D01*
X219835Y128363D01*
X219788Y128410D01*
X219779Y128429D01*
X219732Y128475D01*
X219723Y128494D01*
X219704Y128504D01*
X219694Y128522D01*
X219638Y128578D01*
X219629Y128597D01*
X219582Y128644D01*
X219573Y128663D01*
X219516Y128719D01*
X219507Y128738D01*
X219460Y128785D01*
X219451Y128803D01*
X219404Y128850D01*
X219395Y128869D01*
X219367Y128897D01*
X219357Y128916D01*
X219291Y128981D01*
X219282Y129000D01*
X219235Y129047D01*
X219226Y129066D01*
X219188Y129103D01*
X219179Y129122D01*
X219151Y129150D01*
X219142Y129169D01*
X219076Y129235D01*
X219067Y129253D01*
X219039Y129281D01*
X219029Y129300D01*
X219001Y129328D01*
X218992Y129347D01*
X218945Y129394D01*
X218935Y129413D01*
X218888Y129460D01*
X218879Y129478D01*
X218842Y129516D01*
X218832Y129534D01*
X218804Y129563D01*
X218795Y129581D01*
X218767Y129609D01*
X218757Y129628D01*
X218739Y129647D01*
X218729Y129666D01*
X218673Y129722D01*
X218664Y129741D01*
X218645Y129759D01*
X218636Y129778D01*
X218617Y129797D01*
X218607Y129816D01*
X218570Y129853D01*
X218561Y129872D01*
X218523Y129909D01*
X218514Y129928D01*
X218495Y129947D01*
X218472Y129980D01*
X218429Y130031D01*
X218420Y130050D01*
X218382Y130087D01*
X218373Y130106D01*
X218354Y130125D01*
X218331Y130158D01*
X218289Y130209D01*
X218279Y130228D01*
X218251Y130256D01*
X218242Y130275D01*
X218204Y130312D01*
X218195Y130331D01*
X218176Y130350D01*
X218153Y130383D01*
X218064Y130500D01*
X217998Y130584D01*
X217975Y130617D01*
X217933Y130668D01*
X217923Y130687D01*
X217895Y130715D01*
X217886Y130734D01*
X217858Y130762D01*
X217848Y130781D01*
X217834Y130795D01*
X217797Y130851D01*
X217755Y130903D01*
X217745Y130921D01*
X217731Y130936D01*
X217595Y131118D01*
X217567Y131165D01*
X217539Y131193D01*
X217530Y131212D01*
X217501Y131240D01*
X217464Y131306D01*
X217417Y131390D01*
X217375Y131470D01*
X217347Y131545D01*
X217309Y131638D01*
X217295Y131699D01*
X217286Y131737D01*
X217277Y131765D01*
X217267Y131812D01*
X217258Y131840D01*
X217263Y132182D01*
X217272Y132229D01*
X217295Y132327D01*
X217314Y132393D01*
X217333Y132440D01*
X217352Y132505D01*
X217483Y132777D01*
X217520Y132833D01*
X217567Y132918D01*
X217745Y133171D01*
X217755Y133189D01*
X217783Y133218D01*
X217792Y133236D01*
X217820Y133265D01*
X217829Y133283D01*
X217848Y133302D01*
X217858Y133321D01*
X217876Y133340D01*
X217886Y133358D01*
X217914Y133386D01*
X217923Y133405D01*
X217961Y133443D01*
X217970Y133461D01*
X217998Y133489D01*
X218007Y133508D01*
X218026Y133527D01*
X218036Y133546D01*
X218054Y133564D01*
X218064Y133583D01*
X218092Y133611D01*
X218101Y133630D01*
X218115Y133644D01*
X218158Y133696D01*
X218167Y133714D01*
X218181Y133719D01*
X218186Y133733D01*
X218204Y133752D01*
X218214Y133771D01*
X218232Y133789D01*
X218242Y133808D01*
X218256Y133822D01*
X218293Y133878D01*
X218336Y133930D01*
X218345Y133949D01*
X218359Y133963D01*
X218396Y134019D01*
X218476Y134136D01*
X218485Y134155D01*
X218504Y134174D01*
X218514Y134192D01*
X218532Y134211D01*
X218542Y134230D01*
X218579Y134267D01*
X218589Y134286D01*
X218607Y134305D01*
X218617Y134324D01*
X218645Y134352D01*
X218654Y134370D01*
X218692Y134408D01*
X218701Y134427D01*
X218739Y134464D01*
X218748Y134483D01*
X218776Y134511D01*
X218785Y134530D01*
X218823Y134567D01*
X218832Y134586D01*
X218870Y134623D01*
X218879Y134642D01*
X218917Y134680D01*
X218926Y134698D01*
X218954Y134727D01*
X218964Y134745D01*
X218992Y134773D01*
X219001Y134792D01*
X219048Y134839D01*
X219057Y134858D01*
X219085Y134886D01*
X219095Y134905D01*
X219142Y134951D01*
X219151Y134970D01*
X219207Y135026D01*
X219216Y135045D01*
X219273Y135101D01*
X219282Y135120D01*
X219329Y135167D01*
X219338Y135186D01*
X219404Y135251D01*
X219413Y135270D01*
X219479Y135336D01*
X219488Y135354D01*
X219507Y135373D01*
X219516Y135392D01*
X219591Y135467D01*
X219601Y135486D01*
X219676Y135561D01*
X219685Y135579D01*
X219723Y135617D01*
X219732Y135636D01*
X219816Y135720D01*
X219826Y135739D01*
X219840Y135743D01*
X219882Y135785D01*
X219891Y135804D01*
X219938Y135851D01*
X219948Y135870D01*
X220097Y136020D01*
X220107Y136039D01*
X220163Y136095D01*
X220173Y136114D01*
X220313Y136254D01*
X220322Y136273D01*
X220388Y136338D01*
X220397Y136357D01*
X220411Y136371D01*
X220430Y136381D01*
X220449Y136409D01*
X220468Y136418D01*
X220566Y136516D01*
X220575Y136535D01*
X220622Y136582D01*
X220632Y136601D01*
X220646Y136606D01*
X220800Y136760D01*
X220810Y136779D01*
X220847Y136816D01*
X220857Y136835D01*
X220871Y136849D01*
X220903Y136873D01*
X220913Y136891D01*
X220927Y136896D01*
X221016Y136985D01*
X221039Y137018D01*
X221072Y137041D01*
X221081Y137060D01*
X221128Y137098D01*
X221138Y137116D01*
X221152Y137121D01*
X221260Y137229D01*
X221269Y137248D01*
X221283Y137252D01*
X221297Y137266D01*
X221306Y137285D01*
X221321Y137299D01*
X221353Y137322D01*
X221363Y137341D01*
X221377Y137346D01*
X221400Y137369D01*
X221410Y137388D01*
X221424Y137393D01*
X221484Y137454D01*
X221494Y137472D01*
X221508Y137477D01*
X221522Y137491D01*
X221531Y137510D01*
X221578Y137548D01*
X221588Y137566D01*
X221602Y137571D01*
X221709Y137679D01*
X221719Y137697D01*
X221733Y137702D01*
X221747Y137716D01*
X221756Y137735D01*
X221780Y137758D01*
X221798Y137768D01*
X221817Y137796D01*
X221836Y137805D01*
X221934Y137904D01*
X221944Y137922D01*
X221958Y137927D01*
X222014Y137983D01*
X222033Y137993D01*
X222276Y138236D01*
X222295Y138246D01*
X222422Y138372D01*
X222431Y138391D01*
X222445Y138396D01*
X222530Y138480D01*
X222548Y138489D01*
X222637Y138578D01*
X222661Y138611D01*
X222679Y138620D01*
X222717Y138658D01*
X222736Y138667D01*
X222872Y138803D01*
X222881Y138822D01*
X222914Y138846D01*
X222933Y138855D01*
X223101Y139023D01*
X223120Y139033D01*
X223242Y139155D01*
X223260Y139164D01*
X223326Y139230D01*
X223373Y139286D01*
X223392Y139295D01*
X223429Y139333D01*
X223448Y139342D01*
X223485Y139380D01*
X223518Y139403D01*
X223579Y139427D01*
X223607Y139455D01*
X223626Y139464D01*
X223663Y139502D01*
X223682Y139511D01*
X223720Y139548D01*
X223739Y139558D01*
X223776Y139595D01*
X223795Y139605D01*
X223832Y139642D01*
X223851Y139651D01*
X223888Y139689D01*
X223907Y139698D01*
X223935Y139726D01*
X223954Y139736D01*
X224001Y139783D01*
X224020Y139792D01*
X224057Y139830D01*
X224076Y139839D01*
X224104Y139867D01*
X224123Y139876D01*
X224160Y139914D01*
X224179Y139923D01*
X224216Y139961D01*
X224235Y139970D01*
X224273Y140008D01*
X224291Y140017D01*
X224329Y140054D01*
X224348Y140064D01*
X224376Y140092D01*
X224394Y140101D01*
X224432Y140139D01*
X224451Y140148D01*
X224488Y140186D01*
X224507Y140195D01*
X224545Y140233D01*
X224563Y140242D01*
X224582Y140261D01*
X224601Y140270D01*
X224619Y140289D01*
X224638Y140298D01*
X224676Y140336D01*
X224709Y140359D01*
X224760Y140401D01*
X225097Y140664D01*
X225144Y140692D01*
X225158Y140706D01*
X225341Y140842D01*
X225374Y140865D01*
X225463Y140926D01*
X225496Y140949D01*
X225608Y141024D01*
X225725Y141104D01*
X225772Y141132D01*
X225838Y141179D01*
X225856Y141188D01*
X225932Y141235D01*
X226091Y141320D01*
X226142Y141334D01*
X226189Y141352D01*
X226269Y141367D01*
X226297Y141376D01*
X226438Y141385D01*
X226466Y141395D01*
X226606Y141385D01*
D02*
G37*
%LPC*%
G36*
X226475Y137271D02*
X226410Y137262D01*
X226306Y137233D01*
X226269Y137224D01*
X226175Y137187D01*
X226091Y137149D01*
X226035Y137112D01*
X225988Y137083D01*
X225969Y137065D01*
X225950Y137055D01*
X225932Y137037D01*
X225913Y137027D01*
X225885Y136999D01*
X225866Y136990D01*
X225711Y136835D01*
X225702Y136816D01*
X225664Y136779D01*
X225655Y136760D01*
X225641Y136746D01*
X225604Y136690D01*
X225515Y136573D01*
X225477Y136507D01*
X225468Y136488D01*
X225421Y136413D01*
X225271Y136123D01*
X225252Y136076D01*
X225215Y135992D01*
X225186Y135926D01*
X225130Y135785D01*
X225102Y135720D01*
X225055Y135589D01*
X225018Y135458D01*
X225004Y135406D01*
X224976Y135293D01*
X224957Y135247D01*
X224943Y135186D01*
X224924Y135111D01*
X224905Y135064D01*
X224896Y134998D01*
X224886Y134961D01*
X224872Y134909D01*
X224858Y134848D01*
X224849Y134811D01*
X224835Y134759D01*
X224826Y134722D01*
X224798Y134581D01*
X224788Y134525D01*
X224779Y134487D01*
X224760Y134394D01*
X224751Y134338D01*
X224732Y134263D01*
X224723Y134216D01*
X224713Y134122D01*
X224704Y134075D01*
X224694Y134038D01*
X224685Y133991D01*
X224666Y133841D01*
X224657Y133803D01*
X224638Y133710D01*
X224629Y133607D01*
X224619Y133522D01*
X224601Y133410D01*
X224577Y133180D01*
X224568Y133058D01*
X224554Y132932D01*
X224545Y132829D01*
X224535Y132697D01*
X224540Y132627D01*
X224530Y132599D01*
X224521Y132177D01*
X224512Y132112D01*
X224502Y132084D01*
X224507Y131507D01*
X224516Y131451D01*
X224526Y131179D01*
X224535Y130992D01*
X224545Y130748D01*
X224563Y130598D01*
X224577Y130425D01*
X224596Y130237D01*
X224615Y130106D01*
X224624Y130069D01*
X224634Y129975D01*
X224648Y129848D01*
X224657Y129802D01*
X224666Y129764D01*
X224676Y129689D01*
X224685Y129633D01*
X224694Y129586D01*
X224704Y129549D01*
X224713Y129502D01*
X224723Y129417D01*
X224741Y129324D01*
X224751Y129286D01*
X224760Y129230D01*
X224769Y129192D01*
X224779Y129146D01*
X224788Y129108D01*
X224821Y128944D01*
X224835Y128893D01*
X224854Y128817D01*
X224863Y128771D01*
X224872Y128733D01*
X224891Y128686D01*
X224905Y128607D01*
X224933Y128541D01*
X224943Y128485D01*
X224980Y128363D01*
X224990Y128325D01*
X225037Y128175D01*
X225046Y128138D01*
X225069Y128077D01*
X225083Y128026D01*
X225093Y127988D01*
X225121Y127922D01*
X225130Y127885D01*
X225168Y127791D01*
X225177Y127754D01*
X225205Y127688D01*
X225215Y127651D01*
X225243Y127585D01*
X225261Y127538D01*
X225308Y127416D01*
X225327Y127369D01*
X225341Y127356D01*
X225355Y127304D01*
X225496Y127013D01*
X225524Y126967D01*
X225571Y126882D01*
X225636Y126779D01*
X225646Y126760D01*
X225693Y126695D01*
X225702Y126676D01*
X225721Y126657D01*
X225730Y126638D01*
X225749Y126620D01*
X225758Y126601D01*
X225777Y126582D01*
X225786Y126564D01*
X225805Y126545D01*
X225814Y126526D01*
X225828Y126521D01*
X225833Y126507D01*
X226035Y126306D01*
X226067Y126282D01*
X226119Y126240D01*
X226138Y126231D01*
X226152Y126217D01*
X226311Y126123D01*
X226372Y126100D01*
X226424Y126076D01*
X226461Y126067D01*
X226573Y126058D01*
X226691Y126062D01*
X226813Y126072D01*
X226850Y126081D01*
X226916Y126100D01*
X227037Y126137D01*
X227159Y126193D01*
X227225Y126231D01*
X227244Y126240D01*
X227300Y126278D01*
X227319Y126287D01*
X227347Y126315D01*
X227365Y126325D01*
X227403Y126362D01*
X227422Y126371D01*
X227506Y126456D01*
X227525Y126465D01*
X227595Y126535D01*
X227604Y126554D01*
X227647Y126596D01*
X227750Y126728D01*
X227839Y126845D01*
X227871Y126896D01*
X227932Y126985D01*
X227960Y127032D01*
X227998Y127088D01*
X228007Y127107D01*
X228035Y127154D01*
X228073Y127220D01*
X228148Y127360D01*
X228345Y127744D01*
X228363Y127791D01*
X228410Y127894D01*
X228429Y127941D01*
X228453Y127993D01*
X228467Y128044D01*
X228481Y128058D01*
X228504Y128119D01*
X228532Y128185D01*
X228542Y128204D01*
X228551Y128241D01*
X228589Y128335D01*
X228603Y128386D01*
X228626Y128447D01*
X228635Y128485D01*
X228649Y128536D01*
X228668Y128611D01*
X228678Y128658D01*
X228687Y128714D01*
X228701Y128803D01*
X228710Y128832D01*
X228720Y128963D01*
X228635Y129103D01*
X228617Y129122D01*
X228589Y129169D01*
X228560Y129197D01*
X228551Y129216D01*
X228485Y129309D01*
X228448Y129375D01*
X228401Y129441D01*
X228363Y129506D01*
X228345Y129525D01*
X228335Y129544D01*
X228298Y129600D01*
X228289Y129619D01*
X228223Y129722D01*
X228185Y129788D01*
X228120Y129891D01*
X228082Y129956D01*
X228035Y130022D01*
X228026Y130041D01*
X227989Y130097D01*
X227951Y130162D01*
X227937Y130176D01*
X227914Y130237D01*
X227890Y130251D01*
X227862Y130214D01*
X227843Y130167D01*
X227829Y130115D01*
X227811Y130041D01*
X227783Y129937D01*
X227773Y129900D01*
X227750Y129820D01*
X227736Y129759D01*
X227726Y129722D01*
X227693Y129614D01*
X227679Y129553D01*
X227656Y129492D01*
X227642Y129431D01*
X227614Y129366D01*
X227604Y129328D01*
X227581Y129267D01*
X227548Y129178D01*
X227520Y129113D01*
X227501Y129066D01*
X227370Y128794D01*
X227323Y128719D01*
X227314Y128700D01*
X227267Y128635D01*
X227229Y128569D01*
X227201Y128541D01*
X227192Y128522D01*
X227145Y128475D01*
X227136Y128457D01*
X227009Y128330D01*
X226991Y128321D01*
X226976Y128307D01*
X226967Y128288D01*
X226944Y128274D01*
X226794Y128162D01*
X226728Y128124D01*
X226644Y128077D01*
X226630Y128063D01*
X226578Y128049D01*
X226559Y128030D01*
X226484Y128021D01*
X226433Y128035D01*
X226363Y128049D01*
X226325Y128058D01*
X226128Y128152D01*
X226110Y128171D01*
X226091Y128180D01*
X226053Y128218D01*
X226035Y128227D01*
X225988Y128274D01*
X225955Y128297D01*
X225946Y128316D01*
X225918Y128344D01*
X225908Y128363D01*
X225885Y128386D01*
X225847Y128443D01*
X225786Y128532D01*
X225655Y128785D01*
X225618Y128869D01*
X225599Y128916D01*
X225557Y129033D01*
X225491Y129220D01*
X225463Y129324D01*
X225440Y129385D01*
X225407Y129492D01*
X225393Y129581D01*
X225369Y129642D01*
X225355Y129694D01*
X225346Y129759D01*
X225336Y129797D01*
X225322Y129848D01*
X225304Y129952D01*
X225294Y129989D01*
X225271Y130097D01*
X225261Y130134D01*
X225252Y130200D01*
X225233Y130312D01*
X225224Y130340D01*
X225215Y130444D01*
X225205Y130481D01*
X225196Y130547D01*
X225186Y130575D01*
X225177Y130650D01*
X225168Y130715D01*
X225154Y130842D01*
X225144Y130889D01*
X225135Y130964D01*
X225126Y131086D01*
X225116Y131189D01*
X225112Y131193D01*
X225102Y131353D01*
X225093Y131381D01*
X225083Y131728D01*
X225074Y131756D01*
X225079Y132501D01*
X225088Y132697D01*
X225102Y132955D01*
X225112Y133021D01*
X225121Y133058D01*
X225130Y133208D01*
X225140Y133302D01*
X225154Y133429D01*
X225163Y133466D01*
X225172Y133550D01*
X225182Y133625D01*
X225191Y133681D01*
X225201Y133719D01*
X225210Y133775D01*
X225219Y133860D01*
X225247Y134000D01*
X225266Y134113D01*
X225294Y134253D01*
X225304Y134291D01*
X225318Y134380D01*
X225341Y134441D01*
X225355Y134520D01*
X225364Y134558D01*
X225379Y134600D01*
X225402Y134708D01*
X225416Y134759D01*
X225440Y134820D01*
X225449Y134858D01*
X225468Y134923D01*
X225477Y134961D01*
X225496Y135026D01*
X225505Y135064D01*
X225543Y135186D01*
X225571Y135251D01*
X225580Y135308D01*
X225599Y135354D01*
X225613Y135387D01*
X225627Y135448D01*
X225683Y135570D01*
X225777Y135739D01*
X225814Y135804D01*
X225861Y135879D01*
X225871Y135898D01*
X225918Y135964D01*
X225946Y136010D01*
X225964Y136029D01*
X225974Y136048D01*
X225992Y136067D01*
X226002Y136085D01*
X226021Y136104D01*
X226030Y136123D01*
X226124Y136217D01*
X226241Y136306D01*
X226306Y136343D01*
X226325Y136362D01*
X226363Y136371D01*
X226414Y136395D01*
X226452Y136404D01*
X226606Y136418D01*
X226700Y136409D01*
X226737Y136399D01*
X226784Y136381D01*
X226822Y136371D01*
X226962Y136306D01*
X227009Y136277D01*
X227037Y136249D01*
X227056Y136240D01*
X227094Y136203D01*
X227112Y136193D01*
X227154Y136151D01*
X227164Y136132D01*
X227201Y136095D01*
X227211Y136076D01*
X227229Y136057D01*
X227239Y136039D01*
X227253Y136024D01*
X227290Y135968D01*
X227351Y135879D01*
X227417Y135757D01*
X227487Y135622D01*
X227511Y135561D01*
X227557Y135458D01*
X227604Y135336D01*
X227623Y135289D01*
X227632Y135233D01*
X227618Y135181D01*
X227600Y135059D01*
X227590Y135003D01*
X227581Y134966D01*
X227557Y134858D01*
X227529Y134745D01*
X227515Y134694D01*
X227506Y134647D01*
X227492Y134595D01*
X227473Y134548D01*
X227464Y134483D01*
X227492Y134455D01*
X227553Y134431D01*
X227590Y134422D01*
X227642Y134398D01*
X227703Y134384D01*
X227768Y134356D01*
X227806Y134347D01*
X227928Y134300D01*
X227965Y134291D01*
X228012Y134272D01*
X228092Y134248D01*
X228251Y134192D01*
X228312Y134169D01*
X228378Y134141D01*
X228453Y134113D01*
X228537Y134075D01*
X228565Y134066D01*
X228593Y134075D01*
X228598Y134089D01*
X228589Y134155D01*
X228556Y134263D01*
X228542Y134342D01*
X228514Y134408D01*
X228504Y134464D01*
X228495Y134502D01*
X228471Y134581D01*
X228457Y134642D01*
X228443Y134694D01*
X228415Y134806D01*
X228401Y134867D01*
X228392Y134905D01*
X228378Y134956D01*
X228363Y135026D01*
X228349Y135078D01*
X228331Y135125D01*
X228317Y135214D01*
X228293Y135275D01*
X228279Y135326D01*
X228270Y135392D01*
X228246Y135472D01*
X228228Y135565D01*
X228209Y135640D01*
X228200Y135687D01*
X228181Y135762D01*
X228171Y135818D01*
X228162Y135856D01*
X228129Y136001D01*
X228115Y136053D01*
X228092Y136188D01*
X228082Y136226D01*
X228068Y136277D01*
X228050Y136390D01*
X228035Y136451D01*
X228017Y136526D01*
X228003Y136577D01*
X227975Y136587D01*
X227965Y136568D01*
X227951Y136470D01*
X227932Y136395D01*
X227918Y136343D01*
X227900Y136268D01*
X227881Y136221D01*
X227867Y136170D01*
X227848Y136123D01*
X227815Y136090D01*
X227792Y136095D01*
X227679Y136310D01*
X227632Y136395D01*
X227595Y136460D01*
X227576Y136479D01*
X227567Y136498D01*
X227529Y136554D01*
X227520Y136573D01*
X227422Y136709D01*
X227379Y136760D01*
X227370Y136779D01*
X227305Y136845D01*
X227295Y136863D01*
X227206Y136952D01*
X227187Y136962D01*
X227145Y137004D01*
X227094Y137046D01*
X227075Y137055D01*
X227061Y137069D01*
X227005Y137107D01*
X226902Y137173D01*
X226855Y137191D01*
X226737Y137233D01*
X226700Y137243D01*
X226653Y137262D01*
X226475Y137271D01*
D02*
G37*
G36*
X229568Y133541D02*
X229554Y133527D01*
X229540Y133494D01*
X229526Y132515D01*
X229516Y132477D01*
X229474Y132454D01*
X229446Y132444D01*
X229160Y132449D01*
X228701Y132468D01*
X228298Y132477D01*
X228242Y132487D01*
X228035Y132496D01*
X227801Y132505D01*
X227389Y132515D01*
X227173Y132524D01*
X227136Y132534D01*
X226902Y132543D01*
X226278Y132557D01*
X226250Y132566D01*
X226035Y132576D01*
X226007Y132585D01*
X225416Y132594D01*
X225397Y132576D01*
X225388Y132501D01*
X225374Y132393D01*
X225364Y132365D01*
X225355Y131756D01*
X225364Y131493D01*
X225374Y131465D01*
X225383Y131362D01*
X225393Y131296D01*
X225444Y131254D01*
X225486Y131259D01*
X225664Y131268D01*
X225871Y131278D01*
X226105Y131287D01*
X226705Y131315D01*
X226930Y131325D01*
X227567Y131353D01*
X227960Y131371D01*
X228420Y131390D01*
X228598Y131400D01*
X228785Y131409D01*
X228991Y131418D01*
X229418Y131432D01*
X229455Y131442D01*
X229493Y131432D01*
X229516Y131400D01*
X229526Y130790D01*
X229535Y130472D01*
X229549Y130458D01*
X229596Y130448D01*
X229661Y130476D01*
X229699Y130486D01*
X229765Y130514D01*
X229840Y130533D01*
X229882Y130556D01*
X229957Y130575D01*
X230088Y130622D01*
X230177Y130654D01*
X230243Y130673D01*
X230308Y130701D01*
X230346Y130711D01*
X230397Y130734D01*
X230458Y130748D01*
X230542Y130786D01*
X230580Y130795D01*
X230622Y130809D01*
X230683Y130833D01*
X230735Y130847D01*
X230880Y130898D01*
X230927Y130917D01*
X230964Y130926D01*
X231086Y130973D01*
X231123Y130982D01*
X231189Y131010D01*
X231227Y131020D01*
X231292Y131048D01*
X231358Y131067D01*
X231409Y131081D01*
X231611Y131151D01*
X231733Y131198D01*
X231770Y131207D01*
X231822Y131231D01*
X231859Y131240D01*
X231911Y131254D01*
X231925Y131268D01*
X231986Y131282D01*
X232080Y131320D01*
X232187Y131353D01*
X232318Y131400D01*
X232379Y131423D01*
X232417Y131432D01*
X232459Y131456D01*
X232520Y131470D01*
X232562Y131484D01*
X232637Y131512D01*
X232698Y131535D01*
X232820Y131573D01*
X232886Y131601D01*
X232923Y131610D01*
X232965Y131624D01*
X233026Y131648D01*
X233106Y131681D01*
X233143Y131690D01*
X233190Y131699D01*
X233307Y131741D01*
X233373Y131760D01*
X233574Y131821D01*
X233626Y131835D01*
X233692Y131863D01*
X233748Y131873D01*
X233809Y131896D01*
X233860Y131910D01*
X233907Y131929D01*
X233912Y131962D01*
X233898Y131976D01*
X233724Y132037D01*
X233663Y132060D01*
X233621Y132074D01*
X233560Y132098D01*
X233523Y132107D01*
X233481Y132131D01*
X233420Y132144D01*
X233335Y132182D01*
X233298Y132191D01*
X233256Y132205D01*
X233167Y132238D01*
X233129Y132248D01*
X233064Y132276D01*
X233026Y132285D01*
X232946Y132318D01*
X232886Y132332D01*
X232801Y132369D01*
X232764Y132379D01*
X232698Y132407D01*
X232646Y132421D01*
X232501Y132473D01*
X232454Y132491D01*
X232417Y132501D01*
X232356Y132524D01*
X232309Y132543D01*
X232248Y132557D01*
X232206Y132580D01*
X232154Y132594D01*
X232070Y132632D01*
X231991Y132655D01*
X231859Y132702D01*
X231812Y132721D01*
X231761Y132735D01*
X231677Y132773D01*
X231639Y132782D01*
X231588Y132805D01*
X231536Y132819D01*
X231452Y132857D01*
X231400Y132871D01*
X231297Y132908D01*
X231222Y132937D01*
X231119Y132974D01*
X231058Y132997D01*
X231020Y133007D01*
X230978Y133030D01*
X230927Y133044D01*
X230833Y133082D01*
X230791Y133096D01*
X230603Y133161D01*
X230542Y133185D01*
X230477Y133213D01*
X230439Y133222D01*
X230196Y133316D01*
X230149Y133335D01*
X230111Y133344D01*
X230107Y133349D01*
X230065Y133363D01*
X229999Y133391D01*
X229961Y133400D01*
X229877Y133438D01*
X229840Y133447D01*
X229755Y133485D01*
X229699Y133494D01*
X229643Y133532D01*
X229568Y133541D01*
D02*
G37*
G36*
X220102Y132857D02*
X220065Y132847D01*
X220041Y132815D01*
X220032Y132646D01*
X220023Y132618D01*
X220013Y132458D01*
X220004Y132430D01*
X220008Y131779D01*
X220018Y131610D01*
X220037Y131339D01*
X220051Y131128D01*
X220069Y131053D01*
X220093Y131039D01*
X220500Y131062D01*
X220650Y131071D01*
X220969Y131090D01*
X221381Y131109D01*
X221775Y131128D01*
X222234Y131146D01*
X222740Y131165D01*
X223181Y131184D01*
X223668Y131203D01*
X223856Y131212D01*
X224160Y131226D01*
X224254Y131236D01*
X224273Y131254D01*
X224268Y131418D01*
X224259Y131446D01*
X224249Y131840D01*
Y131849D01*
X224254Y132351D01*
X224263Y132388D01*
X224259Y132552D01*
X224268Y132580D01*
X224259Y132627D01*
X224231Y132646D01*
X224184Y132655D01*
X224071Y132674D01*
X223912Y132683D01*
X223504Y132697D01*
X223476Y132707D01*
X223448Y132697D01*
X223349Y132702D01*
X223293Y132712D01*
X222970Y132726D01*
X222820Y132735D01*
X222333Y132744D01*
X222305Y132754D01*
X222127Y132763D01*
X222033Y132773D01*
X221489Y132782D01*
X221461Y132791D01*
X221255Y132801D01*
X221227Y132810D01*
X220665Y132819D01*
X220636Y132829D01*
X220486Y132838D01*
X220449Y132829D01*
X220421Y132838D01*
X220102Y132857D01*
D02*
G37*
%LPD*%
D12*
X351212Y132676D02*
X352196Y131692D01*
Y129724D01*
X351212Y128740D01*
X350228D01*
X349244Y129724D01*
Y131692D01*
X348260Y132676D01*
X347276D01*
X346292Y131692D01*
Y129724D01*
X347276Y128740D01*
X351212Y138579D02*
X352196Y137596D01*
Y135628D01*
X351212Y134644D01*
X347276D01*
X346292Y135628D01*
Y137596D01*
X347276Y138579D01*
X352196Y140547D02*
X346292D01*
X349244D01*
Y144483D01*
X352196D01*
X346292D01*
X352196Y150387D02*
Y146451D01*
X346292D01*
Y150387D01*
X349244Y146451D02*
Y148419D01*
X346292Y152355D02*
X352196D01*
X350228Y154322D01*
X352196Y156290D01*
X346292D01*
Y158258D02*
X350228D01*
X352196Y160226D01*
X350228Y162194D01*
X346292D01*
X349244D01*
Y158258D01*
X352196Y164162D02*
Y168097D01*
Y166130D01*
X346292D01*
X352196Y170065D02*
Y172033D01*
Y171049D01*
X346292D01*
Y170065D01*
Y172033D01*
X351212Y178921D02*
X352196Y177937D01*
Y175969D01*
X351212Y174985D01*
X347276D01*
X346292Y175969D01*
Y177937D01*
X347276Y178921D01*
X352196Y186792D02*
X346292D01*
Y189744D01*
X347276Y190728D01*
X351212D01*
X352196Y189744D01*
Y186792D01*
Y196632D02*
Y192696D01*
X346292D01*
Y196632D01*
X349244Y192696D02*
Y194664D01*
X351212Y202535D02*
X352196Y201551D01*
Y199583D01*
X351212Y198599D01*
X350228D01*
X349244Y199583D01*
Y201551D01*
X348260Y202535D01*
X347276D01*
X346292Y201551D01*
Y199583D01*
X347276Y198599D01*
X352196Y204503D02*
Y206471D01*
Y205487D01*
X346292D01*
Y204503D01*
Y206471D01*
X351212Y213358D02*
X352196Y212374D01*
Y210407D01*
X351212Y209423D01*
X347276D01*
X346292Y210407D01*
Y212374D01*
X347276Y213358D01*
X349244D01*
Y211391D01*
X346292Y215326D02*
X352196D01*
X346292Y219262D01*
X352196D01*
X336373Y128740D02*
X340309D01*
X342277Y130708D01*
X340309Y132676D01*
X336373D01*
X339325D01*
Y128740D01*
X336373Y134644D02*
X342277D01*
X336373Y138579D01*
X342277D01*
Y140547D02*
X336373D01*
Y143499D01*
X337357Y144483D01*
X341293D01*
X342277Y143499D01*
Y140547D01*
X336373Y152355D02*
X342277D01*
Y155306D01*
X341293Y156290D01*
X339325D01*
X338341Y155306D01*
Y152355D01*
X341293Y162194D02*
X342277Y161210D01*
Y159242D01*
X341293Y158258D01*
X337357D01*
X336373Y159242D01*
Y161210D01*
X337357Y162194D01*
X342277Y164162D02*
X336373D01*
Y167114D01*
X337357Y168097D01*
X338341D01*
X339325Y167114D01*
Y164162D01*
Y167114D01*
X340309Y168097D01*
X341293D01*
X342277Y167114D01*
Y164162D01*
Y175969D02*
X336373D01*
Y179905D01*
Y181873D02*
X340309D01*
X342277Y183840D01*
X340309Y185808D01*
X336373D01*
X339325D01*
Y181873D01*
X342277Y187776D02*
X341293D01*
X339325Y189744D01*
X341293Y191712D01*
X342277D01*
X339325Y189744D02*
X336373D01*
X342277Y196632D02*
Y194664D01*
X341293Y193680D01*
X337357D01*
X336373Y194664D01*
Y196632D01*
X337357Y197616D01*
X341293D01*
X342277Y196632D01*
Y199583D02*
X337357D01*
X336373Y200567D01*
Y202535D01*
X337357Y203519D01*
X342277D01*
Y205487D02*
Y209423D01*
Y207455D01*
X336373D01*
X332358Y128740D02*
X326454D01*
Y131692D01*
X327438Y132676D01*
X328422D01*
X329406Y131692D01*
Y128740D01*
Y131692D01*
X330390Y132676D01*
X331374D01*
X332358Y131692D01*
Y128740D01*
Y134644D02*
X331374D01*
X329406Y136612D01*
X331374Y138579D01*
X332358D01*
X329406Y136612D02*
X326454D01*
X330390Y140547D02*
Y141531D01*
X329406D01*
Y140547D01*
X330390D01*
X327438D02*
Y141531D01*
X326454D01*
Y140547D01*
X327438D01*
X316535Y128740D02*
X320471D01*
X322439Y130708D01*
X320471Y132676D01*
X316535D01*
X319487D01*
Y128740D01*
X322439Y134644D02*
X316535D01*
Y137596D01*
X317519Y138579D01*
X321455D01*
X322439Y137596D01*
Y134644D01*
X316535Y140547D02*
X322439D01*
Y143499D01*
X321455Y144483D01*
X319487D01*
X318503Y143499D01*
Y140547D01*
Y142515D02*
X316535Y144483D01*
X322439Y146451D02*
Y148419D01*
Y147435D01*
X316535D01*
Y146451D01*
Y148419D01*
Y151371D02*
X320471D01*
X322439Y153339D01*
X320471Y155306D01*
X316535D01*
X319487D01*
Y151371D01*
X316535Y157274D02*
X322439D01*
X316535Y161210D01*
X322439D01*
X321455Y173017D02*
X322439Y172033D01*
Y170065D01*
X321455Y169081D01*
X320471D01*
X319487Y170065D01*
Y172033D01*
X318503Y173017D01*
X317519D01*
X316535Y172033D01*
Y170065D01*
X317519Y169081D01*
X322439Y174985D02*
X317519D01*
X316535Y175969D01*
Y177937D01*
X317519Y178921D01*
X322439D01*
X321455Y184824D02*
X322439Y183840D01*
Y181873D01*
X321455Y180889D01*
X317519D01*
X316535Y181873D01*
Y183840D01*
X317519Y184824D01*
X316535Y186792D02*
X320471D01*
X322439Y188760D01*
X320471Y190728D01*
X316535D01*
X319487D01*
Y186792D01*
X322439Y192696D02*
X316535D01*
X319487D01*
Y196632D01*
X322439D01*
X316535D01*
X322439Y198599D02*
X321455D01*
X319487Y200567D01*
X321455Y202535D01*
X322439D01*
X319487Y200567D02*
X316535D01*
X322439Y207455D02*
Y205487D01*
X321455Y204503D01*
X317519D01*
X316535Y205487D01*
Y207455D01*
X317519Y208439D01*
X321455D01*
X322439Y207455D01*
D15*
X203815Y299487D02*
X205147D01*
X204481D01*
Y296155D01*
X205147Y295488D01*
X205814D01*
X206480Y296155D01*
X202482Y299487D02*
Y295488D01*
X199816D01*
X195817Y298820D02*
X196484Y299487D01*
X197816D01*
X198483Y298820D01*
Y296155D01*
X197816Y295488D01*
X196484D01*
X195817Y296155D01*
X191818Y299487D02*
X193151D01*
X192485D01*
Y296155D01*
X193151Y295488D01*
X193818D01*
X194484Y296155D01*
X190486Y299487D02*
Y295488D01*
X187820D01*
X183821Y298820D02*
X184487Y299487D01*
X185820D01*
X186487Y298820D01*
Y296155D01*
X185820Y295488D01*
X184487D01*
X183821Y296155D01*
X179822Y299487D02*
X181155D01*
X180489D01*
Y296155D01*
X181155Y295488D01*
X181822D01*
X182488Y296155D01*
X178489Y299487D02*
Y295488D01*
X175823D01*
X171825Y298820D02*
X172491Y299487D01*
X173824D01*
X174491Y298820D01*
Y296155D01*
X173824Y295488D01*
X172491D01*
X171825Y296155D01*
X167826Y299487D02*
X169159D01*
X168493D01*
Y296155D01*
X169159Y295488D01*
X169825D01*
X170492Y296155D01*
X166493Y299487D02*
Y295488D01*
X163827D01*
X159829Y298820D02*
X160495Y299487D01*
X161828D01*
X162495Y298820D01*
Y296155D01*
X161828Y295488D01*
X160495D01*
X159829Y296155D01*
X288018Y114386D02*
X283020D01*
Y116885D01*
X283853Y117718D01*
X287185D01*
X288018Y116885D01*
Y114386D01*
Y122716D02*
Y119384D01*
X283020D01*
Y122716D01*
X285519Y119384D02*
Y121050D01*
X287185Y127715D02*
X288018Y126882D01*
Y125216D01*
X287185Y124383D01*
X286352D01*
X285519Y125216D01*
Y126882D01*
X284686Y127715D01*
X283853D01*
X283020Y126882D01*
Y125216D01*
X283853Y124383D01*
X288018Y129381D02*
Y131047D01*
Y130214D01*
X283020D01*
Y129381D01*
Y131047D01*
X287185Y136879D02*
X288018Y136046D01*
Y134379D01*
X287185Y133546D01*
X283853D01*
X283020Y134379D01*
Y136046D01*
X283853Y136879D01*
X285519D01*
Y135212D01*
X283020Y138545D02*
X288018D01*
X283020Y141877D01*
X288018D01*
Y146875D02*
Y143543D01*
X283020D01*
Y146875D01*
X285519Y143543D02*
Y145209D01*
X288018Y148541D02*
X283020D01*
Y151041D01*
X283853Y151874D01*
X287185D01*
X288018Y151041D01*
Y148541D01*
Y161871D02*
Y158538D01*
X285519D01*
Y160204D01*
Y158538D01*
X283020D01*
X288018Y166036D02*
Y164370D01*
X287185Y163537D01*
X283853D01*
X283020Y164370D01*
Y166036D01*
X283853Y166869D01*
X287185D01*
X288018Y166036D01*
X283020Y168535D02*
X288018D01*
Y171034D01*
X287185Y171867D01*
X285519D01*
X284686Y171034D01*
Y168535D01*
Y170201D02*
X283020Y171867D01*
X288018Y178532D02*
Y181864D01*
Y180198D01*
X283020D01*
X288018Y183530D02*
X283020D01*
X285519D01*
Y186862D01*
X288018D01*
X283020D01*
X288018Y191861D02*
Y188529D01*
X283020D01*
Y191861D01*
X285519Y188529D02*
Y190195D01*
X288018Y198525D02*
X283853D01*
X283020Y199358D01*
Y201024D01*
X283853Y201857D01*
X288018D01*
X283020Y203524D02*
X288018D01*
X283020Y206856D01*
X288018D01*
Y208522D02*
Y210188D01*
Y209355D01*
X283020D01*
Y208522D01*
Y210188D01*
X288018Y212687D02*
X284686D01*
X283020Y214353D01*
X284686Y216020D01*
X288018D01*
Y221018D02*
Y217686D01*
X283020D01*
Y221018D01*
X285519Y217686D02*
Y219352D01*
X283020Y222684D02*
X288018D01*
Y225183D01*
X287185Y226016D01*
X285519D01*
X284686Y225183D01*
Y222684D01*
Y224350D02*
X283020Y226016D01*
X287185Y231015D02*
X288018Y230182D01*
Y228516D01*
X287185Y227682D01*
X286352D01*
X285519Y228516D01*
Y230182D01*
X284686Y231015D01*
X283853D01*
X283020Y230182D01*
Y228516D01*
X283853Y227682D01*
X288018Y232681D02*
Y234347D01*
Y233514D01*
X283020D01*
Y232681D01*
Y234347D01*
X288018Y236846D02*
Y240178D01*
Y238512D01*
X283020D01*
X288018Y241845D02*
X287185D01*
X285519Y243511D01*
X287185Y245177D01*
X288018D01*
X285519Y243511D02*
X283020D01*
X288018Y254341D02*
Y252674D01*
X287185Y251841D01*
X283853D01*
X283020Y252674D01*
Y254341D01*
X283853Y255173D01*
X287185D01*
X288018Y254341D01*
Y260172D02*
Y256840D01*
X285519D01*
Y258506D01*
Y256840D01*
X283020D01*
X279620Y114386D02*
X275455D01*
X274622Y115219D01*
Y116885D01*
X275455Y117718D01*
X279620D01*
Y119384D02*
Y122716D01*
Y121050D01*
X274622D01*
Y124383D02*
X277954D01*
X279620Y126049D01*
X277954Y127715D01*
X274622D01*
X277121D01*
Y124383D01*
X279620Y129381D02*
X274622D01*
X277121D01*
Y132713D01*
X279620D01*
X274622D01*
X279620Y139378D02*
Y141044D01*
Y140211D01*
X274622D01*
Y139378D01*
Y141044D01*
X279620Y146875D02*
Y143543D01*
X274622D01*
Y146875D01*
X277121Y143543D02*
Y145209D01*
X279620Y151874D02*
Y148541D01*
X274622D01*
Y151874D01*
X277121Y148541D02*
Y150208D01*
X279620Y156872D02*
Y153540D01*
X274622D01*
Y156872D01*
X277121Y153540D02*
Y155206D01*
X279620Y163537D02*
X274622Y166869D01*
X279620D02*
X274622Y163537D01*
X279620Y176866D02*
Y173533D01*
X277121D01*
Y175199D01*
Y173533D01*
X274622D01*
X278787Y181864D02*
X279620Y181031D01*
Y179365D01*
X278787Y178532D01*
X277954D01*
X277121Y179365D01*
Y181031D01*
X276288Y181864D01*
X275455D01*
X274622Y181031D01*
Y179365D01*
X275455Y178532D01*
X274622Y183530D02*
X277954D01*
X279620Y185196D01*
X277954Y186862D01*
X274622D01*
X277121D01*
Y183530D01*
X279620Y191861D02*
Y188529D01*
X274622D01*
Y191861D01*
X277121Y188529D02*
Y190195D01*
X274622Y198525D02*
X277954D01*
X279620Y200191D01*
X277954Y201857D01*
X274622D01*
X277121D01*
Y198525D01*
X279620Y203524D02*
X274622D01*
Y206856D01*
X279620Y208522D02*
Y211854D01*
Y210188D01*
X274622D01*
X279620Y213520D02*
Y215187D01*
Y214353D01*
X274622D01*
Y213520D01*
Y215187D01*
X279620Y217686D02*
X275455D01*
X274622Y218519D01*
Y220185D01*
X275455Y221018D01*
X279620D01*
X274622Y222684D02*
X279620D01*
X277954Y224350D01*
X279620Y226016D01*
X274622D01*
X279620Y232681D02*
X274622D01*
X276288Y234347D01*
X274622Y236013D01*
X279620D01*
Y240178D02*
Y238512D01*
X278787Y237679D01*
X275455D01*
X274622Y238512D01*
Y240178D01*
X275455Y241012D01*
X278787D01*
X279620Y240178D01*
X274622Y242678D02*
X279620D01*
Y245177D01*
X278787Y246010D01*
X277121D01*
X276288Y245177D01*
Y242678D01*
Y244344D02*
X274622Y246010D01*
X279620Y247676D02*
X274622D01*
X276288D01*
X279620Y251008D01*
X277121Y248509D01*
X274622Y251008D01*
X278787Y256007D02*
X279620Y255173D01*
Y253507D01*
X278787Y252674D01*
X277954D01*
X277121Y253507D01*
Y255173D01*
X276288Y256007D01*
X275455D01*
X274622Y255173D01*
Y253507D01*
X275455Y252674D01*
X279620Y257673D02*
X274622D01*
X277121D01*
Y261005D01*
X279620D01*
X274622D01*
X279620Y265170D02*
Y263504D01*
X278787Y262671D01*
X275455D01*
X274622Y263504D01*
Y265170D01*
X275455Y266003D01*
X278787D01*
X279620Y265170D01*
X274622Y267670D02*
X279620D01*
Y270169D01*
X278787Y271002D01*
X277121D01*
X276288Y270169D01*
Y267670D01*
X113263Y170946D02*
X113930Y171613D01*
X115263D01*
X115929Y170946D01*
Y168281D01*
X115263Y167614D01*
X113930D01*
X113263Y168281D01*
Y169614D01*
X114596D01*
X119866Y200243D02*
X117200D01*
X118533Y201576D02*
Y198910D01*
X115867Y202243D02*
Y198244D01*
X113868D01*
X113202Y198910D01*
Y199577D01*
X113868Y200243D01*
X115867D01*
X113868D01*
X113202Y200910D01*
Y201576D01*
X113868Y202243D01*
X115867D01*
X113263Y190946D02*
X113930Y191613D01*
X115263D01*
X115929Y190946D01*
Y188281D01*
X115263Y187614D01*
X113930D01*
X113263Y188281D01*
Y189613D01*
X114596D01*
X113263Y210946D02*
X113930Y211613D01*
X115263D01*
X115929Y210946D01*
Y208281D01*
X115263Y207614D01*
X113930D01*
X113263Y208281D01*
Y209613D01*
X114596D01*
X113263Y220946D02*
X113930Y221613D01*
X115263D01*
X115929Y220946D01*
Y218281D01*
X115263Y217614D01*
X113930D01*
X113263Y218281D01*
Y219614D01*
X114596D01*
X113263Y240946D02*
X113930Y241613D01*
X115263D01*
X115929Y240946D01*
Y238281D01*
X115263Y237614D01*
X113930D01*
X113263Y238281D01*
Y239614D01*
X114596D01*
X131283Y229377D02*
X128618D01*
X129951Y230710D02*
Y228044D01*
X127285Y230710D02*
X126618Y231377D01*
X125285D01*
X124619Y230710D01*
Y230044D01*
X125285Y229377D01*
X125952D01*
X125285D01*
X124619Y228711D01*
Y228044D01*
X125285Y227378D01*
X126618D01*
X127285Y228044D01*
X123286Y227378D02*
Y228044D01*
X122620D01*
Y227378D01*
X123286D01*
X119954Y230710D02*
X119287Y231377D01*
X117954D01*
X117288Y230710D01*
Y230044D01*
X117954Y229377D01*
X118621D01*
X117954D01*
X117288Y228711D01*
Y228044D01*
X117954Y227378D01*
X119287D01*
X119954Y228044D01*
X115955Y231377D02*
Y228711D01*
X114622Y227378D01*
X113289Y228711D01*
Y231377D01*
X119866Y180165D02*
X117200D01*
X118533Y181498D02*
Y178832D01*
X115867Y178165D02*
Y180831D01*
X114534Y182164D01*
X113202Y180831D01*
Y178165D01*
Y180165D01*
X115867D01*
D58*
X390938Y132150D02*
Y125591D01*
X381099D01*
Y132150D01*
X386018Y125591D02*
Y128870D01*
X389298Y141990D02*
X390938Y140350D01*
Y137070D01*
X389298Y135430D01*
X387658D01*
X386018Y137070D01*
Y140350D01*
X384378Y141990D01*
X382738D01*
X381099Y140350D01*
Y137070D01*
X382738Y135430D01*
X381099Y145269D02*
X390938D01*
Y150189D01*
X389298Y151829D01*
X386018D01*
X384378Y150189D01*
Y145269D01*
X389298Y155109D02*
X390938Y156748D01*
Y160028D01*
X389298Y161668D01*
X387658D01*
X386018Y160028D01*
Y158388D01*
Y160028D01*
X384378Y161668D01*
X382738D01*
X381099Y160028D01*
Y156748D01*
X382738Y155109D01*
X381099Y171508D02*
Y164948D01*
X387658Y171508D01*
X389298D01*
X390938Y169868D01*
Y166588D01*
X389298Y164948D01*
X390938Y184627D02*
X381099D01*
Y191186D01*
X390938Y201026D02*
Y194466D01*
X381099D01*
Y201026D01*
X386018Y194466D02*
Y197746D01*
X390938Y204305D02*
X381099D01*
Y209225D01*
X382738Y210865D01*
X389298D01*
X390938Y209225D01*
Y204305D01*
X381099Y223984D02*
X390938D01*
X387658Y227264D01*
X390938Y230543D01*
X381099D01*
Y233823D02*
X387658D01*
X390938Y237103D01*
X387658Y240383D01*
X381099D01*
X386018D01*
Y233823D01*
X390938Y243663D02*
Y250222D01*
Y246942D01*
X381099D01*
Y253502D02*
X390938D01*
Y258422D01*
X389298Y260062D01*
X386018D01*
X384378Y258422D01*
Y253502D01*
Y256782D02*
X381099Y260062D01*
X390938Y263341D02*
Y266621D01*
Y264981D01*
X381099D01*
Y263341D01*
Y266621D01*
X390938Y271541D02*
X381099Y278100D01*
X390938D02*
X381099Y271541D01*
X374406Y125591D02*
X364567D01*
Y130510D01*
X366207Y132150D01*
X367847D01*
X369487Y130510D01*
Y125591D01*
Y130510D01*
X371127Y132150D01*
X372766D01*
X374406Y130510D01*
Y125591D01*
Y140350D02*
Y137070D01*
X372766Y135430D01*
X366207D01*
X364567Y137070D01*
Y140350D01*
X366207Y141990D01*
X372766D01*
X374406Y140350D01*
X364567Y145269D02*
X371127D01*
X374406Y148549D01*
X371127Y151829D01*
X364567D01*
X369487D01*
Y145269D01*
X364567Y155109D02*
X374406D01*
Y160028D01*
X372766Y161668D01*
X369487D01*
X367847Y160028D01*
Y155109D01*
Y158388D02*
X364567Y161668D01*
X374406Y164948D02*
X364567D01*
Y169868D01*
X366207Y171508D01*
X372766D01*
X374406Y169868D01*
Y164948D01*
Y184627D02*
X367847D01*
X364567Y187906D01*
X367847Y191186D01*
X374406D01*
X364567Y194466D02*
Y197746D01*
Y196106D01*
X374406D01*
X372766Y194466D01*
X364567Y202665D02*
X366207D01*
Y204305D01*
X364567D01*
Y202665D01*
X372766Y210865D02*
X374406Y212505D01*
Y215785D01*
X372766Y217424D01*
X366207D01*
X364567Y215785D01*
Y212505D01*
X366207Y210865D01*
X372766D01*
D68*
X298031Y114961D02*
X391732D01*
D69*
X306140Y131862D02*
Y130026D01*
Y130944D01*
X301548D01*
X300630Y130026D01*
Y129107D01*
X301548Y128189D01*
X300630Y133699D02*
X304303D01*
X306140Y135536D01*
X304303Y137372D01*
X300630D01*
X303385D01*
Y133699D01*
X300630Y139209D02*
X306140D01*
X300630Y142882D01*
X306140D01*
Y144719D02*
X301548D01*
X300630Y145637D01*
Y147474D01*
X301548Y148392D01*
X306140D01*
X300630Y150229D02*
X304303D01*
X306140Y152066D01*
X304303Y153902D01*
X300630D01*
X303385D01*
Y150229D01*
X300630Y155739D02*
X306140D01*
Y158494D01*
X305222Y159413D01*
X303385D01*
X302467Y158494D01*
Y155739D01*
Y157576D02*
X300630Y159413D01*
X306140Y161249D02*
X305222D01*
X303385Y163086D01*
X305222Y164922D01*
X306140D01*
X303385Y163086D02*
X300630D01*
Y175943D02*
Y172269D01*
X304303Y175943D01*
X305222D01*
X306140Y175024D01*
Y173187D01*
X305222Y172269D01*
Y177779D02*
X306140Y178698D01*
Y180534D01*
X305222Y181453D01*
X301548D01*
X300630Y180534D01*
Y178698D01*
X301548Y177779D01*
X305222D01*
X300630Y186963D02*
Y183289D01*
X304303Y186963D01*
X305222D01*
X306140Y186044D01*
Y184208D01*
X305222Y183289D01*
X306140Y192473D02*
Y188799D01*
X303385D01*
X304303Y190636D01*
Y191554D01*
X303385Y192473D01*
X301548D01*
X300630Y191554D01*
Y189718D01*
X301548Y188799D01*
M02*
