M48
;Layer_Color=9474304
;FILE_FORMAT=2:4
INCH,TZ
;TYPE=PLATED
T01F00S00C0.0138
T03F00S00C0.0248
T04F00S00C0.0453
T05F00S00C0.1400
%
T01
X13189Y10827
X13780
X14075Y11417
X13484
X13189Y12008
X12894Y12598
X14075
X14665
X14370Y13189
X13780
X14370Y12008
X12008Y13189
X11417
X10827
X11122Y13780
X11713
X11417Y14370
X10827
X11122Y14961
X11713
X11417Y15551
X10827
X12598
Y14370
X14961Y15551
X17913
X18504
X19094
X19685
X20276
X20571Y14961
X21161
X21752
X22343
X22933
X23524
X23228Y14370
X22638
X22047
X21457
X20866
X20276
X19685
X19094
X18504
X17913
X18209Y14961
X18799
X19390
X19980
Y13780
X20571
X21161
X21752
X22343
X22933
X23524
X23780Y14016
X23228Y15551
X22638
X19390Y13780
X18799
X18209
X17913Y13189
X17028Y12598
X25551Y11417
X27165Y10906
X27244Y10315
X27638
X28031
X27913Y12835
X27913Y13617
X29882Y14722
X29882Y15315
X29724Y12047
Y11417
X31220Y11063
X31654
X31913Y11355
X32165Y11654
X32598
X33031
X33661Y11260
X34213
X35228Y11378
X35709
X36142
X36614
X37126Y11142
X37520
X37913
X38307
X38878Y11417
X39468
X39173Y12008
X38583
X37992
X38287Y12598
X38878
X39468
X39173Y13189
X39764
X40354
X40945
X41535
X42126
X42421Y13780
Y14961
X40945Y14961
Y13819
X39567
Y14961
X38189Y14961
Y13819
X38583Y13189
X37126Y12441
X36772
X36811Y13819
Y14961
X35433
Y13819
X35748Y13543
X34094Y13819
Y14961
X32717
Y13819
X31339Y13819
Y14961
X39173Y10827
X39764
X42421Y11417
Y12598
Y16142
Y17323
Y18504
Y19685
Y20866
Y22047
Y23228
Y24409
Y25591
Y26772
Y27953
Y29134
Y30315
X41831
X41240
X40650
X40059
X39468
X38878
X38287
X37697
X37106
X36516
X35925
X36811Y29724
X37402
X37697Y29134
X38287
X38583Y29724
X39173
X39764
X39468Y29134
X39567Y26339
Y25197
Y24055
Y22913
Y21772
Y20630
Y19488
Y18346
Y17205
Y16102
X40945
Y17205
Y18346
Y19488
Y20630
Y21772
Y22913
Y24055
Y25197
Y26339
X38189Y26339
Y25197
Y24055
Y22913
Y21772
Y20630
Y19488
Y18346
Y17205
Y16102
X36811
Y17205
Y18346
Y19488
Y20630
Y21772
Y22913
Y24055
Y25197
Y26339
X35433
Y25197
Y24055
Y22913
Y21772
Y20630
Y19488
Y18346
Y17205
Y16102
X34094
Y17205
Y18346
Y19488
Y20630
Y21772
Y22913
Y24055
Y25197
Y26339
X32717
Y25197
Y24055
Y22913
Y21772
Y20630
Y19488
Y18346
Y17205
Y16102
X31339Y16102
Y17205
Y18346
Y19488
Y20630
Y21772
Y22913
Y24055
Y25197
Y26339
X31791Y27953
X31945Y28646
X31514Y28644
X31496Y29724
X31791Y30315
X32382
X32972
X33563
X34488Y29488
X34646Y28780
X33858Y28543
X32126Y29409
X30905Y29724
X30315
X29724
X29134
X28543
X27953
X27362
X26772
X27067Y30315
X27657
X28248
X28839
X29429
X30020
X30610
X31201
Y27953
X30020
X29883Y26889
X29883Y26141
X30905Y26181
X29882Y23937
X29882Y23189
X29921Y20984
X29921Y20236
X29843Y18032
X29843Y17283
X27913Y16575
Y15787
X27912Y18740
X27913Y19528
X27913Y21693
Y22480
Y24646
Y25433
X26772Y26181
X26476Y26772
X25886
X25591Y27362
X26181
X26476Y27953
Y29134
Y30315
X25886
X25295
X24705
X24114
X23524
X22933
X22343
X21752
X21161
X20571
X19980
X19390
X18799
X18209
X17618
X17028
X16437
X15846
X16142Y29724
X16732
X17323
X17618Y29134
X18209
X18740Y29016
X19055
X19370
Y28701
X19055
X18740
X17913Y28543
X17323
X16732
X16142
X16437Y29134
X17028
X15846
X16142Y27362
X16732
X17323
X17028Y26772
X16437
X15846
X16142Y26181
X16732
X17323
X17913
X18504
X18819Y26732
X19134
X19449
Y27047
X19134
X18819
X18110Y27480
X19980Y27953
X19685Y28543
X20276
X20866
X21161Y29134
X20571
X19980
X19685Y29724
X20276
X19094
X19370Y26142
Y25551
X18799Y24409
X18209
X17618
X17028
X16437
X15846
X16732Y23819
X17913
X19685
X20866
X20591Y24370
X21161Y24409
X21457Y25000
X22047
X22638
X23228
X23819
X24409
X25000
X25591
X26181
X26476Y24409
X25886
X25295
X24705
X24114
X23524
X22933
X22343
Y25591
X22933
X23524
X24114
X24705
X25295
X25886
X25591Y23819
X25000
X22205Y26142
X22047Y27362
X21457
X20866
X21161Y26772
X23524Y29134
X24114
X24705
X25295
X25000Y29724
X24409
X23819
X23228
X27913Y28386
Y27598
X23228Y19094
X22638
X22047
X21457
X20866
X20276
X19685
X19094
X18504
X17913
X18209Y18504
X18799
X19390
X19980
X20571
X21161
X21752
X22343
X22933
X23524
X23228Y17913
X22638
X22047
X21457
X20866
X20276
X19685
X19094
X18504
X17913
X18209Y17323
X18799
X19390
X19980
X20571
X21161
X21752
X22343
X22933
X23524
X23228Y16732
X22638
X22933Y16142
X23524
X19980
X19390
X18799
X18209
X17913Y16732
X18504
X19094
X19685
X20276
X14370
X14665Y17323
X14370Y17913
X14665Y18504
X14075
X14370Y19094
X14665Y19685
X14370Y20276
X14665Y20866
X14075
X14370Y21457
X14961
X14665Y22047
X14370Y22638
X14075Y23228
Y24409
X15256
X14961Y23819
X15551
Y26181
X14961
X14370
X13780
Y27362
X14370
X14961
X15551
X15256Y26772
X14961Y28543
X15551
X15256Y29134
X14665
X14075
X14370Y28543
X14665Y30315
X15256
X15551Y29724
X14075Y30315
X12894
X12303
X11122
X10827Y27362
X11417
X12008
X12598
X12894Y27953
Y26772
X12303
X11713
X11122
X10827Y26181
X11417
X12008
X12598
X12894Y25591
X12303
X11713
X11122
X10827Y25000
X11417
X11457Y23071
X11417Y22638
X11713Y22047
X11417Y21457
X11713Y20866
X11417Y20276
X11713Y19685
X11417Y19094
X11713Y18504
X12303
X12894
X12598Y17913
X13189
X12894Y17323
X12598Y16732
X11417
X11713Y16142
X11122
X12008Y17913
X12894Y20866
X12362Y23110
X11929
X14665Y16142
T03
X37032Y28921
X39032
X38031Y29921
T04
X15315Y10984
Y11984
Y12984
Y13984
Y14984
X13661Y15079
Y14079
X26299Y13984
Y12984
Y11984
Y10984
Y14984
Y15984
Y16984
Y17984
Y18984
Y19984
Y20984
Y21984
X26276Y23346
X25276
X24276
X23276
X22276
X21276
X20276
X19276
X18276
X17276
X16276
X15276
X15315Y21984
Y20984
Y19984
Y18984
Y17984
Y16984
Y15984
X13661Y16079
Y17079
X13661Y19236
Y20236
Y21236
Y22236
X12362
Y21236
Y20236
Y19236
X10827Y18992
Y17992
Y16992
Y19992
Y20992
Y21992
Y22992
Y23992
T05
X11693Y11693
X40984
Y28898
X11693
M30
