G04*
G04 #@! TF.GenerationSoftware,Altium Limited,Altium Designer,25.1.2 (22)*
G04*
G04 Layer_Color=16711935*
%FSLAX25Y25*%
%MOIN*%
G70*
G04*
G04 #@! TF.SameCoordinates,9731B79D-0BF3-49C4-8AD9-4CBC44B71680*
G04*
G04*
G04 #@! TF.FilePolarity,Negative*
G04*
G01*
G75*
%ADD50C,0.05347*%
%ADD51R,0.05347X0.05347*%
%ADD52O,0.05131X0.09068*%
%ADD53O,0.05131X0.11036*%
%ADD54C,0.07591*%
%ADD55R,0.07591X0.07591*%
%ADD56R,0.07591X0.07591*%
%ADD57C,0.25800*%
D50*
X390315Y289213D02*
D03*
X380315Y299213D02*
D03*
D51*
X370315Y289213D02*
D03*
D52*
X259520Y281626D02*
D03*
X225520D02*
D03*
D53*
X259528Y295276D02*
D03*
X225512D02*
D03*
D54*
X136614Y140787D02*
D03*
Y150787D02*
D03*
Y160787D02*
D03*
X136614Y222362D02*
D03*
Y212362D02*
D03*
Y202362D02*
D03*
X152756Y233465D02*
D03*
X162756D02*
D03*
X172756D02*
D03*
X182756D02*
D03*
X192756D02*
D03*
X202756D02*
D03*
X232756D02*
D03*
X242756D02*
D03*
X252756D02*
D03*
X212756D02*
D03*
X222756D02*
D03*
X153150Y219843D02*
D03*
Y209842D02*
D03*
Y199843D02*
D03*
Y189842D02*
D03*
Y179842D02*
D03*
Y169843D02*
D03*
Y139842D02*
D03*
Y129842D02*
D03*
Y119843D02*
D03*
Y159843D02*
D03*
Y149843D02*
D03*
X262992Y219843D02*
D03*
Y209842D02*
D03*
Y199843D02*
D03*
Y189842D02*
D03*
Y179842D02*
D03*
Y169843D02*
D03*
Y139842D02*
D03*
Y129842D02*
D03*
Y119843D02*
D03*
Y159843D02*
D03*
Y149843D02*
D03*
X123622Y202362D02*
D03*
Y212362D02*
D03*
Y222362D02*
D03*
X108268Y209921D02*
D03*
Y219921D02*
D03*
Y179921D02*
D03*
Y189921D02*
D03*
Y199921D02*
D03*
Y229921D02*
D03*
Y239921D02*
D03*
D55*
X136614Y170787D02*
D03*
X136614Y192362D02*
D03*
X153150Y109843D02*
D03*
X262992D02*
D03*
X123622Y192362D02*
D03*
X108268Y169921D02*
D03*
D56*
X262756Y233465D02*
D03*
D57*
X409842Y288976D02*
D03*
Y116929D02*
D03*
X116929D02*
D03*
Y288976D02*
D03*
M02*
