G04*
G04 #@! TF.GenerationSoftware,Altium Limited,Altium Designer,25.1.2 (22)*
G04*
G04 Layer_Color=65535*
%FSLAX25Y25*%
%MOIN*%
G70*
G04*
G04 #@! TF.SameCoordinates,9731B79D-0BF3-49C4-8AD9-4CBC44B71680*
G04*
G04*
G04 #@! TF.FilePolarity,Positive*
G04*
G01*
G75*
%ADD10C,0.00394*%
%ADD11C,0.00787*%
%ADD12C,0.01181*%
%ADD13C,0.01575*%
%ADD14C,0.01002*%
%ADD15C,0.01000*%
D10*
X247957Y129528D02*
G03*
X247563Y129528I-197J0D01*
G01*
D02*
G03*
X247957Y129528I197J0D01*
G01*
X363386Y289213D02*
X362992D01*
X363386D01*
X138976Y268701D02*
G03*
X139370Y268701I197J0D01*
G01*
D02*
G03*
X138976Y268701I-197J0D01*
G01*
Y298228D02*
G03*
X139370Y298228I197J0D01*
G01*
D02*
G03*
X138976Y298228I-197J0D01*
G01*
X256520Y275126D02*
G03*
X256520Y275520I0J197D01*
G01*
D02*
G03*
X256520Y275126I0J-197D01*
G01*
D11*
X395315Y289213D02*
G03*
X395315Y289213I-15000J0D01*
G01*
X172760Y100591D02*
Y123228D01*
Y100591D02*
X243626D01*
Y123228D01*
X295768Y137539D02*
X301083D01*
X311811Y272835D02*
X419685D01*
X311811D02*
X311811Y134646D01*
X419685D01*
Y272835D01*
X325787Y297835D02*
X331496D01*
X332874Y276772D02*
Y296457D01*
Y276772D02*
X347441D01*
Y296457D01*
X332874D02*
X347441D01*
X348425Y298721D02*
Y302854D01*
X357382Y292913D02*
X361516D01*
X122539Y240551D02*
X124705D01*
Y232677D02*
Y240551D01*
X122539Y232677D02*
X124705D01*
X122539D02*
Y240551D01*
X117421Y241437D02*
X121161D01*
X123622Y243602D02*
Y247736D01*
X137795Y235728D02*
Y239862D01*
X132579Y296063D02*
X136713D01*
X132579Y282677D02*
X136713D01*
X151575Y248031D02*
Y271654D01*
Y248031D02*
X175197D01*
Y271654D01*
X151575D02*
X175197D01*
X151575Y277559D02*
Y301181D01*
Y277559D02*
X175197D01*
Y301181D01*
X151575D02*
X175197D01*
X213386Y295177D02*
Y299311D01*
X197039Y265937D02*
X210835D01*
X197039D02*
Y291543D01*
X210835D01*
Y265937D02*
Y291543D01*
X214075Y266476D02*
X219783D01*
X202461Y262598D02*
X204626D01*
Y254724D02*
Y262598D01*
X202461Y254724D02*
X204626D01*
X202461D02*
Y262598D01*
X197343Y263484D02*
X201083D01*
X213287Y258661D02*
X217421D01*
X248327Y268110D02*
X252461D01*
X236516D02*
X240650D01*
X228248Y268504D02*
X232382D01*
X279921Y281791D02*
Y285925D01*
X279921Y273917D02*
Y278051D01*
X288878Y279134D02*
X293012D01*
X296161Y285177D02*
X301476D01*
X280807Y271398D02*
X286122D01*
X273524Y265354D02*
X277658D01*
X279921Y252264D02*
Y256398D01*
X288878Y249606D02*
X293012D01*
X279921Y244390D02*
Y248524D01*
X273524Y235827D02*
X277658D01*
X296161Y255650D02*
X301476D01*
X280807Y241870D02*
X286122D01*
X279921Y222736D02*
Y226870D01*
X288484Y220079D02*
X292618D01*
X279921Y214862D02*
Y218996D01*
X273524Y206299D02*
X277658D01*
X260118Y300787D02*
Y305512D01*
X224921D02*
X260118D01*
X224921Y300787D02*
Y305512D01*
X142008Y135197D02*
Y170787D01*
X131220Y135197D02*
X142008D01*
X131220D02*
Y176378D01*
X136614D01*
X131220Y192362D02*
Y227953D01*
X142008D01*
Y186772D02*
Y227953D01*
X136614Y186772D02*
X142008D01*
X295768Y226122D02*
X301083D01*
X280807Y212343D02*
X286122D01*
X279921Y185335D02*
Y189469D01*
Y193209D02*
Y197343D01*
X288878Y190551D02*
X293012D01*
X296161Y196595D02*
X301476D01*
X280807Y182815D02*
X286122D01*
X273524Y176772D02*
X277658D01*
X279921Y163681D02*
Y167815D01*
X288878Y161024D02*
X293012D01*
X295374Y167067D02*
X300689D01*
X280807Y153287D02*
X286122D01*
X279921Y155807D02*
Y159941D01*
X273524Y147244D02*
X277658D01*
X288878Y131496D02*
X293012D01*
X279921Y134153D02*
Y138287D01*
Y126279D02*
Y130413D01*
X280807Y123760D02*
X286122D01*
X273524Y117717D02*
X277658D01*
X360236Y110827D02*
Y125394D01*
X379921D01*
Y110827D02*
Y125394D01*
X360236Y110827D02*
X379921D01*
X358858Y103740D02*
Y109449D01*
X352362Y127854D02*
Y131988D01*
X320099Y111130D02*
Y125697D01*
X339784D01*
Y111130D02*
Y125697D01*
X320099Y111130D02*
X339784D01*
X318721Y104043D02*
Y109752D01*
X312894Y126378D02*
X317028D01*
X247146Y118898D02*
X251279D01*
X147756Y238858D02*
X268256Y238858D01*
X147756Y228071D02*
X268256Y228071D01*
X268347Y233465D02*
Y238858D01*
X147756Y230768D02*
Y236161D01*
Y228071D02*
Y230768D01*
Y236161D02*
Y238858D01*
X158543Y224843D02*
X158543Y104342D01*
X147756Y224843D02*
X147756Y104342D01*
X153150Y104252D02*
X158543D01*
X150453Y224843D02*
X155847D01*
X147756D02*
X150453D01*
X155847D02*
X158543D01*
X268386D02*
X268386Y104342D01*
X257598Y224843D02*
X257598Y104342D01*
X262992Y104252D02*
X268386D01*
X260295Y224843D02*
X265689D01*
X257598D02*
X260295D01*
X265689D02*
X268386D01*
X123622Y186772D02*
X129016D01*
Y227953D01*
X118228D02*
X129016D01*
X118228Y192362D02*
Y227953D01*
X108268Y164331D02*
X113661D01*
X102874Y169921D02*
Y245421D01*
X113661Y164331D02*
Y245421D01*
X102874D02*
X113661D01*
X413129Y270666D02*
X418697Y265098D01*
X409649Y267186D02*
X416539Y260296D01*
X413129Y259248D02*
X418697Y253680D01*
X409649Y255768D02*
X416539Y248878D01*
X413129Y247831D02*
X418697Y242263D01*
X409649Y244351D02*
X416539Y237461D01*
X413129Y236414D02*
X418697Y230846D01*
X409649Y232934D02*
X416539Y226044D01*
X413129Y224996D02*
X418697Y219428D01*
X409649Y221516D02*
X416539Y214626D01*
X413129Y213579D02*
X418697Y208011D01*
X409649Y210099D02*
X416539Y203209D01*
X413129Y202162D02*
X418697Y196594D01*
X409649Y198682D02*
X416539Y191792D01*
X413129Y190744D02*
X418697Y185177D01*
X409649Y187264D02*
X416539Y180374D01*
X413129Y179327D02*
X418697Y173759D01*
X409649Y175847D02*
X416539Y168957D01*
X413129Y168303D02*
X418697Y162736D01*
X409649Y164823D02*
X416539Y157933D01*
X413129Y156886D02*
X418697Y151318D01*
X409649Y153406D02*
X416539Y146516D01*
X413129Y145469D02*
X418697Y139901D01*
X409649Y141989D02*
X416539Y135099D01*
X399350Y270666D02*
X404917Y265098D01*
X395870Y267186D02*
X402760Y260296D01*
X399350Y259284D02*
X404917Y253716D01*
X395870Y255804D02*
X402760Y248914D01*
X399350Y247902D02*
X404917Y242335D01*
X395870Y244423D02*
X402760Y237532D01*
X399350Y236521D02*
X404917Y230953D01*
X395870Y233041D02*
X402760Y226151D01*
X399350Y225139D02*
X404917Y219572D01*
X395870Y221659D02*
X402760Y214769D01*
X399350Y213758D02*
X404917Y208190D01*
X395870Y210278D02*
X402760Y203388D01*
X399350Y202376D02*
X404917Y196809D01*
X395870Y198897D02*
X402760Y192006D01*
X399350Y190995D02*
X404917Y185427D01*
X395870Y187515D02*
X402760Y180625D01*
X399350Y179613D02*
X404917Y174046D01*
X395870Y176133D02*
X402760Y169243D01*
X399350Y168232D02*
X404917Y162664D01*
X395870Y164752D02*
X402760Y157862D01*
X399350Y156850D02*
X404917Y151282D01*
X395870Y153370D02*
X402760Y146480D01*
X399350Y145469D02*
X404917Y139901D01*
X395870Y141989D02*
X402760Y135099D01*
X385570Y270666D02*
X391138Y265098D01*
X382090Y267186D02*
X388981Y260296D01*
X385570Y259284D02*
X391138Y253716D01*
X382090Y255804D02*
X388981Y248914D01*
X385570Y247902D02*
X391138Y242335D01*
X382090Y244423D02*
X388981Y237532D01*
X385570Y236521D02*
X391138Y230953D01*
X382090Y233041D02*
X388981Y226151D01*
X385570Y225139D02*
X391138Y219572D01*
X382090Y221660D02*
X388981Y214769D01*
X385570Y213758D02*
X391138Y208190D01*
X382090Y210278D02*
X388981Y203388D01*
X385570Y202376D02*
X391138Y196809D01*
X382090Y198897D02*
X388981Y192006D01*
X385570Y190995D02*
X391138Y185427D01*
X382090Y187515D02*
X388981Y180625D01*
X385570Y179613D02*
X391138Y174046D01*
X382090Y176133D02*
X388981Y169243D01*
X385570Y168232D02*
X391138Y162664D01*
X382090Y164752D02*
X388981Y157862D01*
X385570Y156850D02*
X391138Y151283D01*
X382090Y153370D02*
X388981Y146480D01*
X385570Y145469D02*
X391138Y139901D01*
X382090Y141989D02*
X388981Y135099D01*
X371791Y270666D02*
X377358Y265098D01*
X368311Y267186D02*
X375201Y260296D01*
X371791Y259284D02*
X377358Y253716D01*
X368311Y255804D02*
X375201Y248914D01*
X371791Y247902D02*
X377358Y242335D01*
X368311Y244423D02*
X375201Y237532D01*
X371791Y236521D02*
X377358Y230953D01*
X368311Y233041D02*
X375201Y226151D01*
X371791Y225139D02*
X377358Y219572D01*
X368311Y221660D02*
X375201Y214769D01*
X371791Y213758D02*
X377358Y208190D01*
X368311Y210278D02*
X375201Y203388D01*
X371791Y202376D02*
X377358Y196809D01*
X368311Y198897D02*
X375201Y192006D01*
X371791Y190995D02*
X377358Y185427D01*
X368311Y187515D02*
X375201Y180625D01*
X371791Y179613D02*
X377358Y174046D01*
X368311Y176133D02*
X375201Y169243D01*
X371791Y168232D02*
X377358Y162664D01*
X368311Y164752D02*
X375201Y157862D01*
X371791Y156850D02*
X377358Y151283D01*
X368311Y153370D02*
X375201Y146480D01*
X371791Y145469D02*
X377358Y139901D01*
X368311Y141989D02*
X375201Y135099D01*
X358011Y270666D02*
X363579Y265098D01*
X354531Y267186D02*
X361421Y260296D01*
X358011Y259284D02*
X363579Y253716D01*
X354531Y255804D02*
X361421Y248914D01*
X358011Y247902D02*
X363579Y242335D01*
X354531Y244423D02*
X361421Y237532D01*
X358011Y236521D02*
X363579Y230953D01*
X354531Y233041D02*
X361421Y226151D01*
X358011Y225139D02*
X363579Y219572D01*
X354531Y221660D02*
X361421Y214769D01*
X358011Y213758D02*
X363579Y208190D01*
X354531Y210278D02*
X361421Y203388D01*
X358011Y202376D02*
X363579Y196809D01*
X354531Y198897D02*
X361421Y192006D01*
X358011Y190995D02*
X363579Y185427D01*
X354531Y187515D02*
X361421Y180625D01*
X358011Y179613D02*
X363579Y174046D01*
X354531Y176133D02*
X361421Y169243D01*
X358011Y168232D02*
X363579Y162664D01*
X354531Y164752D02*
X361421Y157862D01*
X358011Y156850D02*
X363579Y151283D01*
X354531Y153370D02*
X361421Y146480D01*
X358011Y145469D02*
X363579Y139901D01*
X354531Y141989D02*
X361421Y135099D01*
X344625Y270666D02*
X350193Y265098D01*
X341145Y267186D02*
X348036Y260296D01*
X344625Y259284D02*
X350193Y253716D01*
X341145Y255804D02*
X348036Y248914D01*
X344625Y247902D02*
X350193Y242335D01*
X341145Y244423D02*
X348036Y237532D01*
X344625Y236521D02*
X350193Y230953D01*
X341145Y233041D02*
X348036Y226151D01*
X344625Y225139D02*
X350193Y219572D01*
X341145Y221660D02*
X348036Y214769D01*
X344625Y213758D02*
X350193Y208190D01*
X341145Y210278D02*
X348036Y203388D01*
X344625Y202376D02*
X350193Y196809D01*
X341145Y198897D02*
X348036Y192006D01*
X344625Y190995D02*
X350193Y185427D01*
X341145Y187515D02*
X348036Y180625D01*
X344625Y179613D02*
X350193Y174046D01*
X341145Y176133D02*
X348036Y169243D01*
X344625Y168232D02*
X350193Y162664D01*
X341145Y164752D02*
X348036Y157862D01*
X344625Y156850D02*
X350193Y151283D01*
X341145Y153370D02*
X348036Y146480D01*
X344625Y145469D02*
X350193Y139901D01*
X341145Y141989D02*
X348036Y135099D01*
X330846Y270666D02*
X336414Y265098D01*
X327366Y267186D02*
X334256Y260296D01*
X330846Y259284D02*
X336414Y253716D01*
X327366Y255804D02*
X334256Y248914D01*
X330846Y247902D02*
X336414Y242335D01*
X327366Y244423D02*
X334256Y237532D01*
X330846Y236521D02*
X336414Y230953D01*
X327366Y233041D02*
X334256Y226151D01*
X330846Y225139D02*
X336414Y219572D01*
X327366Y221660D02*
X334256Y214769D01*
X330846Y213758D02*
X336414Y208190D01*
X327366Y210278D02*
X334256Y203388D01*
X330846Y202376D02*
X336414Y196809D01*
X327366Y198897D02*
X334256Y192006D01*
X330846Y190995D02*
X336414Y185427D01*
X327366Y187515D02*
X334256Y180625D01*
X330846Y179613D02*
X336414Y174046D01*
X327366Y176133D02*
X334256Y169243D01*
X330846Y168232D02*
X336414Y162664D01*
X327366Y164752D02*
X334256Y157862D01*
X330846Y156850D02*
X336414Y151283D01*
X327366Y153370D02*
X334256Y146480D01*
X330846Y145469D02*
X336414Y139901D01*
X327366Y141989D02*
X334256Y135099D01*
X317066Y270666D02*
X322634Y265098D01*
X313586Y267186D02*
X320477Y260296D01*
X317066Y259642D02*
X322634Y254074D01*
X313586Y256162D02*
X320477Y249272D01*
X317066Y248225D02*
X322634Y242657D01*
X313586Y244745D02*
X320477Y237855D01*
X317066Y236807D02*
X322634Y231240D01*
X313586Y233327D02*
X320477Y226437D01*
X317066Y225390D02*
X322634Y219822D01*
X313586Y221910D02*
X320477Y215020D01*
X317066Y213973D02*
X322634Y208405D01*
X313586Y210493D02*
X320477Y203603D01*
X317066Y202555D02*
X322634Y196987D01*
X313586Y199075D02*
X320477Y192185D01*
X317066Y191138D02*
X322634Y185570D01*
X313586Y187658D02*
X320477Y180768D01*
X317066Y179721D02*
X322634Y174153D01*
X313586Y176241D02*
X320477Y169351D01*
X317066Y156886D02*
X322634Y151318D01*
X313586Y153406D02*
X320477Y146516D01*
X317066Y145469D02*
X322634Y139901D01*
X313586Y141989D02*
X320477Y135099D01*
X317066Y168303D02*
X322634Y162736D01*
X313586Y164823D02*
X320477Y157933D01*
X130319Y112991D02*
Y110039D01*
X130910Y109449D01*
X132090D01*
X132681Y110039D01*
Y112991D01*
X133861Y109449D02*
Y111810D01*
X135042Y112991D01*
X136223Y111810D01*
Y109449D01*
Y111220D01*
X133861D01*
X137404Y109449D02*
Y112991D01*
X139175D01*
X139765Y112401D01*
Y111220D01*
X139175Y110629D01*
X137404D01*
X138584D02*
X139765Y109449D01*
X140946Y112991D02*
X143307D01*
X142126D01*
Y109449D01*
X132089Y132479D02*
X132680Y133070D01*
X133861D01*
X134451Y132479D01*
Y131889D01*
X133861Y131299D01*
X133270D01*
X133861D01*
X134451Y130708D01*
Y130118D01*
X133861Y129527D01*
X132680D01*
X132089Y130118D01*
X135632Y129527D02*
Y130118D01*
X136222D01*
Y129527D01*
X135632D01*
X138583Y132479D02*
X139174Y133070D01*
X140355D01*
X140945Y132479D01*
Y131889D01*
X140355Y131299D01*
X139764D01*
X140355D01*
X140945Y130708D01*
Y130118D01*
X140355Y129527D01*
X139174D01*
X138583Y130118D01*
X134157Y118306D02*
X133566Y118896D01*
X132386D01*
X131796Y118306D01*
Y115945D01*
X132386Y115354D01*
X133566D01*
X134157Y115945D01*
Y117125D01*
X132976D01*
X135338Y115354D02*
Y118896D01*
X137699Y115354D01*
Y118896D01*
X138880D02*
Y115354D01*
X140651D01*
X141241Y115945D01*
Y118306D01*
X140651Y118896D01*
X138880D01*
X133566Y123621D02*
X135928D01*
X134747D01*
Y120079D01*
X137109Y123621D02*
X139470Y120079D01*
Y123621D02*
X137109Y120079D01*
X133566Y124803D02*
Y128345D01*
X135338D01*
X135928Y127755D01*
Y126574D01*
X135338Y125984D01*
X133566D01*
X134747D02*
X135928Y124803D01*
X137109Y128345D02*
X139470Y124803D01*
Y128345D02*
X137109Y124803D01*
X116735Y162007D02*
X117325Y162597D01*
X118506D01*
X119097Y162007D01*
Y161417D01*
X118506Y160826D01*
X117916D01*
X118506D01*
X119097Y160236D01*
Y159645D01*
X118506Y159055D01*
X117325D01*
X116735Y159645D01*
X120277Y159055D02*
Y159645D01*
X120868D01*
Y159055D01*
X120277D01*
X123229Y162007D02*
X123819Y162597D01*
X125000D01*
X125591Y162007D01*
Y161417D01*
X125000Y160826D01*
X124410D01*
X125000D01*
X125591Y160236D01*
Y159645D01*
X125000Y159055D01*
X123819D01*
X123229Y159645D01*
X119687Y137204D02*
X122048D01*
X120868Y138385D02*
Y136023D01*
X123229Y135433D02*
Y137794D01*
X124410Y138975D01*
X125591Y137794D01*
Y135433D01*
Y137204D01*
X123229D01*
X118506Y166731D02*
X117916Y167322D01*
X116735D01*
X116145Y166731D01*
Y164370D01*
X116735Y163779D01*
X117916D01*
X118506Y164370D01*
Y165551D01*
X117325D01*
X119687Y163779D02*
Y167322D01*
X122048Y163779D01*
Y167322D01*
X123229D02*
Y163779D01*
X125000D01*
X125591Y164370D01*
Y166731D01*
X125000Y167322D01*
X123229D01*
X118506Y157282D02*
X117916Y157873D01*
X116735D01*
X116145Y157282D01*
Y154921D01*
X116735Y154331D01*
X117916D01*
X118506Y154921D01*
Y156102D01*
X117325D01*
X119687Y154331D02*
Y157873D01*
X122048Y154331D01*
Y157873D01*
X123229D02*
Y154331D01*
X125000D01*
X125591Y154921D01*
Y157282D01*
X125000Y157873D01*
X123229D01*
X118506Y152558D02*
X117916Y153148D01*
X116735D01*
X116145Y152558D01*
Y150197D01*
X116735Y149606D01*
X117916D01*
X118506Y150197D01*
Y151377D01*
X117325D01*
X119687Y149606D02*
Y153148D01*
X122048Y149606D01*
Y153148D01*
X123229D02*
Y149606D01*
X125000D01*
X125591Y150197D01*
Y152558D01*
X125000Y153148D01*
X123229D01*
X118506Y143109D02*
X117916Y143700D01*
X116735D01*
X116145Y143109D01*
Y140748D01*
X116735Y140157D01*
X117916D01*
X118506Y140748D01*
Y141929D01*
X117325D01*
X119687Y140157D02*
Y143700D01*
X122048Y140157D01*
Y143700D01*
X123229D02*
Y140157D01*
X125000D01*
X125591Y140748D01*
Y143109D01*
X125000Y143700D01*
X123229D01*
X119687Y146653D02*
X122048D01*
X120868Y147834D02*
Y145472D01*
X123229Y148424D02*
Y144882D01*
X125000D01*
X125591Y145472D01*
Y146063D01*
X125000Y146653D01*
X123229D01*
X125000D01*
X125591Y147243D01*
Y147834D01*
X125000Y148424D01*
X123229D01*
X118506Y133660D02*
X117916Y134251D01*
X116735D01*
X116145Y133660D01*
Y131299D01*
X116735Y130709D01*
X117916D01*
X118506Y131299D01*
Y132480D01*
X117325D01*
X119687Y130709D02*
Y134251D01*
X122048Y130709D01*
Y134251D01*
X123229D02*
Y130709D01*
X125000D01*
X125591Y131299D01*
Y133660D01*
X125000Y134251D01*
X123229D01*
X118242Y250001D02*
Y253149D01*
X119817D01*
X120341Y252624D01*
Y251575D01*
X119817Y251050D01*
X118242D01*
X119292D02*
X120341Y250001D01*
X123490Y253149D02*
X121391D01*
Y251575D01*
X122440Y252100D01*
X122965D01*
X123490Y251575D01*
Y250525D01*
X122965Y250001D01*
X121916D01*
X121391Y250525D01*
X192500Y256915D02*
X195124D01*
X195649Y257440D01*
Y258490D01*
X195124Y259015D01*
X192500D01*
Y260064D02*
Y262163D01*
X193025D01*
X195124Y260064D01*
X195649D01*
X325723Y302362D02*
Y299738D01*
X326247Y299213D01*
X327297D01*
X327822Y299738D01*
Y302362D01*
X330970D02*
X329921Y301837D01*
X328871Y300787D01*
Y299738D01*
X329396Y299213D01*
X330446D01*
X330970Y299738D01*
Y300263D01*
X330446Y300787D01*
X328871D01*
X352494Y107873D02*
Y105250D01*
X353019Y104725D01*
X354069D01*
X354593Y105250D01*
Y107873D01*
X357742D02*
X355643D01*
Y106299D01*
X356692Y106824D01*
X357217D01*
X357742Y106299D01*
Y105250D01*
X357217Y104725D01*
X356168D01*
X355643Y105250D01*
X312337Y107873D02*
Y105250D01*
X312862Y104725D01*
X313911D01*
X314436Y105250D01*
Y107873D01*
X317060Y104725D02*
Y107873D01*
X315485Y106299D01*
X317584D01*
X190290Y289763D02*
Y287140D01*
X190814Y286615D01*
X191864D01*
X192389Y287140D01*
Y289763D01*
X193438Y289239D02*
X193963Y289763D01*
X195012D01*
X195537Y289239D01*
Y288714D01*
X195012Y288189D01*
X194488D01*
X195012D01*
X195537Y287664D01*
Y287140D01*
X195012Y286615D01*
X193963D01*
X193438Y287140D01*
X131825Y233388D02*
Y230764D01*
X132350Y230240D01*
X133399D01*
X133924Y230764D01*
Y233388D01*
X137073Y230240D02*
X134974D01*
X137073Y232339D01*
Y232863D01*
X136548Y233388D01*
X135498D01*
X134974Y232863D01*
X168504Y101444D02*
X171128D01*
X171653Y101969D01*
Y103019D01*
X171128Y103543D01*
X168504D01*
X171653Y104593D02*
Y105642D01*
Y105118D01*
X168504D01*
X169029Y104593D01*
X179003Y277821D02*
X178479Y278346D01*
X177429D01*
X176904Y277821D01*
Y277296D01*
X177429Y276772D01*
X178479D01*
X179003Y276247D01*
Y275722D01*
X178479Y275197D01*
X177429D01*
X176904Y275722D01*
X180053Y278346D02*
Y275197D01*
X181102Y276247D01*
X182152Y275197D01*
Y278346D01*
X185301Y275197D02*
X183201D01*
X185301Y277296D01*
Y277821D01*
X184776Y278346D01*
X183726D01*
X183201Y277821D01*
X179528Y293569D02*
X179003Y294094D01*
X177954D01*
X177429Y293569D01*
Y293044D01*
X177954Y292520D01*
X179003D01*
X179528Y291995D01*
Y291470D01*
X179003Y290945D01*
X177954D01*
X177429Y291470D01*
X180578Y294094D02*
Y290945D01*
X181627Y291995D01*
X182677Y290945D01*
Y294094D01*
X183726Y290945D02*
X184776D01*
X184251D01*
Y294094D01*
X183726Y293569D01*
X138978Y284646D02*
Y287795D01*
X140552D01*
X141077Y287270D01*
Y286221D01*
X140552Y285696D01*
X138978D01*
X140027D02*
X141077Y284646D01*
X142126D02*
X143176D01*
X142651D01*
Y287795D01*
X142126Y287270D01*
X146324Y284646D02*
Y287795D01*
X144750Y286221D01*
X146849D01*
X391852Y274422D02*
Y277571D01*
X393427D01*
X393952Y277046D01*
Y275997D01*
X393427Y275472D01*
X391852D01*
X392902D02*
X393952Y274422D01*
X395001Y277046D02*
X395526Y277571D01*
X396575D01*
X397100Y277046D01*
Y276521D01*
X396575Y275997D01*
X396051D01*
X396575D01*
X397100Y275472D01*
Y274947D01*
X396575Y274422D01*
X395526D01*
X395001Y274947D01*
X398150Y277046D02*
X398675Y277571D01*
X399724D01*
X400249Y277046D01*
Y274947D01*
X399724Y274422D01*
X398675D01*
X398150Y274947D01*
Y277046D01*
X360629Y277692D02*
X357481D01*
Y279266D01*
X358006Y279791D01*
X359055D01*
X359580Y279266D01*
Y277692D01*
Y278741D02*
X360629Y279791D01*
Y282939D02*
Y280840D01*
X358530Y282939D01*
X358006D01*
X357481Y282415D01*
Y281365D01*
X358006Y280840D01*
X360105Y283989D02*
X360629Y284514D01*
Y285563D01*
X360105Y286088D01*
X358006D01*
X357481Y285563D01*
Y284514D01*
X358006Y283989D01*
X358530D01*
X359055Y284514D01*
Y286088D01*
X246589Y258268D02*
Y261417D01*
X248164D01*
X248688Y260892D01*
Y259842D01*
X248164Y259318D01*
X246589D01*
X247639D02*
X248688Y258268D01*
X251837D02*
X249738D01*
X251837Y260367D01*
Y260892D01*
X251312Y261417D01*
X250263D01*
X249738Y260892D01*
X252887D02*
X253411Y261417D01*
X254461D01*
X254985Y260892D01*
Y260367D01*
X254461Y259842D01*
X254985Y259318D01*
Y258793D01*
X254461Y258268D01*
X253411D01*
X252887Y258793D01*
Y259318D01*
X253411Y259842D01*
X252887Y260367D01*
Y260892D01*
X253411Y259842D02*
X254461D01*
X234778Y258268D02*
Y261417D01*
X236353D01*
X236877Y260892D01*
Y259842D01*
X236353Y259318D01*
X234778D01*
X235828D02*
X236877Y258268D01*
X240026D02*
X237927D01*
X240026Y260367D01*
Y260892D01*
X239501Y261417D01*
X238452D01*
X237927Y260892D01*
X241075Y261417D02*
X243175D01*
Y260892D01*
X241075Y258793D01*
Y258268D01*
X264700Y282284D02*
Y285433D01*
X266274D01*
X266799Y284908D01*
Y283858D01*
X266274Y283333D01*
X264700D01*
X265749D02*
X266799Y282284D01*
X269947D02*
X267848D01*
X269947Y284383D01*
Y284908D01*
X269422Y285433D01*
X268373D01*
X267848Y284908D01*
X273096Y285433D02*
X272046Y284908D01*
X270997Y283858D01*
Y282809D01*
X271521Y282284D01*
X272571D01*
X273096Y282809D01*
Y283333D01*
X272571Y283858D01*
X270997D01*
X272047Y192259D02*
X268898D01*
Y193833D01*
X269423Y194358D01*
X270472D01*
X270997Y193833D01*
Y192259D01*
Y193308D02*
X272047Y194358D01*
Y197506D02*
Y195407D01*
X269948Y197506D01*
X269423D01*
X268898Y196982D01*
Y195932D01*
X269423Y195407D01*
X268898Y200655D02*
Y198556D01*
X270472D01*
X269948Y199605D01*
Y200130D01*
X270472Y200655D01*
X271522D01*
X272047Y200130D01*
Y199081D01*
X271522Y198556D01*
X286747Y285827D02*
Y288976D01*
X288321D01*
X288846Y288451D01*
Y287402D01*
X288321Y286877D01*
X286747D01*
X287796D02*
X288846Y285827D01*
X291994D02*
X289895D01*
X291994Y287926D01*
Y288451D01*
X291470Y288976D01*
X290420D01*
X289895Y288451D01*
X294618Y285827D02*
Y288976D01*
X293044Y287402D01*
X295143D01*
X286747Y197245D02*
Y200393D01*
X288321D01*
X288846Y199868D01*
Y198819D01*
X288321Y198294D01*
X286747D01*
X287796D02*
X288846Y197245D01*
X291994D02*
X289895D01*
X291994Y199344D01*
Y199868D01*
X291470Y200393D01*
X290420D01*
X289895Y199868D01*
X293044D02*
X293569Y200393D01*
X294618D01*
X295143Y199868D01*
Y199344D01*
X294618Y198819D01*
X294093D01*
X294618D01*
X295143Y198294D01*
Y197769D01*
X294618Y197245D01*
X293569D01*
X293044Y197769D01*
X264700Y274410D02*
Y277559D01*
X266274D01*
X266799Y277034D01*
Y275984D01*
X266274Y275460D01*
X264700D01*
X265749D02*
X266799Y274410D01*
X269947D02*
X267848D01*
X269947Y276509D01*
Y277034D01*
X269422Y277559D01*
X268373D01*
X267848Y277034D01*
X273096Y274410D02*
X270997D01*
X273096Y276509D01*
Y277034D01*
X272571Y277559D01*
X271521D01*
X270997Y277034D01*
X272047Y183728D02*
X268898D01*
Y185302D01*
X269423Y185827D01*
X270472D01*
X270997Y185302D01*
Y183728D01*
Y184778D02*
X272047Y185827D01*
Y188976D02*
Y186877D01*
X269948Y188976D01*
X269423D01*
X268898Y188451D01*
Y187402D01*
X269423Y186877D01*
X272047Y190025D02*
Y191075D01*
Y190550D01*
X268898D01*
X269423Y190025D01*
X272047Y261550D02*
X268898D01*
Y263124D01*
X269423Y263649D01*
X270472D01*
X270997Y263124D01*
Y261550D01*
Y262599D02*
X272047Y263649D01*
Y266798D02*
Y264699D01*
X269948Y266798D01*
X269423D01*
X268898Y266273D01*
Y265223D01*
X269423Y264699D01*
Y267847D02*
X268898Y268372D01*
Y269421D01*
X269423Y269946D01*
X271522D01*
X272047Y269421D01*
Y268372D01*
X271522Y267847D01*
X269423D01*
X272047Y173230D02*
X268898D01*
Y174804D01*
X269423Y175329D01*
X270472D01*
X270997Y174804D01*
Y173230D01*
Y174279D02*
X272047Y175329D01*
Y176378D02*
Y177428D01*
Y176903D01*
X268898D01*
X269423Y176378D01*
X271522Y179002D02*
X272047Y179527D01*
Y180576D01*
X271522Y181101D01*
X269423D01*
X268898Y180576D01*
Y179527D01*
X269423Y179002D01*
X269948D01*
X270472Y179527D01*
Y181101D01*
X272047Y251970D02*
X268898D01*
Y253544D01*
X269423Y254069D01*
X270472D01*
X270997Y253544D01*
Y251970D01*
Y253019D02*
X272047Y254069D01*
Y255118D02*
Y256168D01*
Y255643D01*
X268898D01*
X269423Y255118D01*
Y257742D02*
X268898Y258267D01*
Y259316D01*
X269423Y259841D01*
X269948D01*
X270472Y259316D01*
X270997Y259841D01*
X271522D01*
X272047Y259316D01*
Y258267D01*
X271522Y257742D01*
X270997D01*
X270472Y258267D01*
X269948Y257742D01*
X269423D01*
X270472Y258267D02*
Y259316D01*
X272047Y162993D02*
X268898D01*
Y164568D01*
X269423Y165093D01*
X270472D01*
X270997Y164568D01*
Y162993D01*
Y164043D02*
X272047Y165093D01*
Y166142D02*
Y167192D01*
Y166667D01*
X268898D01*
X269423Y166142D01*
X268898Y168766D02*
Y170865D01*
X269423D01*
X271522Y168766D01*
X272047D01*
X287009Y256300D02*
Y259448D01*
X288583D01*
X289108Y258924D01*
Y257874D01*
X288583Y257349D01*
X287009D01*
X288059D02*
X289108Y256300D01*
X290158D02*
X291207D01*
X290683D01*
Y259448D01*
X290158Y258924D01*
X294881Y259448D02*
X293831Y258924D01*
X292782Y257874D01*
Y256824D01*
X293306Y256300D01*
X294356D01*
X294881Y256824D01*
Y257349D01*
X294356Y257874D01*
X292782D01*
X287009Y167323D02*
Y170472D01*
X288583D01*
X289108Y169947D01*
Y168898D01*
X288583Y168373D01*
X287009D01*
X288059D02*
X289108Y167323D01*
X290158D02*
X291207D01*
X290683D01*
Y170472D01*
X290158Y169947D01*
X294881Y170472D02*
X292782D01*
Y168898D01*
X293831Y169422D01*
X294356D01*
X294881Y168898D01*
Y167848D01*
X294356Y167323D01*
X293306D01*
X292782Y167848D01*
X272047Y242521D02*
X268898D01*
Y244095D01*
X269423Y244620D01*
X270472D01*
X270997Y244095D01*
Y242521D01*
Y243570D02*
X272047Y244620D01*
Y245670D02*
Y246719D01*
Y246194D01*
X268898D01*
X269423Y245670D01*
Y248293D02*
X268898Y248818D01*
Y249868D01*
X269423Y250392D01*
X269948D01*
X270472Y249868D01*
Y249343D01*
Y249868D01*
X270997Y250392D01*
X271522D01*
X272047Y249868D01*
Y248818D01*
X271522Y248293D01*
X272047Y153545D02*
X268898D01*
Y155119D01*
X269423Y155644D01*
X270472D01*
X270997Y155119D01*
Y153545D01*
Y154594D02*
X272047Y155644D01*
Y156693D02*
Y157743D01*
Y157218D01*
X268898D01*
X269423Y156693D01*
X272047Y161416D02*
Y159317D01*
X269948Y161416D01*
X269423D01*
X268898Y160891D01*
Y159842D01*
X269423Y159317D01*
X272047Y232416D02*
X268898D01*
Y233990D01*
X269423Y234515D01*
X270472D01*
X270997Y233990D01*
Y232416D01*
Y233465D02*
X272047Y234515D01*
Y235564D02*
Y236614D01*
Y236089D01*
X268898D01*
X269423Y235564D01*
X272047Y238188D02*
Y239238D01*
Y238713D01*
X268898D01*
X269423Y238188D01*
X272047Y142915D02*
X268898D01*
Y144489D01*
X269423Y145014D01*
X270472D01*
X270997Y144489D01*
Y142915D01*
Y143964D02*
X272047Y145014D01*
Y146063D02*
Y147113D01*
Y146588D01*
X268898D01*
X269423Y146063D01*
Y148687D02*
X268898Y149212D01*
Y150261D01*
X269423Y150786D01*
X271522D01*
X272047Y150261D01*
Y149212D01*
X271522Y148687D01*
X269423D01*
X272047Y222573D02*
X268898D01*
Y224147D01*
X269423Y224672D01*
X270472D01*
X270997Y224147D01*
Y222573D01*
Y223623D02*
X272047Y224672D01*
X271522Y225722D02*
X272047Y226246D01*
Y227296D01*
X271522Y227821D01*
X269423D01*
X268898Y227296D01*
Y226246D01*
X269423Y225722D01*
X269948D01*
X270472Y226246D01*
Y227821D01*
X272047Y133990D02*
X268898D01*
Y135565D01*
X269423Y136089D01*
X270472D01*
X270997Y135565D01*
Y133990D01*
Y135040D02*
X272047Y136089D01*
X269423Y137139D02*
X268898Y137664D01*
Y138713D01*
X269423Y139238D01*
X269948D01*
X270472Y138713D01*
X270997Y139238D01*
X271522D01*
X272047Y138713D01*
Y137664D01*
X271522Y137139D01*
X270997D01*
X270472Y137664D01*
X269948Y137139D01*
X269423D01*
X270472Y137664D02*
Y138713D01*
X288321Y226378D02*
Y229527D01*
X289895D01*
X290420Y229002D01*
Y227953D01*
X289895Y227428D01*
X288321D01*
X289371D02*
X290420Y226378D01*
X291470Y229527D02*
X293569D01*
Y229002D01*
X291470Y226903D01*
Y226378D01*
X287927Y137796D02*
Y140944D01*
X289502D01*
X290026Y140420D01*
Y139370D01*
X289502Y138845D01*
X287927D01*
X288977D02*
X290026Y137796D01*
X293175Y140944D02*
X292126Y140420D01*
X291076Y139370D01*
Y138321D01*
X291601Y137796D01*
X292650D01*
X293175Y138321D01*
Y138845D01*
X292650Y139370D01*
X291076D01*
X272047Y214305D02*
X268898D01*
Y215880D01*
X269423Y216404D01*
X270472D01*
X270997Y215880D01*
Y214305D01*
Y215355D02*
X272047Y216404D01*
Y219028D02*
X268898D01*
X270472Y217454D01*
Y219553D01*
X272047Y125723D02*
X268898D01*
Y127297D01*
X269423Y127822D01*
X270472D01*
X270997Y127297D01*
Y125723D01*
Y126772D02*
X272047Y127822D01*
X269423Y128871D02*
X268898Y129396D01*
Y130446D01*
X269423Y130970D01*
X269948D01*
X270472Y130446D01*
Y129921D01*
Y130446D01*
X270997Y130970D01*
X271522D01*
X272047Y130446D01*
Y129396D01*
X271522Y128871D01*
X272047Y204069D02*
X268898D01*
Y205643D01*
X269423Y206168D01*
X270472D01*
X270997Y205643D01*
Y204069D01*
Y205119D02*
X272047Y206168D01*
Y209317D02*
Y207218D01*
X269948Y209317D01*
X269423D01*
X268898Y208792D01*
Y207743D01*
X269423Y207218D01*
X272440Y112862D02*
X269292D01*
Y114436D01*
X269817Y114961D01*
X270866D01*
X271391Y114436D01*
Y112862D01*
Y113911D02*
X272440Y114961D01*
Y116010D02*
Y117060D01*
Y116535D01*
X269292D01*
X269817Y116010D01*
X308203Y274541D02*
Y276640D01*
X307678Y277165D01*
X306628D01*
X306104Y276640D01*
Y274541D01*
X306628Y274016D01*
X307678D01*
X307153Y275066D02*
X308203Y274016D01*
X307678D02*
X308203Y274541D01*
X309252Y274016D02*
X310302D01*
X309777D01*
Y277165D01*
X309252Y276640D01*
X313975Y274016D02*
X311876D01*
X313975Y276115D01*
Y276640D01*
X313450Y277165D01*
X312401D01*
X311876Y276640D01*
X308137Y185565D02*
Y187664D01*
X307612Y188189D01*
X306563D01*
X306038Y187664D01*
Y185565D01*
X306563Y185040D01*
X307612D01*
X307087Y186089D02*
X308137Y185040D01*
X307612D02*
X308137Y185565D01*
X309186Y185040D02*
X310236D01*
X309711D01*
Y188189D01*
X309186Y187664D01*
X311810Y185040D02*
X312860D01*
X312335D01*
Y188189D01*
X311810Y187664D01*
X292652Y260761D02*
Y262861D01*
X292127Y263385D01*
X291077D01*
X290552Y262861D01*
Y260761D01*
X291077Y260237D01*
X292127D01*
X291602Y261286D02*
X292652Y260237D01*
X292127D02*
X292652Y260761D01*
X293701Y260237D02*
X294751D01*
X294226D01*
Y263385D01*
X293701Y262861D01*
X296325D02*
X296850Y263385D01*
X297899D01*
X298424Y262861D01*
Y260761D01*
X297899Y260237D01*
X296850D01*
X296325Y260761D01*
Y262861D01*
X292782Y172179D02*
Y174278D01*
X292258Y174803D01*
X291208D01*
X290683Y174278D01*
Y172179D01*
X291208Y171654D01*
X292258D01*
X291733Y172704D02*
X292782Y171654D01*
X292258D02*
X292782Y172179D01*
X293832D02*
X294357Y171654D01*
X295406D01*
X295931Y172179D01*
Y174278D01*
X295406Y174803D01*
X294357D01*
X293832Y174278D01*
Y173753D01*
X294357Y173228D01*
X295931D01*
X308137Y245013D02*
Y247112D01*
X307612Y247637D01*
X306562D01*
X306038Y247112D01*
Y245013D01*
X306562Y244489D01*
X307612D01*
X307087Y245538D02*
X308137Y244489D01*
X307612D02*
X308137Y245013D01*
X309186Y247112D02*
X309711Y247637D01*
X310760D01*
X311285Y247112D01*
Y246588D01*
X310760Y246063D01*
X311285Y245538D01*
Y245013D01*
X310760Y244489D01*
X309711D01*
X309186Y245013D01*
Y245538D01*
X309711Y246063D01*
X309186Y246588D01*
Y247112D01*
X309711Y246063D02*
X310760D01*
X307349Y156037D02*
Y158136D01*
X306824Y158661D01*
X305775D01*
X305250Y158136D01*
Y156037D01*
X305775Y155512D01*
X306824D01*
X306300Y156562D02*
X307349Y155512D01*
X306824D02*
X307349Y156037D01*
X308399Y158661D02*
X310498D01*
Y158136D01*
X308399Y156037D01*
Y155512D01*
X292782Y231234D02*
Y233333D01*
X292258Y233858D01*
X291208D01*
X290683Y233333D01*
Y231234D01*
X291208Y230709D01*
X292258D01*
X291733Y231759D02*
X292782Y230709D01*
X292258D02*
X292782Y231234D01*
X295931Y233858D02*
X294881Y233333D01*
X293832Y232283D01*
Y231234D01*
X294357Y230709D01*
X295406D01*
X295931Y231234D01*
Y231759D01*
X295406Y232283D01*
X293832D01*
X292782Y142651D02*
Y144750D01*
X292258Y145275D01*
X291208D01*
X290683Y144750D01*
Y142651D01*
X291208Y142127D01*
X292258D01*
X291733Y143176D02*
X292782Y142127D01*
X292258D02*
X292782Y142651D01*
X295931Y145275D02*
X293832D01*
Y143701D01*
X294881Y144226D01*
X295406D01*
X295931Y143701D01*
Y142651D01*
X295406Y142127D01*
X294357D01*
X293832Y142651D01*
X307743Y215092D02*
Y217191D01*
X307218Y217716D01*
X306169D01*
X305644Y217191D01*
Y215092D01*
X306169Y214567D01*
X307218D01*
X306693Y215617D02*
X307743Y214567D01*
X307218D02*
X307743Y215092D01*
X310367Y214567D02*
Y217716D01*
X308792Y216142D01*
X310892D01*
X307349Y126903D02*
Y129002D01*
X306824Y129527D01*
X305775D01*
X305250Y129002D01*
Y126903D01*
X305775Y126379D01*
X306824D01*
X306300Y127428D02*
X307349Y126379D01*
X306824D02*
X307349Y126903D01*
X308399Y129002D02*
X308924Y129527D01*
X309973D01*
X310498Y129002D01*
Y128478D01*
X309973Y127953D01*
X309448D01*
X309973D01*
X310498Y127428D01*
Y126903D01*
X309973Y126379D01*
X308924D01*
X308399Y126903D01*
X292782Y201706D02*
Y203805D01*
X292258Y204330D01*
X291208D01*
X290683Y203805D01*
Y201706D01*
X291208Y201182D01*
X292258D01*
X291733Y202231D02*
X292782Y201182D01*
X292258D02*
X292782Y201706D01*
X295931Y201182D02*
X293832D01*
X295931Y203281D01*
Y203805D01*
X295406Y204330D01*
X294357D01*
X293832Y203805D01*
X292913Y113124D02*
Y115223D01*
X292389Y115747D01*
X291339D01*
X290814Y115223D01*
Y113124D01*
X291339Y112599D01*
X292389D01*
X291864Y113648D02*
X292913Y112599D01*
X292389D02*
X292913Y113124D01*
X293963Y112599D02*
X295012D01*
X294488D01*
Y115747D01*
X293963Y115223D01*
X263386Y301575D02*
Y300525D01*
Y301050D01*
X266010D01*
X266535Y300525D01*
Y300001D01*
X266010Y299476D01*
X266535Y302624D02*
Y303674D01*
Y303149D01*
X263386D01*
X263911Y302624D01*
X314699Y115223D02*
X314174Y114699D01*
Y113649D01*
X314699Y113124D01*
X316798D01*
X317322Y113649D01*
Y114699D01*
X316798Y115223D01*
Y116273D02*
X317322Y116798D01*
Y117847D01*
X316798Y118372D01*
X314699D01*
X314174Y117847D01*
Y116798D01*
X314699Y116273D01*
X315223D01*
X315748Y116798D01*
Y118372D01*
X357743Y302624D02*
X357218Y303149D01*
X356169D01*
X355644Y302624D01*
Y300525D01*
X356169Y300001D01*
X357218D01*
X357743Y300525D01*
X358792Y302624D02*
X359317Y303149D01*
X360367D01*
X360892Y302624D01*
Y302100D01*
X360367Y301575D01*
X360892Y301050D01*
Y300525D01*
X360367Y300001D01*
X359317D01*
X358792Y300525D01*
Y301050D01*
X359317Y301575D01*
X358792Y302100D01*
Y302624D01*
X359317Y301575D02*
X360367D01*
X354462Y122704D02*
X353938Y122179D01*
Y121129D01*
X354462Y120605D01*
X356561D01*
X357086Y121129D01*
Y122179D01*
X356561Y122704D01*
X353938Y123753D02*
Y125852D01*
X354462D01*
X356561Y123753D01*
X357086D01*
X219817Y255774D02*
X219292Y255250D01*
Y254200D01*
X219817Y253675D01*
X221916D01*
X222440Y254200D01*
Y255250D01*
X221916Y255774D01*
X219292Y258923D02*
X219817Y257874D01*
X220866Y256824D01*
X221916D01*
X222440Y257349D01*
Y258398D01*
X221916Y258923D01*
X221391D01*
X220866Y258398D01*
Y256824D01*
X203019Y298294D02*
X202494Y298818D01*
X201444D01*
X200920Y298294D01*
Y296195D01*
X201444Y295670D01*
X202494D01*
X203019Y296195D01*
X206167Y298818D02*
X204068D01*
Y297244D01*
X205118Y297769D01*
X205642D01*
X206167Y297244D01*
Y296195D01*
X205642Y295670D01*
X204593D01*
X204068Y296195D01*
X229790Y260892D02*
X229265Y261417D01*
X228216D01*
X227691Y260892D01*
Y258793D01*
X228216Y258268D01*
X229265D01*
X229790Y258793D01*
X232414Y258268D02*
Y261417D01*
X230840Y259842D01*
X232939D01*
X141208Y293176D02*
X140683Y293700D01*
X139633D01*
X139109Y293176D01*
Y291076D01*
X139633Y290552D01*
X140683D01*
X141208Y291076D01*
X142257Y293176D02*
X142782Y293700D01*
X143831D01*
X144356Y293176D01*
Y292651D01*
X143831Y292126D01*
X143307D01*
X143831D01*
X144356Y291601D01*
Y291076D01*
X143831Y290552D01*
X142782D01*
X142257Y291076D01*
X248688Y110892D02*
X248163Y111417D01*
X247113D01*
X246589Y110892D01*
Y108793D01*
X247113Y108268D01*
X248163D01*
X248688Y108793D01*
X251836Y108268D02*
X249737D01*
X251836Y110367D01*
Y110892D01*
X251312Y111417D01*
X250262D01*
X249737Y110892D01*
X133858Y245144D02*
X133334Y245669D01*
X132284D01*
X131759Y245144D01*
Y243045D01*
X132284Y242520D01*
X133334D01*
X133858Y243045D01*
X134908Y242520D02*
X135957D01*
X135433D01*
Y245669D01*
X134908Y245144D01*
D12*
X128347Y107874D02*
X144882D01*
Y132283D01*
X142008Y135158D02*
X144882Y132283D01*
X128347Y124016D02*
Y132323D01*
X131220Y135197D01*
X111024Y129921D02*
Y155512D01*
X104724Y161811D02*
X111024Y155512D01*
X104724Y161811D02*
Y164567D01*
X128347Y129528D02*
Y167717D01*
X115354Y180709D02*
X128347Y167717D01*
X130096Y179352D02*
Y230927D01*
X132283Y254724D02*
X140551D01*
X132283D02*
Y273622D01*
X105118Y254724D02*
X132283D01*
X105118D02*
Y274016D01*
X138583D01*
X140945Y276378D01*
X105118Y263779D02*
X132283D01*
D13*
X114173Y180709D02*
X115354D01*
X100787Y305118D02*
X100787Y100787D01*
X425984D01*
X100787Y305118D02*
X425984D01*
X425984Y100787D01*
D14*
X195280Y224507D02*
X192131D01*
Y219784D01*
X195280D01*
X192131Y222146D02*
X193705D01*
X200003Y223720D02*
X199215Y224507D01*
X197641D01*
X196854Y223720D01*
Y222933D01*
X197641Y222146D01*
X199215D01*
X200003Y221359D01*
Y220571D01*
X199215Y219784D01*
X197641D01*
X196854Y220571D01*
X201577Y219784D02*
Y224507D01*
X203938D01*
X204725Y223720D01*
Y222146D01*
X203938Y221359D01*
X201577D01*
X206300Y223720D02*
X207087Y224507D01*
X208661D01*
X209448Y223720D01*
Y222933D01*
X208661Y222146D01*
X207874D01*
X208661D01*
X209448Y221359D01*
Y220571D01*
X208661Y219784D01*
X207087D01*
X206300Y220571D01*
X214171Y219784D02*
X211023D01*
X214171Y222933D01*
Y223720D01*
X213384Y224507D01*
X211810D01*
X211023Y223720D01*
X218894D02*
X218107Y224507D01*
X216533D01*
X215745Y223720D01*
Y222933D01*
X216533Y222146D01*
X218107D01*
X218894Y221359D01*
Y220571D01*
X218107Y219784D01*
X216533D01*
X215745Y220571D01*
X220468Y223720D02*
X221255Y224507D01*
X222830D01*
X223617Y223720D01*
Y222933D01*
X222830Y222146D01*
X222043D01*
X222830D01*
X223617Y221359D01*
Y220571D01*
X222830Y219784D01*
X221255D01*
X220468Y220571D01*
X173633Y211713D02*
Y216436D01*
X175207Y214862D01*
X176782Y216436D01*
Y211713D01*
X178356Y216436D02*
X179930D01*
X179143D01*
Y211713D01*
X178356D01*
X179930D01*
X185440Y215649D02*
X184653Y216436D01*
X183079D01*
X182292Y215649D01*
Y212500D01*
X183079Y211713D01*
X184653D01*
X185440Y212500D01*
X187015Y211713D02*
Y216436D01*
X189376D01*
X190163Y215649D01*
Y214075D01*
X189376Y213287D01*
X187015D01*
X188589D02*
X190163Y211713D01*
X194099Y216436D02*
X192525D01*
X191737Y215649D01*
Y212500D01*
X192525Y211713D01*
X194099D01*
X194886Y212500D01*
Y215649D01*
X194099Y216436D01*
X199609Y215649D02*
X198822Y216436D01*
X197248D01*
X196460Y215649D01*
Y212500D01*
X197248Y211713D01*
X198822D01*
X199609Y212500D01*
X203545Y216436D02*
X201970D01*
X201183Y215649D01*
Y212500D01*
X201970Y211713D01*
X203545D01*
X204332Y212500D01*
Y215649D01*
X203545Y216436D01*
X205906Y211713D02*
Y216436D01*
X209055Y211713D01*
Y216436D01*
X210629D02*
X213778D01*
X212203D01*
Y211713D01*
X215352D02*
Y216436D01*
X217713D01*
X218500Y215649D01*
Y214075D01*
X217713Y213287D01*
X215352D01*
X216926D02*
X218500Y211713D01*
X222436Y216436D02*
X220862D01*
X220075Y215649D01*
Y212500D01*
X220862Y211713D01*
X222436D01*
X223223Y212500D01*
Y215649D01*
X222436Y216436D01*
X224798D02*
Y211713D01*
X227946D01*
X229521Y216436D02*
Y211713D01*
X232669D01*
X237392Y216436D02*
X234243D01*
Y211713D01*
X237392D01*
X234243Y214075D02*
X235818D01*
X238966Y211713D02*
Y216436D01*
X241328D01*
X242115Y215649D01*
Y214075D01*
X241328Y213287D01*
X238966D01*
X240541D02*
X242115Y211713D01*
X275069Y303169D02*
Y299889D01*
X275725Y299233D01*
X277036D01*
X277692Y299889D01*
Y303169D01*
X281628Y302513D02*
X280972Y303169D01*
X279660D01*
X279004Y302513D01*
Y301857D01*
X279660Y301201D01*
X280972D01*
X281628Y300545D01*
Y299889D01*
X280972Y299233D01*
X279660D01*
X279004Y299889D01*
X282940Y303169D02*
Y299233D01*
X284908D01*
X285564Y299889D01*
Y300545D01*
X284908Y301201D01*
X282940D01*
X284908D01*
X285564Y301857D01*
Y302513D01*
X284908Y303169D01*
X282940D01*
X286876Y301201D02*
X289500D01*
X293435Y302513D02*
X292779Y303169D01*
X291467D01*
X290811Y302513D01*
Y299889D01*
X291467Y299233D01*
X292779D01*
X293435Y299889D01*
X263589Y292107D02*
Y296042D01*
X265557D01*
X266213Y295386D01*
Y294075D01*
X265557Y293419D01*
X263589D01*
X267525Y292107D02*
Y296042D01*
X269493D01*
X270149Y295386D01*
Y294075D01*
X269493Y293419D01*
X267525D01*
X268837D02*
X270149Y292107D01*
X273429Y296042D02*
X272117D01*
X271461Y295386D01*
Y292763D01*
X272117Y292107D01*
X273429D01*
X274085Y292763D01*
Y295386D01*
X273429Y296042D01*
X278020Y295386D02*
X277364Y296042D01*
X276052D01*
X275397Y295386D01*
Y292763D01*
X276052Y292107D01*
X277364D01*
X278020Y292763D01*
Y294075D01*
X276709D01*
X279332Y292107D02*
Y296042D01*
X281300D01*
X281956Y295386D01*
Y294075D01*
X281300Y293419D01*
X279332D01*
X280644D02*
X281956Y292107D01*
X283268D02*
Y294730D01*
X284580Y296042D01*
X285892Y294730D01*
Y292107D01*
Y294075D01*
X283268D01*
X287204Y292107D02*
Y296042D01*
X288516Y294730D01*
X289828Y296042D01*
Y292107D01*
X291140D02*
Y296042D01*
X292451Y294730D01*
X293763Y296042D01*
Y292107D01*
X295075Y296042D02*
X296387D01*
X295731D01*
Y292107D01*
X295075D01*
X296387D01*
X298355D02*
Y296042D01*
X300979Y292107D01*
Y296042D01*
X304915Y295386D02*
X304259Y296042D01*
X302947D01*
X302291Y295386D01*
Y292763D01*
X302947Y292107D01*
X304259D01*
X304915Y292763D01*
Y294075D01*
X303603D01*
X108271Y266536D02*
Y271259D01*
X110633D01*
X111420Y270472D01*
Y268898D01*
X110633Y268110D01*
X108271D01*
X109846D02*
X111420Y266536D01*
X116143Y271259D02*
X112994D01*
Y266536D01*
X116143D01*
X112994Y268898D02*
X114568D01*
X120866Y270472D02*
X120079Y271259D01*
X118504D01*
X117717Y270472D01*
Y269685D01*
X118504Y268898D01*
X120079D01*
X120866Y268110D01*
Y267323D01*
X120079Y266536D01*
X118504D01*
X117717Y267323D01*
X125589Y271259D02*
X122440D01*
Y266536D01*
X125589D01*
X122440Y268898D02*
X124014D01*
X127163Y271259D02*
X130311D01*
X128737D01*
Y266536D01*
X382526Y115486D02*
X381870Y114831D01*
Y113519D01*
X382526Y112863D01*
X385150D01*
X385806Y113519D01*
Y114831D01*
X385150Y115486D01*
X381870Y118766D02*
Y117454D01*
X382526Y116798D01*
X385150D01*
X385806Y117454D01*
Y118766D01*
X385150Y119422D01*
X382526D01*
X381870Y118766D01*
Y120734D02*
X385806D01*
Y123358D01*
X389653Y107615D02*
X388997Y106959D01*
Y105647D01*
X389653Y104991D01*
X392277D01*
X392933Y105647D01*
Y106959D01*
X392277Y107615D01*
X388997Y110895D02*
Y109583D01*
X389653Y108927D01*
X392277D01*
X392933Y109583D01*
Y110895D01*
X392277Y111551D01*
X389653D01*
X388997Y110895D01*
X392933Y112863D02*
X388997D01*
X392933Y115486D01*
X388997D01*
Y116798D02*
Y119422D01*
Y118110D01*
X392933D01*
Y120734D02*
X388997D01*
Y122702D01*
X389653Y123358D01*
X390965D01*
X391621Y122702D01*
Y120734D01*
Y122046D02*
X392933Y123358D01*
X388997Y126638D02*
Y125326D01*
X389653Y124670D01*
X392277D01*
X392933Y125326D01*
Y126638D01*
X392277Y127294D01*
X389653D01*
X388997Y126638D01*
Y128605D02*
X392933D01*
Y131229D01*
X111026Y261810D02*
Y257087D01*
X113388D01*
X114175Y257874D01*
Y258662D01*
X113388Y259449D01*
X111026D01*
X113388D01*
X114175Y260236D01*
Y261023D01*
X113388Y261810D01*
X111026D01*
X118111D02*
X116536D01*
X115749Y261023D01*
Y257874D01*
X116536Y257087D01*
X118111D01*
X118898Y257874D01*
Y261023D01*
X118111Y261810D01*
X122834D02*
X121259D01*
X120472Y261023D01*
Y257874D01*
X121259Y257087D01*
X122834D01*
X123621Y257874D01*
Y261023D01*
X122834Y261810D01*
X125195D02*
X128344D01*
X126769D01*
Y257087D01*
X313759Y284516D02*
X309823D01*
Y286484D01*
X310479Y287140D01*
X311791D01*
X312447Y286484D01*
Y284516D01*
Y285828D02*
X313759Y287140D01*
X309823Y290420D02*
Y289108D01*
X310479Y288452D01*
X313103D01*
X313759Y289108D01*
Y290420D01*
X313103Y291076D01*
X310479D01*
X309823Y290420D01*
Y292388D02*
X313759D01*
X312447Y293700D01*
X313759Y295011D01*
X309823D01*
X317606Y279269D02*
X316950Y278612D01*
Y277301D01*
X317606Y276645D01*
X320230D01*
X320885Y277301D01*
Y278612D01*
X320230Y279269D01*
X316950Y282548D02*
Y281236D01*
X317606Y280580D01*
X320230D01*
X320885Y281236D01*
Y282548D01*
X320230Y283204D01*
X317606D01*
X316950Y282548D01*
X320885Y284516D02*
X316950D01*
X320885Y287140D01*
X316950D01*
Y288452D02*
Y291076D01*
Y289764D01*
X320885D01*
Y292388D02*
X316950D01*
Y294356D01*
X317606Y295011D01*
X318918D01*
X319574Y294356D01*
Y292388D01*
Y293700D02*
X320885Y295011D01*
X316950Y298291D02*
Y296979D01*
X317606Y296323D01*
X320230D01*
X320885Y296979D01*
Y298291D01*
X320230Y298947D01*
X317606D01*
X316950Y298291D01*
Y300259D02*
X320885D01*
Y302883D01*
X420867Y145819D02*
X424802D01*
Y148443D01*
X420867Y152379D02*
Y149755D01*
X424802D01*
Y152379D01*
X422835Y149755D02*
Y151067D01*
X420867Y153691D02*
X424802D01*
Y155658D01*
X424147Y156314D01*
X421523D01*
X420867Y155658D01*
Y153691D01*
X424802Y161562D02*
X420867D01*
X422179Y162874D01*
X420867Y164186D01*
X424802D01*
Y165498D02*
X422179D01*
X420867Y166810D01*
X422179Y168122D01*
X424802D01*
X422835D01*
Y165498D01*
X420867Y169434D02*
Y172057D01*
Y170746D01*
X424802D01*
Y173369D02*
X420867D01*
Y175337D01*
X421523Y175993D01*
X422835D01*
X423491Y175337D01*
Y173369D01*
Y174681D02*
X424802Y175993D01*
X420867Y177305D02*
Y178617D01*
Y177961D01*
X424802D01*
Y177305D01*
Y178617D01*
X420867Y180585D02*
X424802Y183209D01*
X420867D02*
X424802Y180585D01*
X422835Y188456D02*
Y191080D01*
X421523Y196328D02*
X420867Y196984D01*
Y198296D01*
X421523Y198952D01*
X422179D01*
X422835Y198296D01*
X423491Y198952D01*
X424147D01*
X424802Y198296D01*
Y196984D01*
X424147Y196328D01*
X423491D01*
X422835Y196984D01*
X422179Y196328D01*
X421523D01*
X422835Y196984D02*
Y198296D01*
X424802Y204199D02*
X420867D01*
Y206167D01*
X421523Y206823D01*
X422835D01*
X423491Y206167D01*
Y204199D01*
Y205511D02*
X424802Y206823D01*
X420867Y210103D02*
Y208791D01*
X421523Y208135D01*
X424147D01*
X424802Y208791D01*
Y210103D01*
X424147Y210759D01*
X421523D01*
X420867Y210103D01*
Y212071D02*
X424802D01*
X423491Y213383D01*
X424802Y214695D01*
X420867D01*
X421523Y218630D02*
X420867Y217974D01*
Y216663D01*
X421523Y216006D01*
X422179D01*
X422835Y216663D01*
Y217974D01*
X423491Y218630D01*
X424147D01*
X424802Y217974D01*
Y216663D01*
X424147Y216006D01*
X424802Y223878D02*
Y225190D01*
Y224534D01*
X420867D01*
X421523Y223878D01*
X424802Y229782D02*
Y227158D01*
X422179Y229782D01*
X421523D01*
X420867Y229126D01*
Y227814D01*
X421523Y227158D01*
Y237653D02*
X420867Y236997D01*
Y235685D01*
X421523Y235029D01*
X424147D01*
X424802Y235685D01*
Y236997D01*
X424147Y237653D01*
X420867Y240933D02*
Y239621D01*
X421523Y238965D01*
X424147D01*
X424802Y239621D01*
Y240933D01*
X424147Y241589D01*
X421523D01*
X420867Y240933D01*
Y242901D02*
X424802D01*
Y245525D01*
X420867Y246836D02*
X424147D01*
X424802Y247492D01*
Y248804D01*
X424147Y249460D01*
X420867D01*
X424802Y250772D02*
X420867D01*
X422179Y252084D01*
X420867Y253396D01*
X424802D01*
Y254708D02*
X420867D01*
X424802Y257332D01*
X420867D01*
X421523Y261267D02*
X420867Y260612D01*
Y259300D01*
X421523Y258644D01*
X422179D01*
X422835Y259300D01*
Y260612D01*
X423491Y261267D01*
X424147D01*
X424802Y260612D01*
Y259300D01*
X424147Y258644D01*
X261838Y239978D02*
X261182Y240634D01*
Y241946D01*
X261838Y242602D01*
X262494D01*
X263150Y241946D01*
Y241290D01*
Y241946D01*
X263806Y242602D01*
X264461D01*
X265118Y241946D01*
Y240634D01*
X264461Y239978D01*
X265118Y246537D02*
Y243914D01*
X262494Y246537D01*
X261838D01*
X261182Y245882D01*
Y244570D01*
X261838Y243914D01*
X254881Y241946D02*
X250945D01*
X252913Y239978D01*
Y242602D01*
X250945Y246537D02*
X251602Y245226D01*
X252913Y243914D01*
X254225D01*
X254881Y244570D01*
Y245882D01*
X254225Y246537D01*
X253569D01*
X252913Y245882D01*
Y243914D01*
X243989Y239978D02*
X244645Y240634D01*
Y241946D01*
X243989Y242602D01*
X241365D01*
X240709Y241946D01*
Y240634D01*
X241365Y239978D01*
X242021D01*
X242677Y240634D01*
Y242602D01*
X234409Y239978D02*
Y241290D01*
Y240634D01*
X230473D01*
X231129Y239978D01*
Y243258D02*
X230473Y243914D01*
Y245226D01*
X231129Y245882D01*
X233753D01*
X234409Y245226D01*
Y243914D01*
X233753Y243258D01*
X231129D01*
X224881Y239978D02*
Y241290D01*
Y240634D01*
X220946D01*
X221602Y239978D01*
X224881Y243258D02*
Y244570D01*
Y243914D01*
X220946D01*
X221602Y243258D01*
X214881Y239978D02*
Y241290D01*
Y240634D01*
X210946D01*
X211601Y239978D01*
X214881Y245882D02*
Y243258D01*
X212257Y245882D01*
X211601D01*
X210946Y245226D01*
Y243914D01*
X211601Y243258D01*
X204881Y239978D02*
Y241290D01*
Y240634D01*
X200945D01*
X201602Y239978D01*
Y243258D02*
X200945Y243914D01*
Y245226D01*
X201602Y245882D01*
X202257D01*
X202913Y245226D01*
Y244570D01*
Y245226D01*
X203569Y245882D01*
X204225D01*
X204881Y245226D01*
Y243914D01*
X204225Y243258D01*
X194881Y239978D02*
Y241290D01*
Y240634D01*
X190945D01*
X191602Y239978D01*
X194881Y245226D02*
X190945D01*
X192913Y243258D01*
Y245882D01*
X184881Y242602D02*
Y239978D01*
X182257Y242602D01*
X181602D01*
X180946Y241946D01*
Y240634D01*
X181602Y239978D01*
X184881Y243914D02*
Y245226D01*
Y244570D01*
X180946D01*
X181602Y243914D01*
X174881Y241946D02*
X170946D01*
X172913Y239978D01*
Y242602D01*
X170946Y243914D02*
Y246537D01*
X171601D01*
X174225Y243914D01*
X174881D01*
X164881Y241946D02*
X160945D01*
X162913Y239978D01*
Y242602D01*
X161601Y243914D02*
X160945Y244570D01*
Y245882D01*
X161601Y246537D01*
X162257D01*
X162913Y245882D01*
X163569Y246537D01*
X164225D01*
X164881Y245882D01*
Y244570D01*
X164225Y243914D01*
X163569D01*
X162913Y244570D01*
X162257Y243914D01*
X161601D01*
X162913Y244570D02*
Y245882D01*
X154881Y241946D02*
X150945D01*
X152913Y239978D01*
Y242602D01*
X150945Y246537D02*
Y243914D01*
X152913D01*
X152257Y245226D01*
Y245882D01*
X152913Y246537D01*
X154225D01*
X154881Y245882D01*
Y244570D01*
X154225Y243914D01*
X252149Y217953D02*
X249525D01*
X252149Y220577D01*
Y221233D01*
X251493Y221889D01*
X250181D01*
X249525Y221233D01*
X253461D02*
X254117Y221889D01*
X255429D01*
X256085Y221233D01*
Y218609D01*
X255429Y217953D01*
X254117D01*
X253461Y218609D01*
Y221233D01*
X250181Y207953D02*
X251493D01*
X250837D01*
Y211889D01*
X250181Y211233D01*
X253461Y208609D02*
X254117Y207953D01*
X255429D01*
X256085Y208609D01*
Y211233D01*
X255429Y211889D01*
X254117D01*
X253461Y211233D01*
Y210577D01*
X254117Y209921D01*
X256085D01*
X253461Y201233D02*
X254117Y201889D01*
X255429D01*
X256085Y201233D01*
Y200577D01*
X255429Y199921D01*
X256085Y199265D01*
Y198609D01*
X255429Y197953D01*
X254117D01*
X253461Y198609D01*
Y199265D01*
X254117Y199921D01*
X253461Y200577D01*
Y201233D01*
X254117Y199921D02*
X255429D01*
X250181Y187953D02*
X251493D01*
X250837D01*
Y191889D01*
X250181Y191233D01*
X253461D02*
X254117Y191889D01*
X255429D01*
X256085Y191233D01*
Y190577D01*
X255429Y189921D01*
X256085Y189265D01*
Y188609D01*
X255429Y187953D01*
X254117D01*
X253461Y188609D01*
Y189265D01*
X254117Y189921D01*
X253461Y190577D01*
Y191233D01*
X254117Y189921D02*
X255429D01*
X250181Y177953D02*
X251493D01*
X250837D01*
Y181889D01*
X250181Y181233D01*
X253461Y181889D02*
X256085D01*
Y181233D01*
X253461Y178609D01*
Y177953D01*
X250181Y167953D02*
X251493D01*
X250837D01*
Y171889D01*
X250181Y171233D01*
X256085Y171889D02*
X254773Y171233D01*
X253461Y169921D01*
Y168609D01*
X254117Y167953D01*
X255429D01*
X256085Y168609D01*
Y169265D01*
X255429Y169921D01*
X253461D01*
X250181Y157953D02*
X251493D01*
X250837D01*
Y161889D01*
X250181Y161233D01*
X256085Y161889D02*
X253461D01*
Y159921D01*
X254773Y160577D01*
X255429D01*
X256085Y159921D01*
Y158609D01*
X255429Y157953D01*
X254117D01*
X253461Y158609D01*
Y151889D02*
X256085D01*
Y151233D01*
X253461Y148609D01*
Y147953D01*
X256085Y141889D02*
X254773Y141233D01*
X253461Y139921D01*
Y138609D01*
X254117Y137953D01*
X255429D01*
X256085Y138609D01*
Y139265D01*
X255429Y139921D01*
X253461D01*
X256085Y131889D02*
X253461D01*
Y129921D01*
X254773Y130577D01*
X255429D01*
X256085Y129921D01*
Y128609D01*
X255429Y127953D01*
X254117D01*
X253461Y128609D01*
X159663Y220997D02*
X160319Y221653D01*
X161631D01*
X162287Y220997D01*
Y220341D01*
X161631Y219685D01*
X160975D01*
X161631D01*
X162287Y219029D01*
Y218373D01*
X161631Y217717D01*
X160319D01*
X159663Y218373D01*
X166223Y221653D02*
X163599D01*
Y219685D01*
X164911Y220341D01*
X165567D01*
X166223Y219685D01*
Y218373D01*
X165567Y217717D01*
X164255D01*
X163599Y218373D01*
X159663Y210997D02*
X160319Y211653D01*
X161631D01*
X162287Y210997D01*
Y210341D01*
X161631Y209685D01*
X160975D01*
X161631D01*
X162287Y209029D01*
Y208373D01*
X161631Y207717D01*
X160319D01*
X159663Y208373D01*
X166223Y211653D02*
X164911Y210997D01*
X163599Y209685D01*
Y208373D01*
X164255Y207717D01*
X165567D01*
X166223Y208373D01*
Y209029D01*
X165567Y209685D01*
X163599D01*
X159663Y200997D02*
X160319Y201653D01*
X161631D01*
X162287Y200997D01*
Y200341D01*
X161631Y199685D01*
X160975D01*
X161631D01*
X162287Y199029D01*
Y198373D01*
X161631Y197717D01*
X160319D01*
X159663Y198373D01*
X163599Y201653D02*
X166223D01*
Y200997D01*
X163599Y198373D01*
Y197717D01*
X159663Y190997D02*
X160319Y191653D01*
X161631D01*
X162287Y190997D01*
Y190341D01*
X161631Y189685D01*
X160975D01*
X161631D01*
X162287Y189029D01*
Y188373D01*
X161631Y187717D01*
X160319D01*
X159663Y188373D01*
X163599Y190997D02*
X164255Y191653D01*
X165567D01*
X166223Y190997D01*
Y190341D01*
X165567Y189685D01*
X166223Y189029D01*
Y188373D01*
X165567Y187717D01*
X164255D01*
X163599Y188373D01*
Y189029D01*
X164255Y189685D01*
X163599Y190341D01*
Y190997D01*
X164255Y189685D02*
X165567D01*
X159663Y180997D02*
X160319Y181653D01*
X161631D01*
X162287Y180997D01*
Y180341D01*
X161631Y179685D01*
X160975D01*
X161631D01*
X162287Y179029D01*
Y178373D01*
X161631Y177717D01*
X160319D01*
X159663Y178373D01*
X163599D02*
X164255Y177717D01*
X165567D01*
X166223Y178373D01*
Y180997D01*
X165567Y181653D01*
X164255D01*
X163599Y180997D01*
Y180341D01*
X164255Y179685D01*
X166223D01*
X161631Y167717D02*
Y171653D01*
X159663Y169685D01*
X162287D01*
X163599Y170997D02*
X164255Y171653D01*
X165567D01*
X166223Y170997D01*
Y168373D01*
X165567Y167717D01*
X164255D01*
X163599Y168373D01*
Y170997D01*
X161631Y157717D02*
Y161653D01*
X159663Y159685D01*
X162287D01*
X163599Y157717D02*
X164911D01*
X164255D01*
Y161653D01*
X163599Y160997D01*
X161631Y147717D02*
Y151653D01*
X159663Y149685D01*
X162287D01*
X166223Y147717D02*
X163599D01*
X166223Y150341D01*
Y150997D01*
X165567Y151653D01*
X164255D01*
X163599Y150997D01*
X159663Y138190D02*
Y142125D01*
X161631D01*
X162287Y141469D01*
Y140157D01*
X161631Y139502D01*
X159663D01*
X160975D02*
X162287Y138190D01*
X163599Y142125D02*
X166223Y138190D01*
Y142125D02*
X163599Y138190D01*
X159663Y131889D02*
X162287D01*
X160975D01*
Y127953D01*
X163599Y131889D02*
X166223Y127953D01*
Y131889D02*
X163599Y127953D01*
X162287Y117717D02*
X159663D01*
X162287Y120341D01*
Y120997D01*
X161631Y121653D01*
X160319D01*
X159663Y120997D01*
Y107481D02*
X160975D01*
X160319D01*
Y111417D01*
X159663Y110761D01*
D15*
X132102Y184254D02*
X132769Y184920D01*
X134102D01*
X134768Y184254D01*
Y183587D01*
X134102Y182921D01*
X133435D01*
X134102D01*
X134768Y182254D01*
Y181588D01*
X134102Y180921D01*
X132769D01*
X132102Y181588D01*
X136101Y180921D02*
Y181588D01*
X136767D01*
Y180921D01*
X136101D01*
X139433Y184254D02*
X140100Y184920D01*
X141433D01*
X142099Y184254D01*
Y183587D01*
X141433Y182921D01*
X140766D01*
X141433D01*
X142099Y182254D01*
Y181588D01*
X141433Y180921D01*
X140100D01*
X139433Y181588D01*
X119808Y184254D02*
X119141Y184920D01*
X117808D01*
X117142Y184254D01*
Y181588D01*
X117808Y180921D01*
X119141D01*
X119808Y181588D01*
Y182921D01*
X118475D01*
X121140Y180921D02*
Y184920D01*
X123806Y180921D01*
Y184920D01*
X125139D02*
Y180921D01*
X127138D01*
X127805Y181588D01*
Y184254D01*
X127138Y184920D01*
X125139D01*
M02*
