G04*
G04 #@! TF.GenerationSoftware,Altium Limited,Altium Designer,25.1.2 (22)*
G04*
G04 Layer_Color=32768*
%FSLAX25Y25*%
%MOIN*%
G70*
G04*
G04 #@! TF.SameCoordinates,9731B79D-0BF3-49C4-8AD9-4CBC44B71680*
G04*
G04*
G04 #@! TF.FilePolarity,Positive*
G04*
G01*
G75*
%ADD10C,0.00394*%
%ADD70C,0.00197*%
D10*
X249532Y96653D02*
Y206890D01*
X166854D02*
X249532D01*
X166854Y96653D02*
Y206890D01*
Y96653D02*
X249532D01*
X361378Y270276D02*
Y308150D01*
X399252D01*
Y270276D02*
Y308150D01*
X361378Y270276D02*
X399252D01*
X137402Y244094D02*
Y275590D01*
Y244094D02*
X189370D01*
Y275590D01*
X137402D02*
X189370D01*
X137402Y273622D02*
Y305118D01*
Y273622D02*
X189370D01*
Y305118D01*
X137402D02*
X189370D01*
X217618Y272421D02*
X267421D01*
X217618D02*
Y309449D01*
X267421D01*
Y272421D02*
Y309449D01*
D70*
X294783Y124528D02*
Y138465D01*
Y124528D02*
X309941D01*
Y138465D01*
X294783D02*
X309941D01*
X324803Y275590D02*
Y297638D01*
Y275590D02*
X355512D01*
Y297638D01*
X324803D02*
X355512D01*
X341732Y296850D02*
X355118D01*
X341732D02*
Y304724D01*
X355118D01*
Y296850D02*
Y304724D01*
X355709Y299606D02*
X363189D01*
X355709Y286221D02*
Y299606D01*
Y286221D02*
X363189D01*
Y299606D01*
X116437Y241831D02*
X130807D01*
Y231398D02*
Y241831D01*
X116437Y231398D02*
X130807D01*
X116437D02*
Y241831D01*
X130315Y241929D02*
Y249410D01*
X116929D02*
X130315D01*
X116929Y241929D02*
Y249410D01*
Y241929D02*
X130315D01*
X131102Y241732D02*
X144488D01*
Y233858D02*
Y241732D01*
X131102Y233858D02*
X144488D01*
X131102D02*
Y241732D01*
X130709Y289370D02*
Y302756D01*
X138583D01*
Y289370D02*
Y302756D01*
X130709Y289370D02*
X138583D01*
X130905Y275984D02*
X138386D01*
Y289370D01*
X130905D02*
X138386D01*
X130905Y275984D02*
Y289370D01*
X206693Y293307D02*
X220079D01*
X206693D02*
Y301181D01*
X220079D01*
Y293307D02*
Y301181D01*
X187106Y264547D02*
X220768D01*
X187106D02*
Y292933D01*
X220768D01*
Y264547D02*
Y292933D01*
X196358Y263878D02*
X210728D01*
Y253445D02*
Y263878D01*
X196358Y253445D02*
X210728D01*
X196358D02*
Y263878D01*
X219291Y251969D02*
Y265354D01*
X211417Y251969D02*
X219291D01*
X211417D02*
Y265354D01*
X219291D01*
X246654Y261417D02*
X254134D01*
Y274803D01*
X246654D02*
X254134D01*
X246654Y261417D02*
Y274803D01*
X234842Y261417D02*
X242323D01*
Y274803D01*
X234842D02*
X242323D01*
X234842Y261417D02*
Y274803D01*
X234252Y261811D02*
Y275197D01*
X226378Y261811D02*
X234252D01*
X226378D02*
Y275197D01*
X234252D01*
X273228Y280118D02*
Y287598D01*
Y280118D02*
X286614D01*
Y287598D01*
X273228D02*
X286614D01*
X273228Y272244D02*
Y279724D01*
Y272244D02*
X286614D01*
Y279724D01*
X273228D02*
X286614D01*
X287205Y272441D02*
X294685D01*
Y285827D01*
X287205D02*
X294685D01*
X287205Y272441D02*
Y285827D01*
X295177Y272165D02*
Y286102D01*
Y272165D02*
X310335D01*
Y286102D01*
X295177D02*
X310335D01*
X279823Y258386D02*
Y272323D01*
Y258386D02*
X294980D01*
Y272323D01*
X279823D02*
X294980D01*
X271850Y258661D02*
X279331D01*
Y272047D01*
X271850D02*
X279331D01*
X271850Y258661D02*
Y272047D01*
X273228Y250590D02*
Y258071D01*
Y250590D02*
X286614D01*
Y258071D01*
X273228D02*
X286614D01*
X287205Y242913D02*
X294685D01*
Y256299D01*
X287205D02*
X294685D01*
X287205Y242913D02*
Y256299D01*
X273228Y242717D02*
Y250197D01*
Y242717D02*
X286614D01*
Y250197D01*
X273228D02*
X286614D01*
X271850Y229134D02*
X279331D01*
Y242520D01*
X271850D02*
X279331D01*
X271850Y229134D02*
Y242520D01*
X295177Y242638D02*
Y256575D01*
Y242638D02*
X310335D01*
Y256575D01*
X295177D02*
X310335D01*
X279823Y228858D02*
Y242795D01*
Y228858D02*
X294980D01*
Y242795D01*
X279823D02*
X294980D01*
X273228Y221063D02*
Y228543D01*
Y221063D02*
X286614D01*
Y228543D01*
X273228D02*
X286614D01*
X286811Y213386D02*
X294291D01*
Y226772D01*
X286811D02*
X294291D01*
X286811Y213386D02*
Y226772D01*
X273228Y213189D02*
Y220669D01*
Y213189D02*
X286614D01*
Y220669D01*
X273228D02*
X286614D01*
X271850Y199606D02*
X279331D01*
Y212992D01*
X271850D02*
X279331D01*
X271850Y199606D02*
Y212992D01*
X130236Y134213D02*
Y177362D01*
Y134213D02*
X142992D01*
Y177362D01*
X130236D02*
X142992D01*
X142992Y185787D02*
Y228937D01*
X130236D02*
X142992D01*
X130236Y185787D02*
Y228937D01*
Y185787D02*
X142992D01*
X294783Y227047D02*
X309941D01*
Y213110D02*
Y227047D01*
X294783Y213110D02*
X309941D01*
X294783D02*
Y227047D01*
X279823Y213268D02*
X294980D01*
Y199331D02*
Y213268D01*
X279823Y199331D02*
X294980D01*
X279823D02*
Y213268D01*
X273228Y191142D02*
X286614D01*
Y183661D02*
Y191142D01*
X273228Y183661D02*
X286614D01*
X273228D02*
Y191142D01*
Y199016D02*
X286614D01*
Y191535D02*
Y199016D01*
X273228Y191535D02*
X286614D01*
X273228D02*
Y199016D01*
X287205Y183858D02*
Y197244D01*
X294685D01*
Y183858D02*
Y197244D01*
X287205Y183858D02*
X294685D01*
X295177Y197520D02*
X310335D01*
Y183583D02*
Y197520D01*
X295177Y183583D02*
X310335D01*
X295177D02*
Y197520D01*
X279823Y183740D02*
X294980D01*
Y169803D02*
Y183740D01*
X279823Y169803D02*
X294980D01*
X279823D02*
Y183740D01*
X271850Y170079D02*
Y183465D01*
X279331D01*
Y170079D02*
Y183465D01*
X271850Y170079D02*
X279331D01*
X273228Y169488D02*
X286614D01*
Y162008D02*
Y169488D01*
X273228Y162008D02*
X286614D01*
X273228D02*
Y169488D01*
X287205Y154331D02*
Y167717D01*
X294685D01*
Y154331D02*
Y167717D01*
X287205Y154331D02*
X294685D01*
X294390Y167992D02*
X309547D01*
Y154055D02*
Y167992D01*
X294390Y154055D02*
X309547D01*
X294390D02*
Y167992D01*
X279823Y154213D02*
X294980D01*
Y140276D02*
Y154213D01*
X279823Y140276D02*
X294980D01*
X279823D02*
Y154213D01*
X273228Y161614D02*
X286614D01*
Y154134D02*
Y161614D01*
X273228Y154134D02*
X286614D01*
X273228D02*
Y161614D01*
X271850Y140551D02*
Y153937D01*
X279331D01*
Y140551D02*
Y153937D01*
X271850Y140551D02*
X279331D01*
X287205Y124803D02*
Y138189D01*
X294685D01*
Y124803D02*
Y138189D01*
X287205Y124803D02*
X294685D01*
X273228Y139961D02*
X286614D01*
Y132480D02*
Y139961D01*
X273228Y132480D02*
X286614D01*
X273228D02*
Y139961D01*
Y132087D02*
X286614D01*
Y124606D02*
Y132087D01*
X273228Y124606D02*
X286614D01*
X273228D02*
Y132087D01*
X279823Y124685D02*
X294980D01*
Y110748D02*
Y124685D01*
X279823Y110748D02*
X294980D01*
X279823D02*
Y124685D01*
X271850Y111024D02*
Y124409D01*
X279331D01*
Y111024D02*
Y124409D01*
X271850Y111024D02*
X279331D01*
X359055Y102756D02*
Y133465D01*
X381102D01*
Y102756D02*
Y133465D01*
X359055Y102756D02*
X381102D01*
X359055Y125984D02*
Y133858D01*
X345669D02*
X359055D01*
X345669Y125984D02*
Y133858D01*
Y125984D02*
X359055D01*
X318918Y103059D02*
Y133768D01*
X340965D01*
Y103059D02*
Y133768D01*
X318918Y103059D02*
X340965D01*
X311024Y133071D02*
X318898D01*
X311024Y119685D02*
Y133071D01*
Y119685D02*
X318898D01*
Y133071D01*
X245276Y125591D02*
X253150D01*
X245276Y112205D02*
Y125591D01*
Y112205D02*
X253150D01*
Y125591D01*
X146756Y227087D02*
Y239843D01*
X269256Y239843D01*
X146756Y227087D02*
X269256Y227087D01*
X269331Y227087D02*
Y239843D01*
X146772Y225842D02*
X159528D01*
X159528Y103342D01*
X146772Y225842D02*
X146772Y103342D01*
X146772Y103268D02*
X159528D01*
X256614Y225842D02*
X269370D01*
X269370Y103342D01*
X256614Y225842D02*
X256614Y103342D01*
X256614Y103268D02*
X269370D01*
X117244Y185787D02*
X130000D01*
X117244D02*
Y228937D01*
X130000D01*
Y185787D02*
Y228937D01*
X101890Y163347D02*
X114646D01*
X101890D02*
Y246421D01*
X114646Y163347D02*
Y246421D01*
X101890D02*
X114646D01*
X416609Y258556D02*
X421759Y263706D01*
X411737Y273728D02*
X421759Y263706D01*
X406587Y268578D02*
X411737Y273728D01*
X406587Y268578D02*
X416609Y258556D01*
Y247138D02*
X421759Y252289D01*
X411737Y262311D02*
X421759Y252289D01*
X406587Y257160D02*
X411737Y262311D01*
X406587Y257160D02*
X416609Y247138D01*
Y235721D02*
X421759Y240871D01*
X411737Y250893D02*
X421759Y240871D01*
X406587Y245743D02*
X411737Y250893D01*
X406587Y245743D02*
X416609Y235721D01*
Y224304D02*
X421759Y229454D01*
X411737Y239476D02*
X421759Y229454D01*
X406587Y234326D02*
X411737Y239476D01*
X406587Y234326D02*
X416609Y224304D01*
Y212886D02*
X421759Y218037D01*
X411737Y228059D02*
X421759Y218037D01*
X406587Y222908D02*
X411737Y228059D01*
X406587Y222908D02*
X416609Y212886D01*
Y201469D02*
X421759Y206619D01*
X411737Y216641D02*
X421759Y206619D01*
X406587Y211491D02*
X411737Y216641D01*
X406587Y211491D02*
X416609Y201469D01*
Y190052D02*
X421759Y195202D01*
X411737Y205224D02*
X421759Y195202D01*
X406587Y200074D02*
X411737Y205224D01*
X406587Y200074D02*
X416609Y190052D01*
Y178634D02*
X421759Y183785D01*
X411737Y193807D02*
X421759Y183785D01*
X406587Y188656D02*
X411737Y193807D01*
X406587Y188656D02*
X416609Y178634D01*
Y167217D02*
X421759Y172367D01*
X411737Y182389D02*
X421759Y172367D01*
X406587Y177239D02*
X411737Y182389D01*
X406587Y177239D02*
X416609Y167217D01*
Y156193D02*
X421759Y161344D01*
X411737Y171366D02*
X421759Y161344D01*
X406587Y166215D02*
X411737Y171366D01*
X406587Y166215D02*
X416609Y156193D01*
Y144776D02*
X421759Y149926D01*
X411737Y159948D02*
X421759Y149926D01*
X406587Y154798D02*
X411737Y159948D01*
X406587Y154798D02*
X416609Y144776D01*
Y133359D02*
X421759Y138509D01*
X411737Y148531D02*
X421759Y138509D01*
X406587Y143381D02*
X411737Y148531D01*
X406587Y143381D02*
X416609Y133359D01*
X402830Y258556D02*
X407980Y263706D01*
X397958Y273728D02*
X407980Y263706D01*
X392808Y268578D02*
X397958Y273728D01*
X392808Y268578D02*
X402830Y258556D01*
Y247174D02*
X407980Y252324D01*
X397958Y262346D02*
X407980Y252324D01*
X392808Y257196D02*
X397958Y262346D01*
X392808Y257196D02*
X402830Y247174D01*
Y235793D02*
X407980Y240943D01*
X397958Y250965D02*
X407980Y240943D01*
X392808Y245815D02*
X397958Y250965D01*
X392808Y245815D02*
X402830Y235793D01*
Y224411D02*
X407980Y229561D01*
X397958Y239583D02*
X407980Y229561D01*
X392808Y234433D02*
X397958Y239583D01*
X392808Y234433D02*
X402830Y224411D01*
Y213030D02*
X407980Y218180D01*
X397958Y228202D02*
X407980Y218180D01*
X392808Y223052D02*
X397958Y228202D01*
X392808Y223052D02*
X402830Y213030D01*
Y201648D02*
X407980Y206798D01*
X397958Y216820D02*
X407980Y206798D01*
X392808Y211670D02*
X397958Y216820D01*
X392808Y211670D02*
X402830Y201648D01*
Y190267D02*
X407980Y195417D01*
X397958Y205439D02*
X407980Y195417D01*
X392808Y200288D02*
X397958Y205439D01*
X392808Y200288D02*
X402830Y190267D01*
Y178885D02*
X407980Y184035D01*
X397958Y194057D02*
X407980Y184035D01*
X392808Y188907D02*
X397958Y194057D01*
X392808Y188907D02*
X402830Y178885D01*
Y167503D02*
X407980Y172654D01*
X397958Y182676D02*
X407980Y172654D01*
X392808Y177525D02*
X397958Y182676D01*
X392808Y177525D02*
X402830Y167503D01*
Y156122D02*
X407980Y161272D01*
X397958Y171294D02*
X407980Y161272D01*
X392808Y166144D02*
X397958Y171294D01*
X392808Y166144D02*
X402830Y156122D01*
Y144740D02*
X407980Y149890D01*
X397958Y159913D02*
X407980Y149890D01*
X392808Y154762D02*
X397958Y159913D01*
X392808Y154762D02*
X402830Y144740D01*
Y133359D02*
X407980Y138509D01*
X397958Y148531D02*
X407980Y138509D01*
X392808Y143381D02*
X397958Y148531D01*
X392808Y143381D02*
X402830Y133359D01*
X389050Y258556D02*
X394200Y263706D01*
X384178Y273728D02*
X394200Y263706D01*
X379028Y268578D02*
X384178Y273728D01*
X379028Y268578D02*
X389050Y258556D01*
Y247174D02*
X394200Y252324D01*
X384178Y262346D02*
X394200Y252324D01*
X379028Y257196D02*
X384178Y262346D01*
X379028Y257196D02*
X389050Y247174D01*
Y235793D02*
X394200Y240943D01*
X384178Y250965D02*
X394200Y240943D01*
X379028Y245815D02*
X384178Y250965D01*
X379028Y245815D02*
X389050Y235793D01*
Y224411D02*
X394200Y229561D01*
X384178Y239583D02*
X394200Y229561D01*
X379028Y234433D02*
X384178Y239583D01*
X379028Y234433D02*
X389050Y224411D01*
Y213030D02*
X394200Y218180D01*
X384178Y228202D02*
X394200Y218180D01*
X379028Y223052D02*
X384178Y228202D01*
X379028Y223052D02*
X389050Y213030D01*
Y201648D02*
X394200Y206798D01*
X384178Y216820D02*
X394200Y206798D01*
X379028Y211670D02*
X384178Y216820D01*
X379028Y211670D02*
X389050Y201648D01*
Y190267D02*
X394200Y195417D01*
X384178Y205439D02*
X394200Y195417D01*
X379028Y200288D02*
X384178Y205439D01*
X379028Y200288D02*
X389050Y190267D01*
Y178885D02*
X394200Y184035D01*
X384178Y194057D02*
X394200Y184035D01*
X379028Y188907D02*
X384178Y194057D01*
X379028Y188907D02*
X389050Y178885D01*
Y167503D02*
X394200Y172654D01*
X384178Y182676D02*
X394200Y172654D01*
X379028Y177525D02*
X384178Y182676D01*
X379028Y177525D02*
X389050Y167503D01*
Y156122D02*
X394200Y161272D01*
X384178Y171294D02*
X394200Y161272D01*
X379028Y166144D02*
X384178Y171294D01*
X379028Y166144D02*
X389050Y156122D01*
Y144740D02*
X394200Y149890D01*
X384178Y159913D02*
X394200Y149890D01*
X379028Y154762D02*
X384178Y159913D01*
X379028Y154762D02*
X389050Y144740D01*
Y133359D02*
X394200Y138509D01*
X384178Y148531D02*
X394200Y138509D01*
X379028Y143381D02*
X384178Y148531D01*
X379028Y143381D02*
X389050Y133359D01*
X375271Y258556D02*
X380421Y263706D01*
X370399Y273728D02*
X380421Y263706D01*
X365249Y268578D02*
X370399Y273728D01*
X365249Y268578D02*
X375271Y258556D01*
Y247174D02*
X380421Y252324D01*
X370399Y262346D02*
X380421Y252324D01*
X365249Y257196D02*
X370399Y262346D01*
X365249Y257196D02*
X375271Y247174D01*
Y235793D02*
X380421Y240943D01*
X370399Y250965D02*
X380421Y240943D01*
X365249Y245815D02*
X370399Y250965D01*
X365249Y245815D02*
X375271Y235793D01*
Y224411D02*
X380421Y229561D01*
X370399Y239583D02*
X380421Y229561D01*
X365249Y234433D02*
X370399Y239583D01*
X365249Y234433D02*
X375271Y224411D01*
Y213030D02*
X380421Y218180D01*
X370399Y228202D02*
X380421Y218180D01*
X365249Y223052D02*
X370399Y228202D01*
X365249Y223052D02*
X375271Y213030D01*
Y201648D02*
X380421Y206798D01*
X370399Y216820D02*
X380421Y206798D01*
X365249Y211670D02*
X370399Y216820D01*
X365249Y211670D02*
X375271Y201648D01*
Y190267D02*
X380421Y195417D01*
X370399Y205439D02*
X380421Y195417D01*
X365249Y200288D02*
X370399Y205439D01*
X365249Y200288D02*
X375271Y190267D01*
Y178885D02*
X380421Y184035D01*
X370399Y194057D02*
X380421Y184035D01*
X365249Y188907D02*
X370399Y194057D01*
X365249Y188907D02*
X375271Y178885D01*
Y167503D02*
X380421Y172654D01*
X370399Y182676D02*
X380421Y172654D01*
X365249Y177525D02*
X370399Y182676D01*
X365249Y177525D02*
X375271Y167503D01*
Y156122D02*
X380421Y161272D01*
X370399Y171294D02*
X380421Y161272D01*
X365249Y166144D02*
X370399Y171294D01*
X365249Y166144D02*
X375271Y156122D01*
Y144740D02*
X380421Y149890D01*
X370399Y159913D02*
X380421Y149890D01*
X365249Y154762D02*
X370399Y159913D01*
X365249Y154762D02*
X375271Y144740D01*
Y133359D02*
X380421Y138509D01*
X370399Y148531D02*
X380421Y138509D01*
X365249Y143381D02*
X370399Y148531D01*
X365249Y143381D02*
X375271Y133359D01*
X361491Y258556D02*
X366641Y263706D01*
X356619Y273728D02*
X366641Y263706D01*
X351469Y268578D02*
X356619Y273728D01*
X351469Y268578D02*
X361491Y258556D01*
Y247174D02*
X366641Y252324D01*
X356619Y262346D02*
X366641Y252324D01*
X351469Y257196D02*
X356619Y262346D01*
X351469Y257196D02*
X361491Y247174D01*
Y235793D02*
X366641Y240943D01*
X356619Y250965D02*
X366641Y240943D01*
X351469Y245815D02*
X356619Y250965D01*
X351469Y245815D02*
X361491Y235793D01*
Y224411D02*
X366641Y229561D01*
X356619Y239583D02*
X366641Y229561D01*
X351469Y234433D02*
X356619Y239583D01*
X351469Y234433D02*
X361491Y224411D01*
Y213030D02*
X366641Y218180D01*
X356619Y228202D02*
X366641Y218180D01*
X351469Y223052D02*
X356619Y228202D01*
X351469Y223052D02*
X361491Y213030D01*
Y201648D02*
X366641Y206798D01*
X356619Y216820D02*
X366641Y206798D01*
X351469Y211670D02*
X356619Y216820D01*
X351469Y211670D02*
X361491Y201648D01*
Y190267D02*
X366641Y195417D01*
X356619Y205439D02*
X366641Y195417D01*
X351469Y200288D02*
X356619Y205439D01*
X351469Y200288D02*
X361491Y190267D01*
Y178885D02*
X366641Y184035D01*
X356619Y194057D02*
X366641Y184035D01*
X351469Y188907D02*
X356619Y194057D01*
X351469Y188907D02*
X361491Y178885D01*
Y167503D02*
X366641Y172654D01*
X356619Y182676D02*
X366641Y172654D01*
X351469Y177525D02*
X356619Y182676D01*
X351469Y177525D02*
X361491Y167503D01*
Y156122D02*
X366641Y161272D01*
X356619Y171294D02*
X366641Y161272D01*
X351469Y166144D02*
X356619Y171294D01*
X351469Y166144D02*
X361491Y156122D01*
Y144740D02*
X366641Y149890D01*
X356619Y159913D02*
X366641Y149890D01*
X351469Y154762D02*
X356619Y159913D01*
X351469Y154762D02*
X361491Y144740D01*
Y133359D02*
X366641Y138509D01*
X356619Y148531D02*
X366641Y138509D01*
X351469Y143381D02*
X356619Y148531D01*
X351469Y143381D02*
X361491Y133359D01*
X348105Y258556D02*
X353255Y263706D01*
X343233Y273728D02*
X353255Y263706D01*
X338083Y268578D02*
X343233Y273728D01*
X338083Y268578D02*
X348105Y258556D01*
Y247174D02*
X353255Y252324D01*
X343233Y262346D02*
X353255Y252324D01*
X338083Y257196D02*
X343233Y262346D01*
X338083Y257196D02*
X348105Y247174D01*
Y235793D02*
X353255Y240943D01*
X343233Y250965D02*
X353255Y240943D01*
X338083Y245815D02*
X343233Y250965D01*
X338083Y245815D02*
X348105Y235793D01*
Y224411D02*
X353255Y229561D01*
X343233Y239583D02*
X353255Y229561D01*
X338083Y234433D02*
X343233Y239583D01*
X338083Y234433D02*
X348105Y224411D01*
Y213030D02*
X353255Y218180D01*
X343233Y228202D02*
X353255Y218180D01*
X338083Y223052D02*
X343233Y228202D01*
X338083Y223052D02*
X348105Y213030D01*
Y201648D02*
X353255Y206798D01*
X343233Y216820D02*
X353255Y206798D01*
X338083Y211670D02*
X343233Y216820D01*
X338083Y211670D02*
X348105Y201648D01*
Y190267D02*
X353255Y195417D01*
X343233Y205439D02*
X353255Y195417D01*
X338083Y200288D02*
X343233Y205439D01*
X338083Y200288D02*
X348105Y190267D01*
Y178885D02*
X353255Y184035D01*
X343233Y194057D02*
X353255Y184035D01*
X338083Y188907D02*
X343233Y194057D01*
X338083Y188907D02*
X348105Y178885D01*
Y167503D02*
X353255Y172654D01*
X343233Y182676D02*
X353255Y172654D01*
X338083Y177525D02*
X343233Y182676D01*
X338083Y177525D02*
X348105Y167503D01*
Y156122D02*
X353255Y161272D01*
X343233Y171294D02*
X353255Y161272D01*
X338083Y166144D02*
X343233Y171294D01*
X338083Y166144D02*
X348105Y156122D01*
Y144740D02*
X353255Y149890D01*
X343233Y159913D02*
X353255Y149890D01*
X338083Y154762D02*
X343233Y159913D01*
X338083Y154762D02*
X348105Y144740D01*
Y133359D02*
X353255Y138509D01*
X343233Y148531D02*
X353255Y138509D01*
X338083Y143381D02*
X343233Y148531D01*
X338083Y143381D02*
X348105Y133359D01*
X334326Y258556D02*
X339476Y263706D01*
X329454Y273728D02*
X339476Y263706D01*
X324304Y268578D02*
X329454Y273728D01*
X324304Y268578D02*
X334326Y258556D01*
Y247174D02*
X339476Y252324D01*
X329454Y262346D02*
X339476Y252324D01*
X324304Y257196D02*
X329454Y262346D01*
X324304Y257196D02*
X334326Y247174D01*
Y235793D02*
X339476Y240943D01*
X329454Y250965D02*
X339476Y240943D01*
X324304Y245815D02*
X329454Y250965D01*
X324304Y245815D02*
X334326Y235793D01*
Y224411D02*
X339476Y229561D01*
X329454Y239583D02*
X339476Y229561D01*
X324304Y234433D02*
X329454Y239583D01*
X324304Y234433D02*
X334326Y224411D01*
Y213030D02*
X339476Y218180D01*
X329454Y228202D02*
X339476Y218180D01*
X324304Y223052D02*
X329454Y228202D01*
X324304Y223052D02*
X334326Y213030D01*
Y201648D02*
X339476Y206798D01*
X329454Y216820D02*
X339476Y206798D01*
X324304Y211670D02*
X329454Y216820D01*
X324304Y211670D02*
X334326Y201648D01*
Y190267D02*
X339476Y195417D01*
X329454Y205439D02*
X339476Y195417D01*
X324304Y200288D02*
X329454Y205439D01*
X324304Y200288D02*
X334326Y190267D01*
Y178885D02*
X339476Y184035D01*
X329454Y194057D02*
X339476Y184035D01*
X324304Y188907D02*
X329454Y194057D01*
X324304Y188907D02*
X334326Y178885D01*
Y167503D02*
X339476Y172654D01*
X329454Y182676D02*
X339476Y172654D01*
X324304Y177525D02*
X329454Y182676D01*
X324304Y177525D02*
X334326Y167503D01*
Y156122D02*
X339476Y161272D01*
X329454Y171294D02*
X339476Y161272D01*
X324304Y166144D02*
X329454Y171294D01*
X324304Y166144D02*
X334326Y156122D01*
Y144740D02*
X339476Y149890D01*
X329454Y159913D02*
X339476Y149890D01*
X324304Y154762D02*
X329454Y159913D01*
X324304Y154762D02*
X334326Y144740D01*
Y133359D02*
X339476Y138509D01*
X329454Y148531D02*
X339476Y138509D01*
X324304Y143381D02*
X329454Y148531D01*
X324304Y143381D02*
X334326Y133359D01*
X320546Y258556D02*
X325696Y263706D01*
X315674Y273728D02*
X325696Y263706D01*
X310524Y268578D02*
X315674Y273728D01*
X310524Y268578D02*
X320546Y258556D01*
Y247532D02*
X325696Y252682D01*
X315674Y262704D02*
X325696Y252682D01*
X310524Y257554D02*
X315674Y262704D01*
X310524Y257554D02*
X320546Y247532D01*
Y236115D02*
X325696Y241265D01*
X315674Y251287D02*
X325696Y241265D01*
X310524Y246137D02*
X315674Y251287D01*
X310524Y246137D02*
X320546Y236115D01*
Y224697D02*
X325696Y229848D01*
X315674Y239869D02*
X325696Y229848D01*
X310524Y234719D02*
X315674Y239869D01*
X310524Y234719D02*
X320546Y224697D01*
Y213280D02*
X325696Y218430D01*
X315674Y228452D02*
X325696Y218430D01*
X310524Y223302D02*
X315674Y228452D01*
X310524Y223302D02*
X320546Y213280D01*
Y201863D02*
X325696Y207013D01*
X315674Y217035D02*
X325696Y207013D01*
X310524Y211885D02*
X315674Y217035D01*
X310524Y211885D02*
X320546Y201863D01*
Y190445D02*
X325696Y195596D01*
X315674Y205618D02*
X325696Y195596D01*
X310524Y200467D02*
X315674Y205618D01*
X310524Y200467D02*
X320546Y190445D01*
Y179028D02*
X325696Y184178D01*
X315674Y194200D02*
X325696Y184178D01*
X310524Y189050D02*
X315674Y194200D01*
X310524Y189050D02*
X320546Y179028D01*
Y167611D02*
X325696Y172761D01*
X315674Y182783D02*
X325696Y172761D01*
X310524Y177633D02*
X315674Y182783D01*
X310524Y177633D02*
X320546Y167611D01*
Y144776D02*
X325696Y149926D01*
X315674Y159948D02*
X325696Y149926D01*
X310524Y154798D02*
X315674Y159948D01*
X310524Y154798D02*
X320546Y144776D01*
Y133359D02*
X325696Y138509D01*
X315674Y148531D02*
X325696Y138509D01*
X310524Y143381D02*
X315674Y148531D01*
X310524Y143381D02*
X320546Y133359D01*
Y156193D02*
X325696Y161344D01*
X315674Y171366D02*
X325696Y161344D01*
X310524Y166215D02*
X315674Y171366D01*
X310524Y166215D02*
X320546Y156193D01*
M02*
